<svg width="441" height="118" viewBox="0 0 441 118" fill="none" xmlns="http://www.w3.org/2000/svg">
<path d="M148.712 72.504C148.712 72.68 148.624 73.912 148.448 76.2H112.632C113.277 79.1333 114.803 81.4507 117.208 83.152C119.613 84.8533 122.605 85.704 126.184 85.704C128.648 85.704 130.819 85.352 132.696 84.648C134.632 83.8853 136.421 82.712 138.064 81.128L145.368 89.048C140.909 94.152 134.397 96.704 125.832 96.704C120.493 96.704 115.771 95.6773 111.664 93.624C107.557 91.512 104.389 88.608 102.16 84.912C99.9307 81.216 98.816 77.0213 98.816 72.328C98.816 67.6933 99.9013 63.528 102.072 59.832C104.301 56.0773 107.323 53.1733 111.136 51.12C115.008 49.008 119.32 47.952 124.072 47.952C128.707 47.952 132.901 48.9493 136.656 50.944C140.411 52.9387 143.344 55.8133 145.456 59.568C147.627 63.264 148.712 67.576 148.712 72.504ZM124.16 58.336C121.051 58.336 118.44 59.216 116.328 60.976C114.216 62.736 112.925 65.1413 112.456 68.192H135.776C135.307 65.2 134.016 62.824 131.904 61.064C129.792 59.2453 127.211 58.336 124.16 58.336ZM206.076 30.704V96H192.964V90.544C189.561 94.6507 184.633 96.704 178.18 96.704C173.721 96.704 169.673 95.7067 166.036 93.712C162.457 91.7173 159.641 88.872 157.588 85.176C155.534 81.48 154.508 77.1973 154.508 72.328C154.508 67.4587 155.534 63.176 157.588 59.48C159.641 55.784 162.457 52.9387 166.036 50.944C169.673 48.9493 173.721 47.952 178.18 47.952C184.222 47.952 188.945 49.8587 192.348 53.672V30.704H206.076ZM180.556 85.44C184.017 85.44 186.892 84.2667 189.18 81.92C191.468 79.5147 192.612 76.3173 192.612 72.328C192.612 68.3387 191.468 65.1707 189.18 62.824C186.892 60.4187 184.017 59.216 180.556 59.216C177.036 59.216 174.132 60.4187 171.844 62.824C169.556 65.1707 168.412 68.3387 168.412 72.328C168.412 76.3173 169.556 79.5147 171.844 81.92C174.132 84.2667 177.036 85.44 180.556 85.44ZM266.477 48.656V96H253.453V90.368C251.635 92.4213 249.464 94.0053 246.941 95.12C244.419 96.176 241.691 96.704 238.757 96.704C232.539 96.704 227.611 94.9147 223.973 91.336C220.336 87.7573 218.517 82.448 218.517 75.408V48.656H232.245V73.384C232.245 81.0107 235.443 84.824 241.837 84.824C245.123 84.824 247.763 83.768 249.757 81.656C251.752 79.4853 252.749 76.288 252.749 72.064V48.656H266.477ZM302.075 96.704C297.03 96.704 292.483 95.6773 288.435 93.624C284.446 91.512 281.307 88.608 279.019 84.912C276.79 81.216 275.675 77.0213 275.675 72.328C275.675 67.6347 276.79 63.44 279.019 59.744C281.307 56.048 284.446 53.1733 288.435 51.12C292.483 49.008 297.03 47.952 302.075 47.952C307.062 47.952 311.403 49.008 315.099 51.12C318.854 53.1733 321.582 56.136 323.283 60.008L312.635 65.728C310.171 61.3867 306.622 59.216 301.987 59.216C298.409 59.216 295.446 60.3893 293.099 62.736C290.753 65.0827 289.579 68.28 289.579 72.328C289.579 76.376 290.753 79.5733 293.099 81.92C295.446 84.2667 298.409 85.44 301.987 85.44C306.681 85.44 310.23 83.2693 312.635 78.928L323.283 84.736C321.582 88.4907 318.854 91.424 315.099 93.536C311.403 95.648 307.062 96.704 302.075 96.704ZM376.962 72.504C376.962 72.68 376.874 73.912 376.698 76.2H340.882C341.527 79.1333 343.053 81.4507 345.458 83.152C347.863 84.8533 350.855 85.704 354.434 85.704C356.898 85.704 359.069 85.352 360.946 84.648C362.882 83.8853 364.671 82.712 366.314 81.128L373.618 89.048C369.159 94.152 362.647 96.704 354.082 96.704C348.743 96.704 344.021 95.6773 339.914 93.624C335.807 91.512 332.639 88.608 330.41 84.912C328.181 81.216 327.066 77.0213 327.066 72.328C327.066 67.6933 328.151 63.528 330.322 59.832C332.551 56.0773 335.573 53.1733 339.386 51.12C343.258 49.008 347.57 47.952 352.322 47.952C356.957 47.952 361.151 48.9493 364.906 50.944C368.661 52.9387 371.594 55.8133 373.706 59.568C375.877 63.264 376.962 67.576 376.962 72.504ZM352.41 58.336C349.301 58.336 346.69 59.216 344.578 60.976C342.466 62.736 341.175 65.1413 340.706 68.192H364.026C363.557 65.2 362.266 62.824 360.154 61.064C358.042 59.2453 355.461 58.336 352.41 58.336ZM434.326 30.704V96H421.214V90.544C417.811 94.6507 412.883 96.704 406.43 96.704C401.971 96.704 397.923 95.7067 394.286 93.712C390.707 91.7173 387.891 88.872 385.838 85.176C383.784 81.48 382.758 77.1973 382.758 72.328C382.758 67.4587 383.784 63.176 385.838 59.48C387.891 55.784 390.707 52.9387 394.286 50.944C397.923 48.9493 401.971 47.952 406.43 47.952C412.472 47.952 417.195 49.8587 420.598 53.672V30.704H434.326ZM408.806 85.44C412.267 85.44 415.142 84.2667 417.43 81.92C419.718 79.5147 420.862 76.3173 420.862 72.328C420.862 68.3387 419.718 65.1707 417.43 62.824C415.142 60.4187 412.267 59.216 408.806 59.216C405.286 59.216 402.382 60.4187 400.094 62.824C397.806 65.1707 396.662 68.3387 396.662 72.328C396.662 76.3173 397.806 79.5147 400.094 81.92C402.382 84.2667 405.286 85.44 408.806 85.44Z" fill="#242424" fill-opacity="0.9"/>
<path d="M76 64L56 96L36 64L56 32L76 64Z" fill="#242424"/>
<path d="M96 32L76 64L56 32L76 0L96 32Z" fill="#242424"/>
<path d="M76 64L56 96H96L76 64Z" fill="#242424" fill-opacity="0.85"/>
<path d="M56 32L76 0L36 0L56 32Z" fill="#242424" fill-opacity="0.85"/>
<path d="M28 0H4C1.79086 0 0 1.79086 0 4V92C0 94.2091 1.79086 96 4 96H28C30.2091 96 32 94.2091 32 92V4C32 1.79086 30.2091 0 28 0Z" fill="#F55555"/>
</svg>
