<svg width="200" height="64" viewBox="0 0 894 194" fill="none" xmlns="http://www.w3.org/2000/svg">
<path d="M152 128L112 192L72 128L112 64L152 128Z" fill="#242424"/>
<path d="M192 64L152 128L112 64L152 0L192 64Z" fill="#242424"/>
<path d="M152 128L112 192H192L152 128Z" fill="#242424" fill-opacity="0.85"/>
<path d="M112 64L152 0L72 0L112 64Z" fill="#242424" fill-opacity="0.85"/>
<path d="M56 0H8C3.58172 0 0 3.58172 0 8V184C0 188.418 3.58172 192 8 192H56C60.4183 192 64 188.418 64 184V8C64 3.58172 60.4183 0 56 0Z" fill="#242424"/>
<path d="M300.176 192L280.736 163.92H279.584H259.28V192H235.952V91.2H279.584C288.512 91.2 296.24 92.688 302.768 95.664C309.392 98.64 314.48 102.864 318.032 108.336C321.584 113.808 323.36 120.288 323.36 127.776C323.36 135.264 321.536 141.744 317.888 147.216C314.336 152.592 309.248 156.72 302.624 159.6L325.232 192H300.176ZM299.744 127.776C299.744 122.112 297.92 117.792 294.272 114.816C290.624 111.744 285.296 110.208 278.288 110.208H259.28V145.344H278.288C285.296 145.344 290.624 143.808 294.272 140.736C297.92 137.664 299.744 133.344 299.744 127.776ZM416.147 153.552C416.147 153.84 416.003 155.856 415.715 159.6H357.107C358.163 164.4 360.659 168.192 364.595 170.976C368.531 173.76 373.427 175.152 379.283 175.152C383.315 175.152 386.867 174.576 389.939 173.424C393.107 172.176 396.035 170.256 398.723 167.664L410.675 180.624C403.379 188.976 392.723 193.152 378.707 193.152C369.971 193.152 362.243 191.472 355.523 188.112C348.803 184.656 343.619 179.904 339.971 173.856C336.323 167.808 334.499 160.944 334.499 153.264C334.499 145.68 336.275 138.864 339.827 132.816C343.475 126.672 348.419 121.92 354.659 118.56C360.995 115.104 368.051 113.376 375.827 113.376C383.411 113.376 390.275 115.008 396.419 118.272C402.563 121.536 407.363 126.24 410.819 132.384C414.371 138.432 416.147 145.488 416.147 153.552ZM375.971 130.368C370.883 130.368 366.611 131.808 363.155 134.688C359.699 137.568 357.587 141.504 356.819 146.496H394.979C394.211 141.6 392.099 137.712 388.643 134.832C385.187 131.856 380.963 130.368 375.971 130.368ZM510.014 85.152V192H488.558V183.072C482.99 189.792 474.926 193.152 464.366 193.152C457.07 193.152 450.446 191.52 444.494 188.256C438.638 184.992 434.03 180.336 430.67 174.288C427.31 168.24 425.63 161.232 425.63 153.264C425.63 145.296 427.31 138.288 430.67 132.24C434.03 126.192 438.638 121.536 444.494 118.272C450.446 115.008 457.07 113.376 464.366 113.376C474.254 113.376 481.982 116.496 487.55 122.736V85.152H510.014ZM468.254 174.72C473.918 174.72 478.622 172.8 482.366 168.96C486.11 165.024 487.982 159.792 487.982 153.264C487.982 146.736 486.11 141.552 482.366 137.712C478.622 133.776 473.918 131.808 468.254 131.808C462.494 131.808 457.742 133.776 453.998 137.712C450.254 141.552 448.382 146.736 448.382 153.264C448.382 159.792 450.254 165.024 453.998 168.96C457.742 172.8 462.494 174.72 468.254 174.72ZM608.854 114.528V192H587.542V182.784C584.566 186.144 581.014 188.736 576.886 190.56C572.758 192.288 568.294 193.152 563.494 193.152C553.318 193.152 545.254 190.224 539.302 184.368C533.35 178.512 530.374 169.824 530.374 158.304V114.528H552.838V154.992C552.838 167.472 558.07 173.712 568.534 173.712C573.91 173.712 578.23 171.984 581.494 168.528C584.758 164.976 586.39 159.744 586.39 152.832V114.528H608.854ZM667.105 193.152C658.849 193.152 651.409 191.472 644.785 188.112C638.257 184.656 633.121 179.904 629.377 173.856C625.729 167.808 623.905 160.944 623.905 153.264C623.905 145.584 625.729 138.72 629.377 132.672C633.121 126.624 638.257 121.92 644.785 118.56C651.409 115.104 658.849 113.376 667.105 113.376C675.265 113.376 682.369 115.104 688.417 118.56C694.561 121.92 699.025 126.768 701.809 133.104L684.385 142.464C680.353 135.36 674.545 131.808 666.961 131.808C661.105 131.808 656.257 133.728 652.417 137.568C648.577 141.408 646.657 146.64 646.657 153.264C646.657 159.888 648.577 165.12 652.417 168.96C656.257 172.8 661.105 174.72 666.961 174.72C674.641 174.72 680.449 171.168 684.385 164.064L701.809 173.568C699.025 179.712 694.561 184.512 688.417 187.968C682.369 191.424 675.265 193.152 667.105 193.152ZM789.647 153.552C789.647 153.84 789.503 155.856 789.215 159.6H730.607C731.663 164.4 734.159 168.192 738.095 170.976C742.031 173.76 746.927 175.152 752.783 175.152C756.815 175.152 760.367 174.576 763.439 173.424C766.607 172.176 769.535 170.256 772.223 167.664L784.175 180.624C776.879 188.976 766.223 193.152 752.207 193.152C743.471 193.152 735.743 191.472 729.023 188.112C722.303 184.656 717.119 179.904 713.471 173.856C709.823 167.808 707.999 160.944 707.999 153.264C707.999 145.68 709.775 138.864 713.327 132.816C716.975 126.672 721.919 121.92 728.159 118.56C734.495 115.104 741.551 113.376 749.327 113.376C756.911 113.376 763.775 115.008 769.919 118.272C776.063 121.536 780.863 126.24 784.319 132.384C787.871 138.432 789.647 145.488 789.647 153.552ZM749.471 130.368C744.383 130.368 740.111 131.808 736.655 134.688C733.199 137.568 731.087 141.504 730.319 146.496H768.479C767.711 141.6 765.599 137.712 762.143 134.832C758.687 131.856 754.463 130.368 749.471 130.368ZM883.514 85.152V192H862.058V183.072C856.49 189.792 848.426 193.152 837.866 193.152C830.57 193.152 823.946 191.52 817.994 188.256C812.138 184.992 807.53 180.336 804.17 174.288C800.81 168.24 799.13 161.232 799.13 153.264C799.13 145.296 800.81 138.288 804.17 132.24C807.53 126.192 812.138 121.536 817.994 118.272C823.946 115.008 830.57 113.376 837.866 113.376C847.754 113.376 855.482 116.496 861.05 122.736V85.152H883.514ZM841.754 174.72C847.418 174.72 852.122 172.8 855.866 168.96C859.61 165.024 861.482 159.792 861.482 153.264C861.482 146.736 859.61 141.552 855.866 137.712C852.122 133.776 847.418 131.808 841.754 131.808C835.994 131.808 831.242 133.776 827.498 137.712C823.754 141.552 821.882 146.736 821.882 153.264C821.882 159.792 823.754 165.024 827.498 168.96C831.242 172.8 835.994 174.72 841.754 174.72Z" fill="black" fill-opacity="0.7"/>
</svg>
