<svg xmlns="http://www.w3.org/2000/svg" viewBox="0 0 1440 320"><path fill="#fff" fill-opacity="1" d="M0,128L30,128C60,128,120,128,180,112C240,96,300,64,360,64C420,64,480,96,540,133.3C600,171,660,213,720,240C780,267,840,277,900,261.3C960,245,1020,203,1080,170.7C1140,139,1200,117,1260,117.3C1320,117,1380,139,1410,149.3L1440,160L1440,0L1410,0C1380,0,1320,0,1260,0C1200,0,1140,0,1080,0C1020,0,960,0,900,0C840,0,780,0,720,0C660,0,600,0,540,0C480,0,420,0,360,0C300,0,240,0,180,0C120,0,60,0,30,0L0,0Z"></path></svg>