<svg viewBox="0 0 560 429" fill="none" xmlns="http://www.w3.org/2000/svg">
<path fill-rule="evenodd" clip-rule="evenodd" d="M370.69 214.687C373.472 213.483 376.885 213.886 379.31 215.705C381.735 217.524 383.077 220.688 382.699 223.696C384.404 222.775 386.565 221.867 388.156 222.974C389.952 224.223 389.542 226.914 389.272 229.085C388.801 232.879 389.412 236.801 391.016 240.271C391.678 241.705 392.247 243.88 390.778 244.458C390.53 244.556 390.259 244.578 389.993 244.599C372.764 245.988 355.534 247.377 338.304 248.765C337.832 248.803 337.302 248.824 336.945 248.512C336.58 248.195 336.535 247.654 336.515 247.171C336.35 243.118 336.185 239.065 336.019 235.013C335.975 233.926 335.954 232.753 336.568 231.855C337.584 230.369 339.713 230.373 341.491 230.088C343.268 229.804 345.337 228.303 344.653 226.638C343.89 224.781 346.49 223.425 348.474 223.122C350.459 222.82 353.091 221.638 352.49 219.722C351.833 217.63 354.712 216.332 356.886 216.043C358.42 215.839 360.024 215.642 361.479 216.169C362.934 216.695 364.164 218.193 363.836 219.705C363.461 221.436 365.569 223.049 367.232 222.437C368.894 221.826 369.568 219.554 368.726 217.995C368.039 216.722 369.363 215.261 370.69 214.687ZM379.588 241.393C378.943 240.199 378.938 238.776 378.933 237.419C378.905 231.044 378.514 224.672 377.76 218.342C377.722 218.023 377.662 217.666 377.4 217.479C377.175 217.317 376.872 217.336 376.596 217.362C375.249 217.488 373.654 217.785 373.123 219.028C372.896 219.558 372.922 220.158 372.953 220.734C373.295 227.122 373.636 233.511 373.977 239.899C374.009 240.494 374.088 241.177 374.583 241.51C374.852 241.691 375.191 241.725 375.516 241.743C376.88 241.817 378.255 241.699 379.588 241.393ZM356.413 231.571C356.246 232.635 356.012 233.692 355.949 234.767C355.845 236.565 356.223 238.351 356.6 240.112C356.841 241.241 358.3 241.797 359.37 241.361C360.439 240.926 361.085 239.785 361.263 238.644C361.44 237.504 361.232 236.343 361.05 235.203C360.336 230.724 360.027 226.181 360.128 221.647C360.153 220.499 359.034 219.463 357.892 219.576C356.75 219.689 355.856 220.925 356.107 222.045C356.804 225.164 356.908 228.414 356.413 231.571ZM367.745 225.452C367.073 224.573 365.534 225.041 365.009 226.016C364.485 226.991 364.646 228.174 364.776 229.273C365.115 232.144 365.147 235.051 364.872 237.929C364.791 238.777 364.701 239.703 365.169 240.415C365.89 241.51 367.47 241.5 368.775 241.368C369.183 241.326 369.654 241.247 369.859 240.891C370.002 240.644 369.969 240.336 369.93 240.053C369.329 235.588 368.727 231.123 368.126 226.658C368.069 226.235 368.004 225.792 367.745 225.452ZM382.669 227.371C382.163 228.061 382.057 228.96 382.013 229.814C381.862 232.745 382.25 235.674 382.638 238.582C382.79 239.728 383.314 241.201 384.468 241.123C385.637 241.044 385.942 239.48 385.915 238.309C385.843 235.206 385.771 232.103 385.699 229.001C385.68 228.185 385.594 227.24 384.917 226.785C384.207 226.307 383.176 226.681 382.669 227.371ZM347.353 226.638C347.353 226.638 347.866 230.687 348.045 232.75C348.27 235.341 348.556 237.925 348.904 240.502C348.955 240.876 349.022 241.281 349.298 241.539C349.777 241.985 351.623 241.688 351.963 241.129C352.303 240.57 352.284 239.872 352.254 239.218C352.161 237.15 352.067 235.082 351.973 233.014C351.873 230.797 351.346 226.016 351.346 226.016M340.656 241.3C340.804 241.764 340.978 242.249 341.353 242.56C342.085 243.165 343.272 242.79 343.849 242.036C344.426 241.281 344.556 240.287 344.666 239.343C344.802 238.186 344.932 236.982 344.558 235.879C344.183 234.775 343.145 233.804 341.984 233.906C340.916 234.001 340.089 234.976 339.84 236.019C339.59 237.062 339.8 238.156 340.06 239.196C340.236 239.903 340.435 240.605 340.656 241.3Z" fill="black"/>
<path fill-rule="evenodd" clip-rule="evenodd" d="M432.702 2.60372C444.496 14.8131 453.805 29.4126 459.899 45.2565C460.317 46.3448 460.723 47.5535 460.324 48.649C457.25 57.0832 451.317 64.1148 445.499 70.9519L434.348 84.0584C430.799 88.2292 427.25 92.4006 423.581 96.4663C404.903 117.168 382.833 135.269 357.271 146.407C356.307 146.827 355.272 147.247 354.233 147.079C353.194 146.911 352.221 145.902 352.493 144.886C355.653 133.072 358.833 120.721 356.298 108.759C355.686 105.873 355.004 102.24 357.388 100.503C376.694 86.4456 390.593 66.3517 403.913 46.5307C407.263 41.5468 410.603 36.5491 413.567 31.3268C418.83 22.0546 422.883 12.0969 425.591 1.78518C425.963 0.370153 427.749 -0.267033 429.164 0.103795C430.58 0.474623 431.685 1.55146 432.702 2.60372ZM424.448 17.7656C423.249 17.2699 422.144 18.6106 421.533 19.7548C420.872 20.9935 420.212 22.2342 419.551 23.4758C407.331 46.429 394.924 69.7343 376.302 87.8132C374.543 89.5214 372.576 91.5849 372.9 94.0156C373.94 101.807 369.78 110.035 362.889 113.818C359.761 115.535 359.798 119.967 360.256 123.506C360.44 124.923 360.975 126.699 362.399 126.819C366.575 127.171 370.582 129.226 373.304 132.413C374.163 133.418 375.791 132.79 376.91 132.086C405.081 114.376 426.727 88.2161 447.861 62.5137C448.59 61.627 449.366 60.5098 448.986 59.4266C445.788 50.3163 446.3 39.9629 450.383 31.2131C447.974 26.42 445.103 21.8593 441.823 17.6146C436.365 19.984 429.946 20.0398 424.448 17.7656ZM357.628 141.728C358.739 142.31 360.084 141.757 361.196 141.177C364.118 139.652 366.932 137.92 369.611 136C370.319 135.493 370.53 134.48 370.28 133.645C370.03 132.811 369.403 132.139 368.709 131.612C366.543 129.968 363.515 129.536 360.975 130.508C360.506 130.687 360.04 130.922 359.717 131.306C359.338 131.756 359.2 132.356 359.078 132.931C358.464 135.84 357.98 138.776 357.628 141.728ZM436.74 11.6993C434.826 7.95651 431.874 4.75132 428.301 2.53642C427.058 3.63204 426.816 5.29689 426.57 6.99415V6.99434C426.401 8.15893 426.23 9.33878 425.731 10.3605C425.569 10.6932 425.37 11.0116 425.172 11.3292C424.795 11.9338 424.42 12.5359 424.298 13.2302C424.114 14.2893 425.01 15.618 426.027 15.2675C426.853 14.9826 427.719 15.1656 428.593 15.3502C429.054 15.4476 429.517 15.5455 429.977 15.5752C432.66 15.7484 434.886 13.6465 436.74 11.6993ZM451.911 34.132C449.861 38.2108 450.185 43.0281 450.558 47.5781L451.093 54.1033C451.152 54.8209 451.542 55.7893 452.234 55.5905C452.663 54.3886 453.481 53.397 454.301 52.4028C455.019 51.5332 455.738 50.6616 456.2 49.6453C457.766 46.2039 456.028 42.2376 454.316 38.8666L451.911 34.132ZM360.12 106.555C360.206 107.831 361.532 108.787 362.81 108.751C364.089 108.715 365.24 107.888 365.987 106.849C366.735 105.811 367.145 104.574 367.544 103.359L368.862 99.3455C369.23 98.2267 369.252 96.516 368.082 96.3844C367.66 96.3369 367.256 96.5605 366.91 96.8068C365.598 97.7393 364.643 99.0787 363.713 100.392L361.18 103.97C360.631 104.746 360.057 105.606 360.12 106.555ZM58.0261 95.8427C49.1276 79.5502 43.4469 61.5083 41.4059 43.0567C41.2804 41.9221 40.0292 41.1871 38.8884 41.2266C37.7476 41.2661 36.7116 41.8689 35.7415 42.4704C21.9672 51.0105 10.242 62.8311 1.81387 76.6742C0.960744 78.0754 0.119698 79.5634 0.0119554 81.2003C-0.0937853 82.8069 0.519612 84.3653 1.15166 85.8461C10.4488 107.628 25.9527 126.103 41.6908 143.8C53.8124 157.431 66.7884 171.228 83.6898 178.089C86.4214 179.198 90.3892 179.65 91.5473 176.939C91.8842 176.15 91.8662 175.263 91.8488 174.404L91.8481 174.372C91.6619 165.181 92.7063 155.967 94.9447 147.051C95.4626 144.989 95.7318 142.207 93.8023 141.312C86.5453 137.949 81.5718 131.168 76.9209 124.661C70.2372 115.31 63.5357 105.93 58.0261 95.8427ZM73.735 167.06C72.7353 167.327 71.737 166.696 70.9024 166.085C55.5197 154.814 43.5991 139.56 31.8868 124.512L11.2176 97.9542C14.7065 95.7323 15.1494 90.9045 15.2255 86.7689C15.3244 81.3931 15.3965 75.8584 13.4546 70.8447C13.023 69.7303 13.5849 68.4954 14.1866 67.4629C16.7674 63.0347 20.3464 59.1921 24.5804 56.3037C24.9903 56.0241 25.4241 55.7463 25.9154 55.6769C27.212 55.4937 28.2067 56.7547 28.8996 57.8658C31.6362 62.2541 35.3971 67.2168 40.556 66.8555C42.5204 66.7179 43.6098 69.0318 44.1828 70.9157C51.3091 94.3436 64.6889 115.475 80.3796 134.275C82.4186 136.718 82.9302 140.015 83.4371 143.283C84.0024 146.926 84.5619 150.532 87.2273 152.875C89.503 154.875 89.0807 158.467 88.4666 161.434C88.3409 162.041 88.1913 162.692 87.7301 163.106C87.3876 163.414 86.9247 163.542 86.4798 163.661L73.735 167.06ZM37.2677 61.4286C34.4459 59.4569 32.0084 56.9373 30.1312 54.0518C29.7251 53.4277 29.3307 52.7281 29.402 51.9869C29.4796 51.181 30.0859 50.536 30.6892 49.9961C32.1791 48.6627 33.8629 47.5464 35.6712 46.6934C36.3334 46.381 37.1884 46.1272 37.7385 46.6104C38.0624 46.8949 38.1646 47.3494 38.2491 47.7722L40.8555 60.8073C41.0096 61.5779 40.2013 62.2719 39.4157 62.2943C38.6302 62.3167 37.9119 61.8787 37.2677 61.4286ZM11.4754 86.6407C11.4202 89.0925 11.2329 91.8442 9.39542 93.4684C9.01087 93.5141 8.75549 93.0921 8.60479 92.7354C7.2809 89.6014 5.93866 86.392 5.73018 82.9963C5.52171 79.6006 6.65973 75.9235 9.4346 73.9552C9.81009 73.6888 10.3608 73.4689 10.6922 73.7884C10.8254 73.9168 10.8824 74.1031 10.931 74.2817C11.6849 77.0533 11.6257 79.9722 11.561 82.8438L11.4754 86.6407ZM86.3559 168.196C86.8015 168.561 86.849 169.213 86.8611 169.789L86.9935 176.091C84.4083 174.658 81.9315 173.029 79.5914 171.223C79.1477 170.88 78.6601 170.326 78.9319 169.836C79.0667 169.593 79.3467 169.476 79.6075 169.379C81.2804 168.763 83.01 168.3 84.7673 167.999C85.3106 167.906 85.9294 167.847 86.3559 168.196ZM86.5047 143.372C86.481 143.087 86.481 142.777 86.6502 142.547C87.0967 141.94 88.0655 142.489 88.475 143.122C89.4614 144.645 89.6792 146.64 89.0446 148.34C87.5961 147.098 86.663 145.273 86.5047 143.372ZM471.582 95.5183C474.159 92.2732 478.856 91.8063 482.998 91.9075C483.966 91.9311 484.962 91.978 485.843 92.3795C488.294 93.4964 488.814 96.6988 488.897 99.3907C488.972 101.84 488.958 104.321 488.363 106.699C487.768 109.076 486.536 111.366 484.567 112.825C483.682 113.481 482.656 113.958 481.569 114.14C479.891 114.422 478.173 113.99 476.577 113.397C474.451 112.605 472.435 111.519 470.605 110.178C469.711 109.523 468.788 108.666 468.759 107.558C468.693 105.003 468.979 102.439 469.607 99.9619C470.008 98.3786 470.566 96.7975 471.582 95.5183ZM478.264 111.68C481.572 112.63 485.091 110.07 486.345 106.865C487.598 103.659 487.134 100.059 486.445 96.6866C486.181 95.3919 484.797 94.6687 483.522 94.3225C481.548 93.7867 479.449 93.7156 477.442 94.1167C476.446 94.3161 475.427 94.6575 474.728 95.3951C474.346 95.797 474.083 96.2933 473.824 96.783L471.886 100.446C471.545 101.09 471.202 101.74 471.001 102.441C470.402 104.537 471.194 106.865 472.657 108.48C474.121 110.096 476.168 111.079 478.264 111.68ZM433.984 148.718C437.018 149.777 439.768 151.639 441.877 154.063C443.69 156.146 445.071 158.851 444.69 161.586C444.55 162.59 444.18 163.548 443.757 164.469C442.157 167.96 439.404 171.305 435.624 171.981C433.642 172.336 431.597 171.911 429.69 171.262C427.485 170.512 425.382 169.459 423.46 168.143C422.44 167.445 421.427 166.617 420.98 165.465C420.672 164.671 420.662 163.796 420.674 162.945C420.702 160.839 420.842 158.697 421.576 156.723C422.505 154.225 424.323 152.163 426.251 150.323C427.026 149.583 427.848 148.853 428.844 148.457C430.473 147.808 432.328 148.141 433.984 148.718ZM437.086 167.077C439.278 164.907 440.554 161.762 440.207 158.697C439.859 155.633 437.785 152.757 434.884 151.71C433.678 151.275 432.341 151.154 431.106 151.496C430.439 151.68 429.814 151.994 429.231 152.365C426.733 153.954 424.98 156.663 424.554 159.592C424.129 162.521 425.038 165.617 426.98 167.851C428.223 169.281 430.253 169.894 432.133 169.657C434.013 169.419 435.739 168.41 437.086 167.077ZM160.197 130.651C160.095 129.206 158.163 128.827 156.715 128.87C149.113 129.093 141.521 129.663 133.97 130.576C132.729 130.726 132.629 132.726 133.625 133.481C134.62 134.237 136.006 134.096 137.243 133.92L160.197 130.651ZM135.894 140.423C135.96 139.679 136.895 139.409 137.637 139.325L182.415 134.254C183.225 134.163 184.088 134.08 184.817 134.444C185.545 134.809 186.015 135.807 185.539 136.468C185.188 136.956 184.516 137.055 183.918 137.113L138.118 141.557C137.166 141.65 135.811 141.376 135.894 140.423ZM236.28 147.965C233.774 148.516 231.203 147.612 228.801 146.714C221.032 143.81 213.293 140.827 205.586 137.764C202.475 136.527 199.061 138.379 196.263 140.217C188.165 145.537 180.369 151.315 172.923 157.515C171.011 159.107 168.068 157.99 166.139 156.417C165.732 156.084 165.33 155.73 164.927 155.374C163.425 154.046 161.903 152.701 159.96 152.426C156.973 152.002 154.346 154.266 152.182 156.368L138.224 169.923C136.347 171.746 134.372 174.665 136.042 176.679C137.144 178.008 139.168 177.94 140.883 177.741C149.837 176.703 158.746 175.248 167.653 173.793L167.654 173.793L167.654 173.793C182.375 171.388 197.087 168.985 211.976 168.47C215.275 168.356 218.577 168.335 221.878 168.314C223.945 168.301 226.013 168.288 228.08 168.252C237.403 168.089 246.718 167.461 255.978 166.37C256.426 166.317 256.936 166.225 257.168 165.839C257.343 165.547 257.3 165.179 257.25 164.842L253.327 138.153C253.128 136.797 252.78 135.23 251.541 134.644C250.289 134.052 248.814 134.815 247.786 135.743C246.178 137.196 244.939 139.125 243.717 141.028C241.712 144.15 239.753 147.202 236.28 147.965ZM172.581 162.569C180.959 155.681 189.693 149.228 198.739 143.245C200.597 142.016 202.854 140.758 204.93 141.565L226.864 150.088C230.525 151.511 234.529 152.952 238.287 151.812C242.656 150.486 245.268 146.139 247.468 142.138C247.896 141.36 249.14 141.45 249.757 142.089C250.373 142.728 250.529 143.669 250.656 144.548L252.261 155.678C252.508 157.387 252.75 159.16 252.256 160.815C251.762 162.469 250.312 163.972 248.585 163.939C220.351 163.393 192.062 165.722 164.297 170.875C163.44 171.034 162.584 171.196 161.727 171.358L161.725 171.358L161.724 171.358L161.723 171.359L161.721 171.359L161.72 171.359L161.718 171.359L161.717 171.36L161.716 171.36C155.083 172.612 148.425 173.869 141.684 173.892C144.939 169.281 149.064 165.365 153.16 161.483C155.408 159.351 158.22 157.051 161.239 157.749C162.87 158.125 164.12 159.297 165.364 160.462C165.763 160.836 166.162 161.209 166.572 161.555C168.26 162.981 170.875 163.972 172.581 162.569ZM534.806 240.207C534.057 240.486 533.221 240.295 532.459 240.056C527.296 238.433 523.103 234.803 518.982 231.236C518.424 230.752 517.867 230.27 517.31 229.795C510.481 223.97 503.071 218.829 495.225 214.471C494.427 214.028 493.59 213.561 493.101 212.79C492.612 212.019 492.627 210.845 493.381 210.33C496.899 207.928 499.181 203.806 499.348 199.549C499.393 198.415 500.675 197.659 501.806 197.749C502.938 197.84 503.925 198.52 504.85 199.177L540.702 224.627C541.399 225.122 542.151 225.696 542.322 226.535C542.461 227.219 542.175 227.912 541.886 228.548C540.34 231.96 538.562 235.266 536.568 238.437C536.116 239.155 535.601 239.911 534.806 240.207ZM498.939 210.017C498.517 210.76 498.153 211.835 498.835 212.349L528.091 234.377C529.693 235.584 532.183 236.714 533.445 235.155C534.893 233.365 536.246 231.497 537.496 229.563C537.838 229.034 538.187 228.429 538.063 227.811C537.951 227.247 537.477 226.837 537.03 226.475C526.293 217.769 514.925 209.842 503.045 202.777L498.939 210.017ZM484.379 223.487C484.852 222.677 485.425 221.79 486.341 221.591C487.043 221.439 487.756 221.74 488.402 222.053C491.925 223.764 495.151 226.083 497.896 228.876C498.556 229.548 498.638 230.63 498.344 231.525C498.05 232.421 497.444 233.174 496.851 233.906C495.896 235.081 494.879 236.305 493.471 236.863C491.951 237.465 490.183 237.174 488.743 236.399C487.304 235.624 486.149 234.412 485.131 233.133C483.803 231.465 482.614 229.464 482.82 227.341C482.955 225.951 483.675 224.695 484.379 223.487ZM490.54 232.828C492.756 233.689 494.173 233.006 494.232 231.553C494.268 230.637 493.468 229.931 492.741 229.371L490.54 227.678C489.813 227.119 489.011 226.533 488.094 226.539C487.176 226.545 486.242 227.491 486.618 228.328C486.561 228.732 488.325 231.966 490.54 232.828ZM481.796 250.714C482.336 251.009 482.909 251.299 483.525 251.312C484.14 251.325 484.808 250.976 484.959 250.379C485.314 248.977 486.242 247.815 487.149 246.678C487.249 246.554 487.347 246.43 487.445 246.306C488.44 245.048 489.399 243.622 489.426 242.019C489.452 240.415 488.124 238.706 486.536 238.925C485.284 239.097 484.119 238.277 483.21 237.399C483.065 237.259 482.922 237.116 482.777 236.972C482.016 236.213 481.243 235.442 480.233 235.112C479.032 234.721 477.395 235.344 477.3 236.604C477.108 239.141 474.999 241.052 473.043 242.68C472.457 243.167 472.986 244.102 473.534 244.631C476 247.015 478.787 249.066 481.796 250.714ZM482.187 245.878L478.333 243.272C477.354 242.609 477.432 240.985 478.306 240.188C479.179 239.39 480.537 239.329 481.65 239.728C482.764 240.128 483.69 240.911 484.59 241.679C485.185 242.187 485.268 243.112 484.995 243.846C484.723 244.58 484.168 245.168 483.627 245.735C483.442 245.929 483.235 246.134 482.97 246.168C482.687 246.205 482.423 246.038 482.187 245.878ZM512.734 246.05L514.618 242.047C515.195 240.821 515.754 239.304 514.975 238.196C514.705 237.811 514.306 237.539 513.916 237.277L507.061 232.657C506.322 232.159 505.52 231.641 504.629 231.655C503.573 231.672 502.688 232.426 501.937 233.17C500.814 234.283 499.764 235.471 498.795 236.722C498.058 237.675 497.453 239.242 498.46 239.902L508.949 246.785C509.777 247.328 510.828 247.886 511.697 247.413C512.208 247.135 512.487 246.576 512.734 246.05ZM510.41 243.216C509.969 243.317 509.509 243.205 509.076 243.075C506.428 242.277 504.004 240.749 502.142 238.704C501.523 238.023 501.873 236.822 502.66 236.345C503.447 235.868 504.47 235.978 505.318 236.334C505.866 236.564 506.367 236.884 506.869 237.205C507.144 237.381 507.419 237.557 507.702 237.718C508.007 237.892 508.325 238.051 508.642 238.21C509.543 238.662 510.446 239.114 511.061 239.896C511.892 240.953 511.72 242.915 510.41 243.216ZM513.952 247.687C515.161 247.4 515.53 246.168 515.914 244.886C516.232 243.828 516.559 242.736 517.378 242.116C518.788 241.05 520.786 241.941 522.305 242.845L527.137 245.72C527.907 246.178 528.695 246.652 529.248 247.357C529.8 248.063 530.071 249.062 529.685 249.871C529.427 250.41 528.94 250.768 528.449 251.129C528.046 251.424 527.641 251.721 527.358 252.122C526.995 252.637 526.86 253.282 526.726 253.92C526.559 254.72 526.393 255.507 525.783 256.01C524.671 256.927 523.017 256.192 521.787 255.441L514.979 251.281C514.293 250.861 513.569 250.401 513.231 249.67C512.894 248.939 513.169 247.874 513.952 247.687ZM522.877 251.818C523.852 251.485 524.635 250.762 525.387 250.059C525.932 249.549 525.203 248.709 524.553 248.343L520.382 245.995C519.947 245.75 519.341 245.526 519.004 245.894C517.918 247.08 517.76 249.014 518.64 250.36C519.52 251.706 521.355 252.338 522.877 251.818ZM475.024 251.673C474.09 251.409 473.14 251.141 472.377 250.621C471.193 249.814 469.544 250.009 468.301 250.723C467.058 251.437 466.131 252.581 465.234 253.699C464.737 254.32 464.225 254.967 464.035 255.739C463.845 256.511 464.072 257.448 464.767 257.835L472.04 261.889C472.591 262.196 473.206 262.513 473.821 262.377C474.434 262.241 474.857 261.696 475.226 261.188L477.097 258.613C478.139 257.18 479.227 255.353 478.466 253.753C477.855 252.471 476.459 252.078 475.024 251.673ZM472.721 258.342C472.341 258.443 471.95 258.26 471.599 258.081L466.644 255.559C467.597 254.211 469.409 253.694 471.052 253.857C472.695 254.02 474.22 254.751 475.706 255.47L473.429 257.834C473.225 258.046 473.006 258.267 472.721 258.342ZM438.395 157.51C439.162 158.679 438.922 160.242 438.413 161.545C437.742 163.263 436.609 164.854 435.007 165.767C433.406 166.681 431.302 166.815 429.742 165.833C428.181 164.851 427.398 162.667 428.234 161.024C428.428 160.644 428.691 160.308 428.955 159.971C429.208 159.649 429.46 159.326 429.652 158.966C429.777 158.728 429.875 158.477 429.973 158.225C430.114 157.863 430.255 157.501 430.478 157.184C431.272 156.06 432.837 155.839 434.214 155.858C435.776 155.88 437.538 156.203 438.395 157.51ZM434.909 158.253C432.772 158.226 430.768 160.017 430.557 162.143C430.47 163.012 430.839 164.093 431.704 164.212C432.352 164.302 432.921 163.801 433.356 163.313C434.278 162.28 435.07 161.131 435.707 159.902C435.92 159.49 436.109 158.961 435.828 158.591C435.623 158.322 435.247 158.257 434.909 158.253ZM486.009 102.529C485.844 100.572 484.535 98.6482 482.634 98.1581C480.219 97.5355 477.878 99.2359 475.961 100.831C475.394 101.303 474.802 101.81 474.562 102.508C474.154 103.691 474.887 104.938 475.61 105.961C476.437 107.132 477.32 108.309 478.527 109.083C479.733 109.857 481.342 110.157 482.608 109.485C483.253 109.142 483.756 108.582 484.192 107.996C485.364 106.421 486.173 104.485 486.009 102.529ZM480.653 107.544C479.835 107.667 478.986 107.336 478.383 106.769C477.48 105.919 477.122 104.553 477.438 103.354C477.77 102.091 478.83 101.049 480.097 100.737C481.365 100.426 482.787 100.859 483.666 101.824C483.633 102.087 483.606 102.351 483.578 102.616L483.578 102.617C483.485 103.516 483.392 104.417 483.08 105.262C482.677 106.356 481.806 107.371 480.653 107.544ZM415.65 412.708C420.103 396.956 428.509 382.66 436.829 368.563C438.235 366.18 439.978 363.556 442.708 363.104C443.784 362.926 444.352 361.756 444.718 360.729C449.231 348.071 449.666 333.995 445.943 321.084C444.881 317.398 446.189 313.491 447.483 309.88L457.504 281.927C456.462 280.124 454.491 279.332 452.495 278.53C450.825 277.859 449.137 277.18 447.959 275.897C444.633 272.272 447.142 266.507 449.748 262.334L495.422 189.187C497.287 186.2 501.38 185.264 504.811 186.06C508.242 186.856 511.172 189.015 513.993 191.122L547.305 216.003C553.264 220.454 559.843 226.14 559.5 233.571C559.31 237.683 556.957 241.337 554.681 244.767L528.281 284.548C524.867 289.692 524.453 295.946 524.037 302.229V302.229C523.849 305.07 523.661 307.917 523.194 310.67C520.918 324.102 511.973 335.225 503.403 345.882L502.868 346.547C502.705 346.75 502.542 346.953 502.38 347.155C493.51 358.202 484.636 370.537 484.137 384.695C483.543 401.569 475.527 418.049 462.618 428.934L473.851 401.683C476.522 395.203 478.996 387.14 474.526 381.741C472.503 379.299 469.446 378.006 466.511 376.802L449.066 369.645C447.863 369.151 446.623 368.65 445.323 368.642C441.27 368.617 438.859 373.013 437.216 376.718C431.531 389.534 424.27 401.65 415.65 412.708ZM473.013 375.7C476.004 376.808 480.216 377.48 481.633 374.623C488.493 360.794 495.542 346.699 506.462 335.787C512.756 329.498 516.614 321.106 518.797 312.481C520.98 303.855 521.598 294.922 522.207 286.045C519.557 287.01 519.327 290.586 519.338 293.406C519.363 299.622 518.276 305.842 516.144 311.682C515.698 312.904 515.099 314.225 513.904 314.74C512.71 315.256 510.95 314.22 511.351 312.983C514.433 303.483 515.581 293.362 514.707 283.413C514.435 280.329 513.861 277.029 511.668 274.843C511.906 279.714 512.143 284.606 511.65 289.457C510.796 297.849 507.787 305.851 504.804 313.743C504.417 314.767 503.949 315.884 502.965 316.366C501.981 316.847 500.454 316.084 500.711 315.02L505.178 296.555C507.634 286.403 510.049 275.483 506.247 265.754C504.332 265.626 503.881 268.363 504.052 270.275C505.223 283.367 501.604 296.362 498.02 309.009C497.602 310.485 496.121 312.332 494.971 311.316C494.475 310.878 494.452 310.124 494.492 309.463C494.718 305.744 495.738 302.144 496.756 298.547C497.072 297.431 497.388 296.315 497.68 295.196C500.373 284.882 501.06 274.048 499.691 263.477C497.332 266.501 496.331 270.336 495.386 274.054L489.78 296.122C487.245 306.098 484.007 317.065 475.22 322.424C474.519 322.851 473.708 323.247 472.91 323.058C471.919 322.823 471.357 321.799 470.944 320.868C465.335 308.235 464.634 293.497 469.019 280.389C469.285 279.593 468.476 278.762 467.64 278.696C466.804 278.631 466.021 279.086 465.335 279.57C458.14 284.647 455.384 293.844 453.095 302.347L450.052 313.654C449.608 315.305 449.161 316.972 449.068 318.68C448.927 321.275 449.604 323.815 450.279 326.341C450.435 326.926 450.591 327.511 450.737 328.095C453.664 339.842 452.341 352.601 447.067 363.497C446.29 365.104 448.343 366.565 450.017 367.185L473.013 375.7ZM484.38 267.791C483.181 266.965 481.895 266.021 481.524 264.612C480.955 262.452 483.013 260.282 485.228 259.991C487.443 259.7 489.61 260.77 491.446 262.043C494.032 263.836 497.304 261.102 499.24 258.621C496.628 257.058 494.137 254.633 494.034 251.591C493.931 248.55 497.629 245.653 500.09 247.443C501.046 248.137 502.201 248.562 503.343 248.983C505.055 249.612 506.738 250.232 507.677 251.731C508.745 253.436 508.365 255.741 507.278 257.434C506.191 259.127 504.518 260.342 502.884 261.516C505.229 261.749 507.512 262.585 509.452 263.922L511.567 257.76C511.731 257.282 511.909 256.782 512.285 256.445C513.01 255.794 514.138 255.995 515.066 256.29C517.501 257.063 519.889 258.269 521.496 260.255C523.103 262.241 523.773 265.125 522.65 267.42C521.527 269.714 518.358 270.938 516.21 269.554C515.765 269.267 515.317 268.884 514.869 268.5C513.672 267.474 512.475 266.449 511.32 267.27C514.848 270.017 517.272 274.145 517.952 278.565C529.059 261.645 540.048 244.647 550.916 227.572C551.954 225.942 552.791 223.373 551.101 222.436C543.883 218.432 537.504 213.069 531.139 207.72C523.106 200.967 515.097 194.234 505.457 190.281C504.845 190.03 504.176 189.787 503.537 189.956C502.866 190.133 502.395 190.716 501.973 191.266C484.023 214.695 467.912 239.534 453.839 265.479C451.876 269.098 454.504 273.413 457.018 276.674C458.274 278.304 460.698 280.025 462.068 278.49C463.794 276.555 466.624 275.449 469.069 276.313C471.514 277.177 473.035 280.357 471.706 282.583C470.744 284.193 472.627 285.983 474.271 286.884C477.558 288.684 480.929 290.33 484.37 291.813C484.848 292.019 485.405 292.222 485.871 291.988C486.314 291.766 486.494 291.238 486.633 290.761L490.445 277.645C491.072 275.488 491.491 272.688 489.641 271.414L484.38 267.791ZM552.572 231.023C552.066 230.849 551.604 231.356 551.307 231.8L522.764 274.526C521.996 275.675 521.21 276.871 520.986 278.235C520.762 279.598 521.263 281.184 522.504 281.792C524.56 282.797 526.71 280.684 528.029 278.814L554.549 241.229C556.518 238.438 554.851 234.623 553.166 231.652C553.02 231.395 552.851 231.118 552.572 231.023ZM472.211 288.076C471.708 287.71 470.957 287.929 470.536 288.386C470.116 288.844 469.944 289.47 469.785 290.071C469.396 291.551 469.003 293.045 468.945 294.574C468.888 296.103 469.165 297.622 469.442 299.127L472.175 313.984C472.29 314.607 472.424 315.269 472.866 315.723C473.308 316.177 474.168 316.275 474.526 315.753C478.571 309.836 482.674 303.804 484.79 296.956C485.053 296.105 485.129 294.908 484.295 294.594C479.999 292.977 475.922 290.778 472.211 288.076ZM503.775 251.418C502.405 250.113 500.594 249.28 498.712 249.088C496.996 248.913 496.006 251.323 496.789 252.86C497.573 254.396 499.303 255.158 500.904 255.8C502.034 256.253 503.405 256.68 504.39 255.964C505.806 254.936 505.042 252.625 503.775 251.418ZM492.507 268.635C493.065 268.237 493.138 267.425 492.982 266.758C492.393 264.243 489.635 262.958 487.159 262.221C486.202 261.936 485.011 261.738 484.335 262.475C483.772 263.09 483.892 264.108 484.378 264.786C484.864 265.464 485.625 265.882 486.359 266.278L490.183 268.337C490.91 268.729 491.834 269.113 492.507 268.635ZM514.265 259.571C513.455 260.655 513.538 262.231 514.214 263.403C514.889 264.576 516.059 265.39 517.293 265.944C517.716 266.134 518.181 266.301 518.635 266.211C519.027 266.133 519.362 265.869 519.601 265.55C520.484 264.369 520.055 262.591 519.043 261.519C518.031 260.447 516.591 259.91 515.205 259.407C514.966 259.321 514.688 259.237 514.469 259.368C514.449 259.38 514.43 259.393 514.412 259.408C514.356 259.454 514.309 259.512 514.265 259.571ZM130.758 357.837C131.287 353.924 132.029 349.618 135.103 347.14C137.555 345.164 140.92 344.849 144.068 344.788C154.38 344.59 164.726 346.265 174.449 349.706C177.525 350.795 180.744 352.229 182.426 355.025C184.246 358.052 183.803 361.869 183.299 365.366L175.49 419.618C180.875 403.906 184.741 387.675 187.016 371.223C188.078 363.547 188.448 354.74 183.091 349.142C174.729 340.402 174.957 327.954 175.189 315.297C175.389 304.373 175.592 293.293 170.278 284.308C168.545 281.376 172.41 278.35 175.625 277.224C189.795 272.262 204.9 269.986 219.904 270.551C222.654 292.279 223.398 314.261 222.123 336.125C221.838 341.029 228.792 342.294 233.674 341.753L403.037 322.972C403.884 322.879 404.801 322.752 405.401 322.148C406.103 321.442 406.138 320.332 406.128 319.337C405.728 279.656 404.586 239.982 402.702 200.343C402.629 198.796 402.432 197.019 401.152 196.148C400.191 195.495 398.928 195.582 397.772 195.694L276.887 207.412C284.829 169.958 292.815 131.8 289.193 93.6849C262.767 111.304 228.668 111.172 196.962 109.306C195.644 109.229 194.323 109.15 193 109.071C162.488 107.247 130.668 105.345 103.237 118.544C117.6 156.626 132.128 198.193 120.189 237.102C119.132 240.545 117.876 243.926 116.619 247.306C114.683 252.517 112.747 257.725 111.55 263.146C109.577 272.083 109.874 282.089 115.163 289.558C122.821 300.374 128.908 312.673 130.296 325.853C131.613 338.36 128.67 350.765 125.729 363.155C122.657 376.101 119.589 389.032 121.388 402.049C121.693 404.251 122.243 406.62 123.967 408.023L130.758 357.837ZM142.74 200.666C145.943 200.779 147.216 204.8 147.626 207.979L150.868 233.148C144.537 229.865 135.63 235.437 135.812 242.566C130.477 232.268 129.666 220.467 128.864 208.785C128.689 206.243 128.515 203.707 128.295 201.194C125.939 174.317 117.839 148.32 109.789 122.568C108.641 118.896 113.599 116.515 117.406 115.957C142.385 112.295 167.666 112.8 192.959 113.306C204.424 113.536 215.891 113.765 227.333 113.606C247.665 113.324 269.178 111.4 285.671 99.5063C289.378 124.218 284.34 149.151 279.365 173.769C278.692 177.099 278.02 180.424 277.371 183.741C271.926 211.582 268.22 241.259 278.638 267.645C279.077 268.757 277.58 269.595 276.41 269.839C267.841 271.627 258.982 272.012 250.29 270.974C246.562 270.529 242.873 269.826 239.183 269.123C236.404 268.593 233.625 268.063 230.829 267.644C209.776 264.485 187.802 267.763 168.589 276.93C167.818 277.298 166.903 277.126 166.096 276.847C162.205 275.5 159.429 271.905 158.044 268.027C156.659 264.149 156.461 259.963 156.276 255.85L155.501 238.597C155.473 237.977 155.636 237.135 156.256 237.116C189.913 236.064 223.532 233.795 257.026 230.315C255.609 222.39 255.469 214.239 256.611 206.27C257.332 201.24 252.601 196.653 247.564 195.98C242.527 195.307 237.546 197.589 233.363 200.475C231.799 201.555 230.296 202.728 228.795 203.901C226.283 205.862 223.773 207.822 220.978 209.34C219.149 210.334 216.949 211.136 215.028 210.333C212.678 209.351 211.89 206.554 211.186 204.058C211.142 203.901 211.098 203.745 211.054 203.591C210.137 200.376 208.624 197.177 205.961 195.155C203.299 193.133 199.282 192.629 196.654 194.696C194.407 196.463 193.697 199.522 193.32 202.356C193.287 202.608 193.254 202.861 193.222 203.115C192.888 205.72 192.543 208.413 190.988 210.502C189.282 212.795 185.474 213.778 183.602 211.617C179.901 207.345 173.406 206.449 167.956 207.948C162.506 209.448 157.842 212.911 153.32 216.303C150.592 212.034 150.367 206.285 152.751 201.816L152.791 201.741C153.24 200.902 153.755 199.939 153.358 199.084C153.113 198.555 152.571 198.23 152.035 198C148.828 196.625 144.731 197.8 142.74 200.666ZM239.111 272.813C240.904 273.171 243.108 273.97 243.219 275.795C244.276 293.201 258.109 308.842 275.116 312.695C292.123 316.547 310.972 308.757 320.888 294.413C330.805 280.069 331.581 260.143 323.45 244.717C314.729 228.173 293.537 219.388 275.669 224.909C274.84 221.253 274.934 217.392 275.938 213.781C276.125 213.11 276.368 212.409 276.909 211.971C277.438 211.543 278.153 211.446 278.828 211.365L329.16 205.303C333.585 204.77 338.022 204.236 342.478 204.199C361.644 204.041 380.795 202.13 399.614 198.497C402.538 237.763 403.914 277.144 403.738 316.518C403.73 318.386 403.161 320.868 401.294 320.923C369.617 321.846 338.19 326.012 306.75 330.181C285.627 332.981 264.499 335.783 243.286 337.601C238.557 338.007 233.797 338.363 229.072 337.913C228.216 337.831 227.25 337.657 226.785 336.933C226.504 336.497 226.473 335.951 226.449 335.433L223.625 272.455C223.588 271.641 223.638 270.66 224.342 270.251C224.809 269.98 225.394 270.078 225.923 270.183L239.111 272.813ZM152.447 258.233C151.946 261.503 151.383 265.183 153.526 267.658C161.519 276.889 169.823 286.752 171.947 298.776C172.939 304.391 172.513 310.17 172.089 315.926C171.554 323.176 171.022 330.388 173.331 337.189C173.391 337.367 173.453 337.544 173.516 337.723C173.94 338.935 174.372 340.171 174.235 341.437C174.077 342.889 172.817 344.349 171.378 344.101L154.668 341.219C149.134 340.265 143.288 339.336 138.032 341.312C137.015 341.694 135.845 341.023 135.301 340.084C134.756 339.145 134.685 338.014 134.637 336.93C134.58 335.621 134.538 334.302 134.495 332.979C134.225 324.661 133.95 316.186 130.1 308.898L117.815 285.643C116.001 282.21 114.145 278.623 114.02 274.743C113.937 272.151 114.636 269.606 115.33 267.108L121.458 245.032C122.748 240.384 124.113 235.589 127.169 231.857C134.592 244.45 135.325 260.743 129.062 273.952C128.482 275.174 130.252 276.432 131.514 275.945C132.775 275.458 133.416 274.076 133.861 272.798C135.642 267.683 136.267 262.29 136.892 256.89C137.399 252.52 137.905 248.145 139.026 243.908C139.712 241.313 140.703 238.663 142.707 236.877C144.711 235.09 147.98 234.479 150.08 236.151C151.688 237.431 152.21 239.618 152.516 241.65C153.322 247.011 153.319 252.493 152.505 257.852C152.486 257.978 152.466 258.105 152.447 258.233ZM181.279 214.65C183.742 216.535 186.154 218.382 189.11 218.04C192.866 217.605 195.207 213.738 196.298 210.118C196.537 209.325 196.749 208.514 196.962 207.701C197.722 204.801 198.488 201.877 200.478 199.694C201.056 199.06 201.889 198.47 202.711 198.718C203.376 198.92 203.764 199.594 204.073 200.217C204.511 201.099 204.926 201.997 205.34 202.895C206.51 205.427 207.679 207.96 209.377 210.161C211.677 213.141 215.255 215.486 218.997 215.075C222.343 214.709 224.958 212.339 227.506 210.03C228.029 209.556 228.548 209.085 229.071 208.634C235.209 203.341 243.203 200.245 251.305 200.022C250.212 202.753 250.941 205.732 251.656 208.655C251.828 209.359 251.999 210.059 252.144 210.753C253.288 216.221 252.71 222.036 250.512 227.172L196.398 231.338C183.765 232.31 171.1 233.284 158.438 232.838C157.638 232.81 156.818 232.772 156.082 232.457C154.692 231.862 153.866 230.379 153.567 228.897C152.897 225.574 154.429 222.114 156.749 219.643C159.069 217.172 162.099 215.508 165.075 213.885C168.172 212.196 171.61 210.451 175.063 211.172C177.361 211.652 179.336 213.163 181.279 214.65ZM283.75 293.478C275.552 293.309 268.449 286.62 266.015 278.79C265.518 277.192 266.552 275.438 267.978 274.56C269.403 273.682 271.128 273.475 272.792 273.288L284.804 271.939C281.151 264.838 278.549 257.199 277.109 249.345C276.979 248.632 276.86 247.884 277.085 247.196C277.48 245.987 278.783 245.351 279.988 244.946C289.748 241.666 301.466 245.648 307.205 254.196C312.944 262.744 312.192 275.099 305.456 282.886C302.54 286.258 298.719 288.746 294.693 290.66C291.26 292.293 287.551 293.556 283.75 293.478ZM322.652 251.276C324.111 256.093 324.532 261.16 324.733 266.189C321.457 265.692 318.149 265.411 314.836 265.346C314.188 256.888 308.559 249.245 301.157 245.1C293.756 240.954 284.822 240.058 276.459 241.477C276.388 240.285 276.171 239.041 275.953 237.797C275.379 234.513 274.806 231.23 276.929 228.899C278.211 227.492 280.164 226.929 282.037 226.58C290.563 224.991 299.655 226.656 307.066 231.162C314.478 235.668 320.139 242.975 322.652 251.276ZM262.528 277.937C262.514 278.093 262.501 278.247 262.494 278.393C262.438 279.562 262.983 280.634 263.522 281.695C263.667 281.98 263.811 282.263 263.943 282.548C264.568 283.894 264.871 285.667 263.826 286.721C261.299 289.272 259.066 292.114 257.185 295.172C256.72 295.928 255.575 295.99 254.81 295.539C254.045 295.088 253.571 294.284 253.129 293.513C250.333 288.639 247.467 283.539 247.118 277.931C247.075 277.233 247.152 276.389 247.77 276.064C248.043 275.92 248.364 275.916 248.672 275.915L261.177 275.877C261.475 275.876 261.79 275.879 262.05 276.027C262.663 276.376 262.593 277.185 262.528 277.937Z" fill="#090909"/>
<path fill-rule="evenodd" clip-rule="evenodd" d="M341.307 276.723C341.349 276.206 341.411 275.651 341.753 275.261C342.088 274.88 342.615 274.743 343.109 274.628C355.843 271.663 368.996 270.503 382.052 271.194C383.714 271.281 385.853 271.844 385.963 273.506C386.594 283.032 387.225 292.557 387.855 302.083C387.887 302.565 387.903 303.1 387.595 303.471C387.344 303.775 386.938 303.892 386.557 303.991C372.977 307.531 358.663 308.229 344.803 306.027C344.447 305.97 344.071 305.903 343.794 305.671C343.459 305.391 343.342 304.934 343.246 304.508C341.203 295.415 340.546 286.012 341.307 276.723ZM344.309 292.525C344.559 296.122 345.314 299.684 346.544 303.074C347.771 303.251 348.985 303.505 350.207 303.712C360.739 305.496 371.512 303.701 382.043 301.909C382.79 301.782 383.609 301.613 384.071 301.012C384.542 300.397 384.479 299.541 384.394 298.772C384.031 295.49 383.669 292.207 383.306 288.925C383.277 288.66 383.239 288.376 383.06 288.179C382.843 287.94 382.487 287.901 382.165 287.88C374.681 287.388 367.172 287.946 359.693 288.504C355.559 288.813 351.425 289.121 347.291 289.43C346.319 289.502 345.216 289.646 344.657 290.444C344.246 291.032 344.259 291.809 344.309 292.525ZM344.426 278.796C343.772 280.894 343.654 283.157 344.088 285.312C344.165 285.699 344.275 286.107 344.569 286.371C345.004 286.762 345.669 286.697 346.248 286.612C353.291 285.581 360.41 285.068 367.528 285.08C368.533 285.082 368.841 283.73 368.83 282.726C368.814 281.254 368.797 279.783 368.781 278.312C368.772 277.461 368.73 276.523 368.147 275.902C367.446 275.156 366.276 275.18 365.256 275.258C362.898 275.438 360.539 275.618 358.181 275.798C357.053 275.884 354.061 276.65 352.686 276.741C350.292 277.123 347.897 277.505 345.503 277.887C345.248 277.928 344.979 277.975 344.782 278.142C344.59 278.306 344.501 278.556 344.426 278.796ZM376.002 285.197C377.874 285.221 379.748 285.033 381.577 284.64C382.013 284.546 382.471 284.427 382.782 284.107C383.238 283.639 383.234 282.903 383.2 282.25C383.103 280.353 383.007 278.456 382.91 276.559C382.875 275.882 382.799 275.12 382.27 274.697C381.805 274.324 381.148 274.346 380.554 274.387C378.473 274.529 376.392 274.67 374.31 274.812C373.981 274.834 373.635 274.862 373.359 275.044C372.855 275.377 372.78 276.075 372.766 276.679C372.719 278.69 372.801 280.703 373.012 282.703C373.072 283.283 373.157 283.892 373.515 284.351C374.073 285.066 375.095 285.185 376.002 285.197Z" fill="black"/>
</svg>
