<svg viewBox="0 0 217 170" fill="none" xmlns="http://www.w3.org/2000/svg">
<g clip-path="url(#clip0_17_1656)">
<path d="M36.7436 23.2182C36.1223 24.1967 37.4536 25.709 39.5837 27.3103C39.6724 27.3992 39.7612 27.4882 39.9387 27.5771C40.0274 27.6661 40.1162 27.755 40.2937 27.844C42.5125 29.2673 44.4651 30.068 45.0863 29.0894C45.7076 28.1998 44.3763 26.5986 42.2463 24.9973C42.1575 24.9084 42.0688 24.8194 41.8912 24.8194C41.8025 24.7304 41.7137 24.6415 41.5362 24.5525C39.4062 23.0402 37.3649 22.3286 36.7436 23.2182Z" fill="#231B1B"/>
<path d="M49.879 4.26998C48.7252 4.53686 49.2577 8.36208 50.3228 13.1658C50.4115 13.4327 50.4115 13.6106 50.5003 13.8775C50.589 14.1444 50.589 14.3223 50.6778 14.5892C51.8316 19.393 53.0741 22.9513 54.1391 22.7734C55.2042 22.5955 55.0267 18.6813 53.9616 13.8775C53.8729 13.6106 53.8729 13.4327 53.7841 13.1658C53.6954 12.899 53.6954 12.7211 53.6066 12.4542C52.4528 7.4725 50.944 3.91415 49.879 4.26998Z" fill="#231B1B"/>
<path d="M75.7059 0.0889127C74.7296 -0.533798 71.5345 3.20247 67.8069 8.45103C67.6294 8.7179 67.4519 8.98478 67.2744 9.25165C67.0969 9.51853 66.9194 9.78541 66.7419 10.0523C63.1031 15.3898 60.7067 19.6598 61.683 20.3715C62.5705 20.9942 65.8544 17.2579 69.582 12.0094C69.7595 11.7425 69.937 11.4756 70.1145 11.2087C70.292 10.9419 70.4695 10.675 70.647 10.4081C74.1971 5.0706 76.5934 0.711623 75.7059 0.0889127Z" fill="#231B1B"/>
<path d="M56.9791 46.9702L50.7664 45.5469L50.1452 48.6604C50.3227 53.1973 49.7902 57.6453 48.5476 61.9153C48.3701 62.449 50.4114 63.4276 53.074 64.0503C108.456 76.0597 142.892 83.5322 182.653 92.1612C185.404 92.7839 187.712 92.7839 187.889 92.1612C189.132 86.6458 191.972 80.5966 191.262 74.6364C191.173 74.0136 186.38 73.4799 183.718 72.9461C141.56 64.4951 99.2253 55.8661 56.9791 46.9702Z" fill="#FFFFFF"/>
<path d="M192.593 72.4123C192.416 72.4123 191.972 73.6578 191.262 76.1486C190.552 78.6395 189.487 82.2868 188.244 87.0905C185.759 96.6981 182.386 110.665 178.925 128.189C178.748 129.257 178.481 130.413 178.304 131.481C178.215 132.015 178.126 132.637 177.949 133.171C177.86 133.616 177.683 133.972 177.505 134.417C177.061 135.128 176.351 135.751 175.464 136.018C175.02 136.196 174.576 136.196 174.132 136.196C173.866 136.196 173.689 136.196 173.422 136.107L172.535 135.929C167.742 135.039 162.772 134.15 157.536 133.171C147.152 131.303 136.058 129.257 124.254 127.033C100.734 122.763 74.6409 118.048 47.0388 113.066C45.6188 112.8 44.2875 112.533 42.8675 112.355L41.8024 112.177C41.6249 112.177 41.4474 112.088 41.3587 112.088C41.2699 112.088 41.0924 112.088 41.0037 111.999C40.5599 111.821 40.1161 111.643 39.7611 111.287C39.0511 110.665 38.6073 109.775 38.6073 108.885C38.6073 108.619 38.6073 108.441 38.6961 108.174L38.8736 107.195L39.3174 105.149C40.3824 99.7226 41.5362 94.2072 42.6899 88.6918C45.6188 74.9032 48.7251 61.6483 52.009 48.9273C52.8077 45.7247 53.6065 42.6112 54.4053 39.4976C54.8491 37.9853 55.2041 36.3841 55.6478 34.8718C55.8253 34.0712 56.0916 33.3595 56.2691 32.5589L56.5354 31.4024C56.6241 31.0466 56.7129 30.6018 56.8016 30.4239C57.1566 29.4453 58.0441 28.6447 59.0204 28.2888C59.5529 28.1109 60.0855 28.1109 60.618 28.1999L61.0617 28.2888L61.5942 28.4668L62.748 28.7336C65.6769 29.5343 68.6057 30.2459 71.5345 31.0466C94.699 37.0958 115.467 42.0774 132.863 45.9916C150.258 49.9058 164.281 52.8414 173.955 54.7096C178.836 55.5992 182.564 56.3108 185.138 56.7556C187.712 57.2004 189.043 57.2894 189.043 57.2004C189.043 57.1115 187.8 56.6667 185.315 56.044C182.83 55.4212 179.103 54.5317 174.31 53.3752C164.725 51.1512 150.791 47.8598 133.484 43.6787C116.177 39.4976 95.4977 34.338 72.4221 28.1109C69.582 27.3103 66.6531 26.5097 63.6356 25.709L62.4818 25.4422L61.9493 25.2643C61.7718 25.1753 61.5055 25.1753 61.2392 25.0863C60.263 24.9084 59.1979 24.9974 58.2216 25.2643C56.2691 25.798 54.5828 27.3993 53.8728 29.3564C53.6953 29.8901 53.6065 30.2459 53.5178 30.6018L53.1628 31.7582C52.9852 32.5589 52.719 33.2705 52.5415 34.0712C52.0977 35.5835 51.7427 37.1847 51.2989 38.697C50.5002 41.8106 49.6126 44.9241 48.8139 48.1266C45.53 60.8477 42.3349 74.1915 39.4061 87.9801C38.2523 93.5845 37.0985 99.011 36.0335 104.526L35.5897 106.572L35.4122 107.64C35.3235 108.085 35.3235 108.53 35.3235 109.063C35.4122 110.931 36.211 112.8 37.6311 113.956C38.3411 114.579 39.1398 115.024 40.0274 115.29C40.2049 115.379 40.4711 115.379 40.7374 115.468C41.0037 115.557 41.0924 115.557 41.2699 115.557L42.3349 115.735C43.755 116.002 45.0863 116.269 46.5063 116.447C74.1971 121.34 100.202 125.965 123.81 130.147C135.614 132.193 146.708 134.15 157.092 135.929C162.328 136.818 167.299 137.708 172.091 138.509L172.979 138.687C173.334 138.775 173.689 138.776 174.044 138.776C174.843 138.776 175.553 138.687 176.263 138.42C177.683 137.886 178.836 136.907 179.635 135.662C179.99 135.039 180.256 134.328 180.434 133.616C180.523 133.082 180.611 132.459 180.7 131.926C180.878 130.769 181.144 129.702 181.321 128.634C184.517 111.109 187.534 97.0539 189.575 87.4464C190.64 82.6426 191.439 78.9063 191.972 76.3265C192.504 73.8357 192.682 72.5013 192.593 72.4123Z" fill="#231B1B"/>
<path d="M14.2005 83.71L8.07654 83.2652V98.1213C9.14157 118.938 9.49658 139.754 9.23032 160.57C9.23032 163.328 11.2716 165.641 13.9342 165.73C56.2692 166.62 98.6041 167.509 140.939 168.399C143.602 168.488 145.82 166.175 145.82 163.328C145.909 136.729 145.022 110.22 143.247 83.71C143.069 80.9523 140.762 78.8173 138.099 78.9952C96.9178 81.7529 55.5592 83.3542 14.2005 83.71Z" fill="#FFFFFF"/>
<path d="M0.26625 98.0325C0.0887451 98.0325 0.0887451 99.3669 0.0887451 101.947C0.0887451 104.526 0.177498 108.352 0.26625 113.333C0.443755 123.208 0.62126 137.53 0.355003 155.411C0.355003 156.567 0.355003 157.635 0.26625 158.791C0.26625 159.325 0.26625 159.948 0.26625 160.57C0.26625 161.282 0.355003 161.994 0.62126 162.705C1.06502 164.129 2.0413 165.374 3.37259 166.086C3.99386 166.442 4.70388 166.709 5.50265 166.886C5.85766 166.975 6.30142 166.975 6.56768 166.975H7.45521C12.3366 167.064 17.3955 167.242 22.7206 167.331C33.2822 167.598 44.5538 167.865 56.5354 168.132C80.4098 168.666 106.858 169.199 134.993 169.822C136.413 169.822 137.833 169.911 139.253 169.911H140.318C140.495 169.911 140.673 169.911 140.85 169.911C141.117 169.911 141.294 169.911 141.56 169.911C142.537 169.822 143.424 169.555 144.223 169.021C145.82 168.132 147.063 166.531 147.507 164.663C147.595 164.218 147.684 163.773 147.684 163.239V162.172V160.037C147.684 154.432 147.684 148.828 147.595 143.135C147.329 128.99 146.885 115.379 146.087 102.214C145.909 98.9221 145.732 95.6306 145.465 92.4281C145.377 90.8268 145.288 89.2256 145.11 87.6243C145.022 86.8237 145.022 86.0231 144.933 85.2224L144.844 84.066C144.844 83.7101 144.844 83.3543 144.755 82.7316C144.4 80.6855 143.069 78.8174 141.294 77.9278C140.407 77.483 139.341 77.2162 138.365 77.1272C138.099 77.1272 137.833 77.1272 137.655 77.1272H137.123L135.791 77.3941C132.774 77.572 129.756 77.7499 126.739 78.0168C102.953 79.5291 81.6523 80.5076 63.8131 81.2193C45.9738 81.931 31.6847 82.3758 21.8331 82.7316C16.9517 82.9095 13.1354 83.0874 10.5615 83.1764C7.98772 83.3543 6.65643 83.4433 6.65643 83.6212C6.65643 83.7101 7.98772 83.8881 10.5615 83.977C13.1354 84.066 16.9517 84.1549 21.9219 84.1549C31.7734 84.2439 46.0626 84.066 63.9018 83.7101C81.7411 83.2653 103.042 82.4647 126.916 81.1303C129.934 80.9524 132.951 80.7745 135.969 80.5966L137.123 80.5076H137.655H138.099C138.631 80.5076 139.164 80.6855 139.608 80.9524C140.584 81.4862 141.205 82.3758 141.383 83.4433C141.383 83.6212 141.472 84.066 141.472 84.5108L141.56 85.6672C141.649 86.4679 141.649 87.2685 141.738 88.0691C141.827 89.6704 141.915 91.2716 142.004 92.8729C142.182 96.0754 142.359 99.3669 142.537 102.569C143.247 115.646 143.69 129.346 143.868 143.401C143.957 149.095 143.957 154.61 143.957 160.215V162.261V163.239C143.957 163.506 143.957 163.684 143.868 163.951C143.69 164.84 143.069 165.641 142.27 166.086C141.827 166.353 141.383 166.442 140.939 166.531C140.85 166.531 140.673 166.531 140.584 166.531C140.495 166.531 140.229 166.531 140.052 166.531H138.986C137.566 166.531 136.146 166.442 134.726 166.442C106.681 165.908 80.1436 165.463 56.2691 165.018C44.2875 164.84 33.0159 164.663 22.4544 164.485C17.218 164.396 12.0703 164.307 7.18895 164.307H6.30142C6.03517 164.307 5.85766 164.307 5.5914 164.218C5.14764 164.129 4.70388 163.951 4.34887 163.773C3.5501 163.328 3.01758 162.616 2.66257 161.816C2.48506 161.371 2.39631 160.926 2.39631 160.57C2.39631 160.037 2.39631 159.414 2.39631 158.88C2.39631 157.724 2.39631 156.567 2.39631 155.5C2.39631 137.619 1.8638 123.208 1.24253 113.422C0.976271 108.53 0.62126 104.704 0.443755 102.125C0.532508 99.3669 0.355003 98.0325 0.26625 98.0325Z" fill="#231B1B"/>
<path d="M0.26625 98.0325C0.0887451 98.0325 0.0887451 99.3669 0.0887451 101.947C0.0887451 104.526 0.177498 108.352 0.26625 113.333C0.443755 123.208 0.62126 137.53 0.355003 155.411C0.355003 156.567 0.355003 157.635 0.26625 158.791C0.26625 159.325 0.26625 159.948 0.26625 160.57C0.26625 161.282 0.355003 161.994 0.62126 162.705C1.06502 164.129 2.0413 165.374 3.37259 166.086C3.99386 166.442 4.70388 166.709 5.50265 166.886C5.85766 166.975 6.30142 166.975 6.56768 166.975H7.45521C12.3366 167.064 17.3955 167.242 22.7206 167.331C33.2822 167.598 44.5538 167.865 56.5354 168.132C80.4098 168.666 106.858 169.199 134.993 169.822C136.413 169.822 137.833 169.911 139.253 169.911H140.318C140.495 169.911 140.673 169.911 140.85 169.911C141.117 169.911 141.294 169.911 141.56 169.911C142.537 169.822 143.424 169.555 144.223 169.021C145.82 168.132 147.063 166.531 147.507 164.663C147.595 164.218 147.684 163.773 147.684 163.239V162.172V160.037C147.684 154.432 147.684 148.828 147.595 143.135C147.329 128.99 146.885 115.379 146.087 102.214C145.909 98.9221 145.732 95.6306 145.465 92.4281C145.377 90.8268 145.288 89.2256 145.11 87.6243C145.022 86.8237 145.022 86.0231 144.933 85.2224L144.844 84.066C144.844 83.7101 144.844 83.3543 144.755 82.7316C144.4 80.6855 143.069 78.8174 141.294 77.9278C140.407 77.483 139.341 77.2162 138.365 77.1272C138.099 77.1272 137.833 77.1272 137.655 77.1272H137.123L135.969 77.2162C132.951 77.3941 129.934 77.572 126.916 77.8389C102.953 79.5291 81.6523 80.5076 63.9018 81.2193C46.0626 81.931 31.7734 82.3758 21.9219 82.7316C17.0405 82.9095 13.2241 83.0874 10.6503 83.1764C8.07647 83.3543 6.74519 83.4433 6.74519 83.6212C6.74519 83.7101 8.07647 83.8881 10.6503 83.977C13.2241 84.066 17.0405 84.1549 22.0106 84.1549C31.8622 84.2439 46.1513 84.066 63.9906 83.7101C81.8298 83.2653 103.13 82.4647 127.005 81.1303C130.022 80.9524 133.04 80.7745 136.058 80.5966L137.211 80.5076H137.744H138.188C138.72 80.5076 139.253 80.6855 139.697 80.9524C140.673 81.4862 141.294 82.3758 141.472 83.4433C141.472 83.6212 141.56 84.066 141.56 84.5108L141.649 85.6672C141.738 86.4679 141.738 87.2685 141.827 88.0691C141.915 89.6704 142.004 91.2716 142.093 92.8729C142.27 96.0754 142.448 99.3669 142.625 102.569C143.335 115.646 143.779 129.346 143.957 143.401C144.045 149.095 144.045 154.61 144.045 160.215V162.261V163.239C144.045 163.506 144.045 163.684 143.957 163.951C143.779 164.84 143.158 165.641 142.359 166.086C141.915 166.353 141.472 166.442 141.028 166.531C140.939 166.531 140.762 166.531 140.673 166.531C140.584 166.531 140.318 166.531 140.14 166.531H139.075C137.655 166.531 136.235 166.442 134.815 166.442C106.769 165.908 80.2323 165.463 56.3579 165.018C44.3763 164.84 33.1047 164.663 22.5431 164.485C17.3067 164.396 12.1591 164.307 7.2777 164.307H6.39018C6.12392 164.307 5.94641 164.307 5.68016 164.218C5.23639 164.129 4.79263 163.951 4.43762 163.773C3.63885 163.328 3.10633 162.616 2.75132 161.816C2.57382 161.371 2.48506 160.926 2.48506 160.57C2.48506 160.037 2.48506 159.414 2.48506 158.88C2.48506 157.724 2.48506 156.567 2.48506 155.5C2.48506 137.619 1.95255 123.208 1.33128 113.422C1.06502 108.53 0.710013 104.704 0.532508 102.125C0.62126 99.3669 0.355003 98.0325 0.26625 98.0325Z" fill="#231B1B"/>
<path d="M25.5608 145.714C25.5608 144.558 23.3419 144.024 20.4131 143.935C20.2356 143.935 20.1469 143.935 19.9693 143.935C19.7918 143.935 19.7031 143.935 19.5256 143.935C16.5968 143.935 14.2892 144.38 14.2892 145.536C14.2892 146.604 16.508 147.227 19.4368 147.315C19.6143 147.315 19.7031 147.315 19.8806 147.315C20.0581 147.315 20.1469 147.315 20.3244 147.315C23.3419 147.315 25.5608 146.782 25.5608 145.714Z" fill="#231B1B"/>
<path d="M43.3112 144.469C43.2224 143.312 40.4711 143.046 37.0098 143.223C36.8323 143.223 36.6547 143.223 36.4772 143.223C36.2997 143.223 36.1222 143.223 35.9447 143.223C32.4834 143.49 29.8208 143.935 29.8208 145.181C29.8208 146.248 32.5721 146.782 36.1222 146.693C36.2997 146.693 36.4772 146.693 36.6547 146.693C36.8323 146.693 37.0098 146.693 37.1873 146.693C40.7374 146.337 43.3999 145.536 43.3112 144.469Z" fill="#231B1B"/>
<path d="M62.5705 144.736C62.5705 143.579 59.7304 143.135 56.1803 143.135C56.0028 143.135 55.8253 143.135 55.6478 143.135C55.4703 143.135 55.2928 143.135 55.1153 143.135C51.4764 143.312 48.7251 143.757 48.7251 145.003C48.7251 146.07 51.5652 146.604 55.1153 146.604C55.2928 146.604 55.4703 146.604 55.6478 146.604C55.8253 146.604 56.0028 146.604 56.1803 146.604C59.8192 146.337 62.5705 145.714 62.5705 144.736Z" fill="#231B1B"/>
<path d="M82.0074 145.358C82.0074 144.202 78.9898 143.757 74.9959 143.668C74.8184 143.668 74.6409 143.668 74.3747 143.668C74.1972 143.668 74.0197 143.668 73.7534 143.668C69.8483 143.757 66.7419 144.202 66.7419 145.358C66.7419 146.426 69.7595 146.96 73.7534 147.049C73.9309 147.049 74.1084 147.049 74.3747 147.049C74.5522 147.049 74.7297 147.049 74.9959 147.049C78.9898 146.96 82.0074 146.426 82.0074 145.358Z" fill="#231B1B"/>
<path d="M14.7329 103.993C21.2119 104.348 27.6908 104.082 34.081 103.192C35.856 102.925 37.4536 104.26 37.6311 106.039L38.2524 113.333C38.4299 115.024 37.0986 116.625 35.4123 116.714C29.5546 117.159 23.7857 117.425 17.928 117.425C16.0642 117.425 14.6442 115.913 14.8217 114.045C14.9992 110.931 14.9104 107.729 14.5554 104.615" fill="#0A0101"/>
<path d="M20.1468 114.49C20.5018 114.757 20.8568 115.024 21.3005 115.113C22.5431 115.557 23.8744 115.113 24.8507 114.401C25.5607 113.956 27.1582 112.978 26.892 111.91C26.7145 111.198 25.8269 110.398 25.2057 110.042C23.6081 108.708 20.5905 107.551 18.993 109.597C17.7504 111.109 18.638 113.333 20.1468 114.49Z" fill="white"/>
<path d="M20.1468 114.49C20.1468 114.49 19.9693 114.312 19.6143 113.867C19.4368 113.689 19.348 113.333 19.2593 112.978C19.1705 112.622 19.1705 112.177 19.2593 111.732C19.348 111.287 19.6143 110.931 19.8806 110.754C20.1468 110.487 20.4131 110.309 20.6793 110.22C20.9456 110.131 21.2118 110.131 21.6556 110.042C22.0994 110.042 22.7206 110.131 23.2531 110.309C23.5194 110.398 23.6969 110.487 23.9632 110.576C24.2294 110.665 24.4069 110.843 24.6732 111.02C24.9394 111.198 25.2057 111.376 25.472 111.554C25.7382 111.732 25.827 111.91 25.9157 111.999H26.0045C26.0045 111.999 26.0045 112.088 26.0045 112.177C25.9157 112.355 25.827 112.533 25.6495 112.8C25.2945 113.244 24.7619 113.6 24.4069 113.956C23.9632 114.312 23.6082 114.579 23.1644 114.757C22.2769 115.113 21.4781 114.935 21.0343 114.757C20.4131 114.668 20.1468 114.401 20.1468 114.49C20.1468 114.49 20.3243 114.757 20.8568 115.024C21.3006 115.29 22.0994 115.557 23.1644 115.468C23.6969 115.468 24.3182 115.29 24.8507 115.113C25.472 114.846 26.0045 114.668 26.6257 114.223C26.892 113.956 27.247 113.778 27.602 113.333C27.7795 113.155 27.8683 112.889 27.957 112.533C28.0458 112.177 28.0458 111.821 27.957 111.465C27.7795 110.843 27.4245 110.487 27.1583 110.131C26.892 109.775 26.537 109.508 26.2707 109.152C26.0045 108.974 25.7382 108.708 25.472 108.441C25.2057 108.263 24.8507 107.996 24.5844 107.818C23.7857 107.373 22.8981 106.928 21.9219 106.839C20.9456 106.661 19.7918 106.928 18.9043 107.551C18.0167 108.174 17.573 109.063 17.4842 109.864C17.3067 110.754 17.573 111.465 17.8392 111.999C18.1055 112.533 18.4605 112.978 18.7268 113.244C18.993 113.511 19.2593 113.778 19.5255 113.956C19.8806 114.312 20.1468 114.49 20.1468 114.49Z" fill="white"/>
<path d="M192.682 82.0199C204.201 82.0199 213.539 72.9789 213.539 61.8263C213.539 50.6737 204.201 41.6327 192.682 41.6327C181.163 41.6327 171.825 50.6737 171.825 61.8263C171.825 72.9789 181.163 82.0199 192.682 82.0199Z" fill="#FFFFFF"/>
<path d="M202.001 38.2523C202.09 38.0744 200.758 36.9179 197.741 36.0283C196.232 35.5835 194.279 35.3166 192.06 35.4056C189.842 35.4946 187.179 36.0283 184.605 37.1848C182.031 38.3412 179.369 40.2094 177.061 42.7892C174.754 45.28 172.801 48.4825 171.559 52.1298C170.227 55.7771 169.872 60.0471 170.582 64.2282C170.937 66.3632 171.559 68.4982 172.624 70.4553C173.6 72.5014 174.842 74.3695 176.44 76.0597C177.683 77.483 179.103 78.6395 180.611 79.618C182.12 80.5966 183.718 81.4862 185.493 82.1089C189.842 83.7991 194.457 83.8881 198.628 83.0874C202.8 82.1089 206.616 80.1518 209.456 77.483C210.965 76.2376 212.119 74.7253 213.184 73.213C213.627 72.4124 214.16 71.7007 214.515 70.9001C214.87 70.0995 215.314 69.2988 215.58 68.4982C216.822 65.2957 217.089 62.0932 217 59.1576C216.822 56.3109 216.201 53.7311 215.314 51.685C214.515 49.639 213.539 47.9488 212.562 46.7033C210.699 44.2125 209.278 43.234 209.101 43.4119C208.923 43.5898 209.9 44.9242 211.32 47.504C212.651 50.0838 214.426 54.0869 214.426 59.2465C214.426 61.8263 213.982 64.673 212.829 67.4307C212.562 68.1424 212.207 68.7651 211.852 69.4768C211.497 70.1884 211.054 70.8111 210.61 71.5228C209.633 72.7682 208.568 74.1026 207.326 75.1701C204.841 77.483 201.557 79.0843 197.918 79.8849C194.279 80.5966 190.285 80.4187 186.647 78.9953C185.138 78.4616 183.807 77.661 182.475 76.8603C181.233 75.9707 179.99 74.9922 178.925 73.7468C177.594 72.3234 176.44 70.6332 175.641 68.943C174.754 67.2528 174.221 65.3847 173.866 63.6055C173.245 59.9582 173.511 56.3109 174.576 53.0194C175.641 49.7279 177.328 46.8813 179.28 44.5683C181.233 42.2554 183.54 40.4762 185.759 39.3198C188.067 38.1633 190.285 37.5406 192.327 37.2737C194.368 37.0069 196.143 37.0958 197.563 37.2737C200.403 37.8964 201.912 38.5191 202.001 38.2523Z" fill="#231B1B"/>
<path d="M13.7566 60.8478C19.6386 60.8478 24.4069 56.2277 24.4069 50.5286C24.4069 44.8294 19.6386 40.2094 13.7566 40.2094C7.87463 40.2094 3.10632 44.8294 3.10632 50.5286C3.10632 56.2277 7.87463 60.8478 13.7566 60.8478Z" fill="#FFFFFF"/>
<path d="M18.5492 38.4301C18.638 38.1632 18.0167 37.5405 16.4192 36.9178C14.9104 36.384 12.2478 36.1172 9.31896 37.3626C6.47888 38.608 3.55005 41.3657 2.13 45.2799C1.41998 47.237 1.15373 49.5499 1.50874 51.8628C1.86375 54.1758 3.01753 56.4887 4.70383 58.3568C5.41385 59.1575 6.21262 59.7802 7.01139 60.3139C7.81017 60.8477 8.69769 61.3814 9.67397 61.6483C12.0703 62.5379 14.5554 62.6268 16.8629 62.1821C19.1705 61.6483 21.2118 60.5808 22.7206 59.0685C24.3181 57.6452 25.3832 55.866 26.0044 54.0868C26.6257 52.3076 26.8032 50.6174 26.7145 49.0162C26.4482 45.9026 25.2057 43.7676 24.1406 42.4332C23.0756 41.1878 22.2768 40.743 22.0993 40.9209C21.9218 41.0989 22.3656 41.8105 22.9869 43.1449C23.6081 44.4793 24.3181 46.5253 24.3181 49.0162C24.2294 50.2616 24.0519 51.596 23.4306 52.9304C22.8981 54.2647 21.9218 55.5102 20.768 56.5777C19.5255 57.6452 18.0167 58.3568 16.3304 58.8016C14.6441 59.0685 12.6916 59.0685 11.0053 58.3568C10.2952 58.09 9.67397 57.7341 9.0527 57.3783C8.43144 56.9335 7.89892 56.4887 7.36641 55.9549C6.12387 54.6206 5.23634 52.9304 4.97009 51.2401C4.61508 49.5499 4.79258 47.7708 5.23634 46.2585C6.21262 43.0559 8.34268 40.743 10.4727 39.5866C12.6916 38.4301 14.7329 38.2522 16.1529 38.3411C17.6617 38.519 18.4605 38.697 18.5492 38.4301Z" fill="#231B1B"/>
<path d="M194.723 48.1267C193.569 48.2156 193.481 52.6636 193.037 58.268C193.037 58.5348 193.037 58.8017 192.948 59.1576C192.948 59.4244 192.859 59.6913 192.859 60.0471C192.504 65.7405 191.883 70.0995 193.037 70.3663C194.013 70.6332 195.699 66.2742 196.232 60.314C196.232 60.0471 196.232 59.6913 196.321 59.4244C196.321 59.1576 196.321 58.8017 196.409 58.5348C196.764 52.4857 195.788 48.0377 194.723 48.1267Z" fill="#231B1B"/>
<path d="M204.575 60.0471C204.663 58.8907 200.403 58.0901 194.723 57.5563C194.457 57.5563 194.191 57.5563 193.924 57.4673C193.658 57.4673 193.392 57.3784 193.126 57.3784C187.445 57.0226 183.096 57.2005 183.008 58.3569C182.919 59.4244 187.179 60.314 192.859 60.8478C193.126 60.8478 193.392 60.8478 193.658 60.9367C193.924 60.9367 194.191 61.0257 194.457 61.0257C200.137 61.2926 204.486 61.1146 204.575 60.0471Z" fill="#231B1B"/>
<path d="M10.6502 52.1298C10.4727 52.2187 10.384 52.4856 10.384 52.9304C10.4727 53.3752 10.5615 53.909 11.1828 54.7096C11.449 55.0654 11.8928 55.3323 12.4253 55.5992C12.8691 55.866 13.4016 55.955 14.0228 56.044C14.6441 56.1329 15.2654 56.1329 15.8866 56.044C16.5967 55.866 17.5729 55.5992 18.1942 54.6206C18.8155 53.6421 19.0817 52.5746 18.8155 51.5071C18.7267 50.9733 18.4605 50.3506 18.0167 49.8169C17.5729 49.2831 17.0404 48.9273 16.5079 48.7494C15.9754 48.5714 15.5316 48.4825 15.1766 48.3935C14.8216 48.3046 14.4666 48.3046 14.1116 48.2156C13.7566 48.1266 13.4903 48.1266 13.1353 48.0377L12.9578 47.9487C12.9578 47.9487 12.9578 47.9487 12.8691 47.8598C12.7803 47.7708 12.8691 47.5039 12.8691 47.326C12.8691 46.9702 13.0466 46.5254 13.3128 46.2585C13.4903 45.9916 13.7566 45.8137 13.9341 45.6358C14.2891 45.3689 14.9104 45.5468 15.3541 45.7248C15.7979 45.9027 16.2417 46.0806 16.5079 45.9027C16.6854 45.7248 16.7742 45.3689 16.4192 44.7462C16.2417 44.3904 15.9754 44.0345 15.5316 43.7677C15.0879 43.4118 14.2891 43.145 13.4903 43.2339C11.804 43.4118 10.2952 44.7462 9.76272 46.7033C9.67397 47.2371 9.58522 47.7708 9.67397 48.3935C9.76272 49.0162 10.029 49.8169 10.5615 50.3506C10.8278 50.6175 11.1828 50.7954 11.449 50.9733C11.6265 51.0623 11.804 51.1512 11.9815 51.1512L12.3365 51.2402C12.7803 51.3292 13.3128 51.5071 13.7566 51.5071C14.0228 51.5071 14.3779 51.596 14.6441 51.596C14.9104 51.685 15.0879 51.685 15.1766 51.7739C15.3541 51.8629 15.3541 51.8629 15.4429 51.8629C15.4429 51.8629 15.5316 51.9519 15.5316 52.0408C15.6204 52.2187 15.5316 52.5746 15.5316 52.6635C15.5316 52.6635 15.4429 52.8415 15.1766 52.9304C14.8216 53.0194 14.4666 53.1083 14.1116 53.1083C13.7566 53.1083 13.4016 53.1083 13.1353 53.1083C12.8691 53.1083 12.6028 53.0194 12.4253 52.9304C11.9815 52.7525 11.6265 52.3967 11.2715 52.2187C11.094 52.0408 10.9165 51.9519 10.6502 52.1298Z" fill="#231B1B"/>
<path d="M13.4904 57.2004C14.1117 57.1114 14.2892 56.2218 14.4667 54.9764C14.6442 53.642 14.7329 51.9518 14.8217 49.8168C14.8217 49.6389 14.8217 49.372 14.8217 49.1941C14.8217 49.0162 14.8217 48.7493 14.8217 48.5714C14.9104 46.5253 14.9104 44.5682 14.6442 43.1449C14.3779 41.7216 13.9342 40.9209 13.3129 41.0099C12.7804 41.0099 12.4254 41.8105 12.1591 43.1449C11.8928 44.4793 11.6266 46.2584 11.4491 48.3935C11.4491 48.5714 11.4491 48.8382 11.4491 49.0162C11.4491 49.1941 11.4491 49.461 11.4491 49.6389C11.3603 51.7739 11.6266 53.731 11.9816 55.1543C12.3366 56.4887 12.9579 57.2893 13.4904 57.2004Z" fill="#231B1B"/>
<path d="M15.2654 57.2004C15.8867 57.1114 16.0642 56.2218 16.2417 54.9764C16.4192 53.642 16.508 51.9518 16.5967 49.8168C16.5967 49.6389 16.5967 49.372 16.5967 49.1941C16.5967 49.0162 16.5967 48.7493 16.5967 48.5714C16.6855 46.5253 16.6855 44.5682 16.4192 43.1449C16.1529 41.7216 15.7092 40.9209 15.0879 41.0099C14.5554 41.0099 14.2004 41.8105 13.9341 43.1449C13.6679 44.4793 13.4016 46.2584 13.2241 48.3935C13.2241 48.5714 13.2241 48.8382 13.2241 49.0162C13.2241 49.1941 13.2241 49.461 13.2241 49.6389C13.1354 51.7739 13.4016 53.731 13.7566 55.1543C14.1116 56.4887 14.7329 57.2893 15.2654 57.2004Z" fill="#231B1B"/>
</g>
</svg>
