<svg viewBox="0 0 484 467" fill="none" xmlns="http://www.w3.org/2000/svg">
<path d="M158.077 160.937C158.773 160.526 159.67 160.758 160.08 161.453L161.736 164.247C168.311 175.278 170.941 178.861 173.736 180.48C176.034 181.811 178.409 181.398 182.757 178.848L183.338 178.499C186.073 176.795 198.587 168.199 203.425 165.112C204.106 164.677 205.01 164.877 205.445 165.558C205.879 166.239 205.679 167.144 204.998 167.578L204.254 168.057C198.862 171.553 186.75 179.871 184.606 181.153C179.341 184.301 175.928 185.008 172.508 183.145L172.27 183.011C168.595 180.882 165.737 176.798 157.561 162.94C157.15 162.244 157.381 161.347 158.077 160.937Z" fill="white"/>
<path d="M181.765 177.844C182.566 177.737 183.302 178.299 183.409 179.1C183.907 182.821 185.1 186.552 186.994 190.297C187.359 191.018 187.07 191.898 186.349 192.262C185.629 192.627 184.749 192.338 184.384 191.617C182.346 187.587 181.052 183.543 180.509 179.488C180.402 178.687 180.964 177.951 181.765 177.844Z" fill="white"/>
<path fill-rule="evenodd" clip-rule="evenodd" d="M352.169 267.183C351.933 267.78 351.416 268.607 350.816 269.389L351.333 269.926L351.933 270.565L352.067 270.693C352.125 270.745 352.171 270.776 352.204 270.785C352.398 270.813 352.533 270.992 352.507 271.187C352.479 271.378 352.301 271.516 352.107 271.488C351.931 271.484 351.293 271.235 350.532 270.617C350.394 270.505 350.257 270.376 350.117 270.235C349.679 270.724 349.235 271.145 348.852 271.406C348.289 271.795 347.801 271.826 347.568 271.668C347.338 271.515 347.118 271 347.491 269.959C347.55 269.77 347.751 269.671 347.937 269.73C348.123 269.789 348.225 269.987 348.167 270.175C348.11 270.368 348.102 270.545 348.102 270.686L348.318 270.539C348.394 270.484 348.472 270.423 348.544 270.35C348.806 270.093 349.097 269.78 349.39 269.442C348.926 268.902 348.453 268.269 348.07 267.538C347.884 267.181 347.735 266.803 347.594 266.405C347.496 266.183 347.597 265.922 347.82 265.823C348.042 265.725 348.303 265.827 348.401 266.049C348.827 266.942 349.372 267.711 349.909 268.37L350.088 268.586C350.578 267.945 350.998 267.297 351.189 266.803C351.295 266.534 351.6 266.4 351.87 266.503C352.142 266.61 352.276 266.914 352.169 267.183Z" fill="white"/>
<path fill-rule="evenodd" clip-rule="evenodd" d="M134.528 82.656L133.636 82.4946C128.657 81.569 124.84 80.4327 117.709 77.9604C116.892 77.6769 116.459 76.7841 116.742 75.9663C117.026 75.1486 117.918 74.7155 118.736 74.999L120.513 75.6106C126.769 77.7454 130.278 78.7241 135.072 79.5693C151.201 82.4133 163.278 74.1325 164.266 58.3395C164.32 57.4757 165.064 56.8192 165.928 56.8733C166.792 56.9273 167.448 57.6714 167.394 58.5352C166.283 76.2967 152.41 85.8092 134.528 82.656Z" fill="black"/>
<path fill-rule="evenodd" clip-rule="evenodd" d="M174.83 99.5691L175.73 101.569L177.782 102.158C177.893 102.19 177.957 102.305 177.925 102.416C177.915 102.45 177.897 102.482 177.871 102.507L176.313 104.058L176.4 106.291C176.405 106.407 176.315 106.504 176.199 106.508C176.16 106.51 176.122 106.5 176.088 106.481L174.323 105.476C174.268 105.445 174.202 105.44 174.143 105.464L172.255 106.213C172.148 106.256 172.027 106.203 171.984 106.096C171.97 106.06 171.966 106.02 171.973 105.982L172.37 103.783L171.042 102.029C170.973 101.937 170.991 101.806 171.083 101.736C171.111 101.715 171.145 101.701 171.18 101.696L173.293 101.399L174.463 99.5434C174.524 99.4457 174.653 99.4165 174.751 99.478C174.786 99.4999 174.813 99.5316 174.83 99.5691Z" fill="black"/>
<path d="M380.98 49.304C381.786 49.2466 382.486 49.8532 382.543 50.6589C382.601 51.4647 381.994 52.1645 381.189 52.222C375.417 52.6338 370.884 54.8705 368.87 60.4034C368.749 60.7364 368.648 61.0579 368.567 61.3634L368.512 61.5733L368.601 61.3891C371.136 56.2119 376.026 52.6147 381.693 51.7018L382.064 51.6461C382.864 51.5344 383.603 52.0925 383.715 52.8925C383.827 53.6926 383.268 54.4317 382.468 54.5434C377.204 55.2783 372.7 58.7771 370.736 63.7956L370.609 64.1323C369.675 66.6973 367.434 67.9273 365.992 65.7322C365.112 64.3933 365.17 62.0155 366.121 59.4029C368.533 52.7758 374.068 49.7972 380.98 49.304Z" fill="white"/>
<path d="M374.318 38.407C375.123 38.3496 375.823 38.9562 375.881 39.7619C375.938 40.5677 375.332 41.2675 374.526 41.325C365.344 41.98 357.293 47.9427 354.09 56.744C353.14 59.353 352.964 61.5836 353.304 62.7133L353.345 62.8394L353.41 62.7461C353.573 62.4983 353.757 62.1425 353.938 61.6812L354.015 61.477C357.398 52.1804 365.602 45.6699 375.225 44.3267C376.025 44.215 376.764 44.7731 376.875 45.5731C376.987 46.3732 376.429 47.1123 375.629 47.224C367.211 48.399 360.017 54.0168 356.918 62.0662L356.764 62.4775C355.509 65.925 352.795 67.4143 351.061 64.7745C349.872 62.9656 349.955 59.5507 351.341 55.7434C354.943 45.848 363.995 39.1435 374.318 38.407Z" fill="white"/>
<path d="M365.339 23.8776C366.145 23.8201 366.845 24.4267 366.902 25.2324C366.96 26.0382 366.353 26.738 365.548 26.7955C352.452 27.7298 340.969 36.2344 336.4 48.7875C334.845 53.0596 334.716 56.6805 335.565 58.1856L335.642 58.3129C335.768 58.5042 335.726 58.5098 335.758 58.4834L335.777 58.4706C336.208 58.2345 336.776 57.4299 337.295 56.0955L337.398 55.8215C342.064 43.0001 353.379 34.0213 366.65 32.1689C367.45 32.0572 368.189 32.6152 368.301 33.4153C368.412 34.2154 367.854 34.9545 367.054 35.0662C355.004 36.7482 344.71 44.8148 340.317 56.3644L340.147 56.8221C338.523 61.2825 335.267 63.0695 333.197 59.9193C331.654 57.5707 331.766 52.9655 333.651 47.7869C338.618 34.1397 351.103 24.8932 365.339 23.8776Z" fill="white"/>
<path d="M349.311 10.2226C350.104 10.0673 350.872 10.5841 351.027 11.3769C351.183 12.1696 350.666 12.9382 349.873 13.0934C338.018 15.4152 328.484 24.47 325.719 36.4471C324.783 40.5006 325.066 43.7965 325.985 45.054L326.106 45.2116L326.116 45.2335L326.133 45.2203C326.462 44.9235 326.846 44.1654 327.145 42.9901L327.207 42.7319C330.051 30.4138 339.442 20.8788 351.438 17.6767C352.218 17.4683 353.02 17.9322 353.228 18.7126C353.436 19.4931 352.973 20.2947 352.192 20.5031C341.385 23.388 332.894 31.8965 330.169 42.9226L330.057 43.39C329.054 47.7344 326.175 49.8083 323.842 47.0583C322.135 45.0468 321.717 40.7788 322.869 35.789C325.896 22.6774 336.333 12.7641 349.311 10.2226Z" fill="white"/>
<path d="M187.168 190.619L188.013 190.312C195.993 187.448 202.727 186.184 204.437 187.925C205.937 189.451 207.274 192.215 208.541 196.269C208.782 197.04 208.352 197.86 207.581 198.101C206.81 198.342 205.99 197.912 205.749 197.141C204.653 193.635 203.535 191.276 202.477 190.11L202.434 190.064L202.396 190.066C202.196 190.025 201.896 190.004 201.513 190.012C200.67 190.028 199.518 190.177 198.142 190.449C195.312 191.01 191.734 192.053 188.181 193.364C182.24 195.555 177.291 198.13 174.557 200.456C173.554 201.31 171.721 198.931 173.485 197.569C176.658 195.117 181.47 192.721 187.168 190.619Z" fill="white"/>
<path d="M183.152 162.987C183.152 167.866 188.312 173.148 189.41 173.449C190.189 173.662 176.765 182.409 176.765 182.409C171.914 183.047 169.066 178.947 169.066 172.839C169.066 172.032 183.152 162.179 183.152 162.987Z" fill="white"/>
<path fill-rule="evenodd" clip-rule="evenodd" d="M167.323 165.551C169.023 165.221 170.177 163.805 169.902 162.389C169.627 160.973 168.026 160.093 166.327 160.423C164.627 160.753 163.473 162.169 163.748 163.585C164.024 165.001 165.624 165.881 167.323 165.551Z" fill="black"/>
<path d="M340.463 2.11151C341.259 1.97289 342.017 2.50567 342.155 3.30151C342.294 4.09735 341.761 4.85487 340.965 4.99349C337.18 5.6528 333.363 7.94379 329.428 11.5879C324.318 16.3198 320.942 22.8582 319.081 31.5759C317.582 38.5994 318.966 47.3757 322.885 55.0908C327.344 63.8684 335.232 66.0378 344.429 67.7177C353.871 69.4422 356.48 68.3772 365.402 65.2055L366.223 64.9072C367.442 64.4453 373.143 62.2147 374.514 61.8002C377.398 60.9279 379.366 61.0009 380.792 62.5213C381.345 63.1103 381.316 64.036 380.727 64.5888C380.175 65.107 379.326 65.1135 378.767 64.627L378.659 64.5231C378.238 64.0746 377.368 64.0227 375.617 64.5248L375.361 64.6003C374.042 64.999 367.86 67.4255 367.059 67.7177C357.423 71.2352 354.155 72.4678 343.904 70.5954C333.745 68.74 325.126 65.9623 320.277 56.4157C316.062 48.1191 314.577 38.6629 316.22 30.9651C318.207 21.6609 321.885 14.5852 327.44 9.4414C331.789 5.41491 336.121 2.86783 340.463 2.11151Z" fill="white"/>
<path d="M409.273 118.498C400.935 118.072 394.368 124.512 394.299 133.157C394.242 140.441 398.344 146.438 403.98 147.6C406.259 148.07 410.635 147.505 413.88 145.685C418.808 143.042 422.576 137.608 423.051 132.979C423.825 125.436 417.719 118.93 409.273 118.498Z" fill="white"/>
<path d="M258.174 116.975C260.837 122.354 264.973 134.78 263.184 134.72C258.215 134.554 251.567 126.917 246.917 116.591L246.55 115.761C242.49 106.386 240.059 100.496 242.882 99.3681C245.802 98.2011 252.676 105.872 258.174 116.975Z" fill="white"/>
<path fill-rule="evenodd" clip-rule="evenodd" d="M242.882 99.2509C245.802 98.084 252.777 105.405 258.275 116.507C260.938 121.887 262.745 127.047 263.217 130.748C263.217 130.748 254.222 111.795 248.735 104.853C246.628 102.186 242.882 99.2509 242.882 99.2509Z" fill="white"/>
<path d="M241.35 146.983C241.564 146.204 242.369 145.746 243.148 145.96C243.927 146.175 244.385 146.98 244.17 147.759C243.895 148.761 240.021 151.389 231.567 156.6L226.231 159.865C215.697 166.278 208.668 170.381 207.789 170.381C201.973 170.381 196.732 164.895 192.906 156.238C189.565 148.678 187.83 139.681 188.614 133.784C188.858 131.944 194.99 127.18 204.457 120.797L205.813 119.888C214.189 114.308 221.348 110.17 223.938 109.648C224.73 109.488 225.501 110 225.661 110.792C225.761 111.287 202.674 130.748 200.419 143.664C198.892 152.409 204.665 167.315 207.53 167.45L207.789 167.456C207.556 167.456 207.631 167.402 207.658 167.386L207.922 167.25C208.116 167.148 208.347 167.024 208.613 166.878L209.83 166.197C210.295 165.934 210.814 165.636 211.382 165.309L212.833 164.465C215.605 162.847 219.063 160.787 222.59 158.653L225.945 156.613C230.024 154.121 233.71 151.823 236.48 150.038L237.907 149.111C238.791 148.531 239.537 148.03 240.134 147.614L240.351 147.462C240.68 147.23 240.954 147.03 241.168 146.866C241.168 146.866 241.408 146.771 241.35 146.983Z" fill="white"/>
<path d="M162.109 178.178C161.543 177.601 160.617 177.593 160.04 178.158C159.026 179.153 157.604 180.08 155.122 181.458L152.595 182.86C151.928 183.241 151.381 183.569 150.886 183.89C150.472 184.158 150.103 184.417 149.77 184.674C149.131 185.168 149.013 186.086 149.507 186.726C150.001 187.365 150.92 187.483 151.559 186.989C151.823 186.785 152.128 186.571 152.478 186.344C152.801 186.134 153.156 185.917 153.567 185.677L154.373 185.216L156.939 183.794C159.405 182.41 160.891 181.422 162.089 180.247C162.666 179.681 162.674 178.755 162.109 178.178Z" fill="black"/>
<path fill-rule="evenodd" clip-rule="evenodd" d="M223.578 106.214C224.033 102.789 236.854 95.3868 242.705 94.9086C242.95 94.7551 243.211 94.622 243.491 94.5104C248.558 92.4858 256.278 101.159 262.472 113.362L262.896 114.209C265.692 119.855 267.599 125.303 268.119 129.378C268.74 134.247 267.329 137.476 263.633 137.641C263.534 138.025 263.283 138.345 262.951 138.539L262.894 138.568L262.75 138.712C262.605 138.861 262.434 139.046 262.17 139.339L260.353 141.367C259.693 142.094 259.226 142.587 258.593 143.229C257.853 143.979 257.138 144.657 256.439 145.265C253.607 147.725 249.421 149.188 247.233 149.188C246.074 149.188 244.901 148.918 243.725 148.403C242.47 149.713 238.606 152.261 231.567 156.6L226.231 159.865C215.697 166.278 208.668 170.381 207.789 170.381C205.797 170.381 203.873 169.738 202.05 168.544C202.033 168.556 202.016 168.567 201.998 168.578L201.253 169.057C198.662 170.737 194.518 173.532 190.675 176.123L190.674 176.124L190.434 176.285C190.932 179.837 192.063 183.399 193.832 186.973C200.115 185.03 205.091 184.374 206.527 185.835C208.027 187.361 209.363 190.125 210.631 194.179C210.872 194.95 210.442 195.77 209.671 196.011C208.9 196.253 208.08 195.823 207.839 195.052C206.743 191.546 205.624 189.186 204.567 188.02L204.523 187.974L204.486 187.976C204.285 187.935 203.985 187.915 203.603 187.922C202.76 187.938 201.608 188.087 200.232 188.36C197.401 188.921 193.823 189.964 190.27 191.274C182.149 194.27 175.88 197.983 174.592 200.796C174.215 201.619 174.263 202.825 174.714 204.67L174.798 205.002C174.866 205.263 174.936 205.523 175.029 205.851L175.557 207.72L175.579 207.804C175.594 207.861 175.61 207.921 175.628 207.991C175.831 208.773 175.362 209.571 174.58 209.774C173.798 209.977 172.999 209.508 172.796 208.726L172.537 207.78L172.104 206.253C172.055 206.072 172.01 205.906 171.966 205.736C171.281 203.094 171.171 201.242 171.932 199.578C173.224 196.758 177.264 193.836 182.89 191.18L181.666 188.019L181.364 187.22C180.9 185.973 180.361 184.284 180.031 183.051C175.636 185.419 172.575 185.816 169.508 184.145L169.27 184.011C168.663 183.66 168.079 183.255 167.489 182.762L150.346 193.174C150.506 193.518 150.667 193.864 150.829 194.213C151.598 195.863 150.242 197.031 148.161 197.939L147.937 198.035C146.148 198.776 144.534 198.946 143.573 197.891C139.587 193.515 135.367 183.049 137.637 180.655C138.073 180.195 139.224 179.511 141.4 178.369L141.574 178.279C141.618 178.248 141.665 178.22 141.713 178.193L157.738 169.511C157.775 169.491 157.812 169.473 157.85 169.457C156.86 167.82 155.775 165.998 154.576 163.965C154.393 163.67 154.326 163.326 154.372 162.994C154.401 162.784 154.476 162.578 154.597 162.394C154.663 162.293 154.743 162.199 154.835 162.116C158.129 158.991 162.618 155.733 168.25 152.225L168.933 151.802C171.37 150.299 176.313 147.48 180.513 145.085C183.77 143.227 186.58 141.624 187.426 141.089L187.631 140.953C187.937 140.729 188.301 140.642 188.65 140.679C188.372 138.142 188.348 135.785 188.614 133.784C188.858 131.944 194.99 127.18 204.457 120.797L205.813 119.888C213.748 114.602 220.592 110.609 223.492 109.76C223.414 108.45 223.44 107.257 223.578 106.214ZM244.25 117.793C240.715 109.945 239.153 102.753 240.337 98.3981C238.198 99.0776 235.525 100.299 232.871 101.822C229.343 103.846 226.543 106.108 226.478 106.599C225.796 111.732 228.413 121.719 232.762 130.622C237.414 140.145 242.949 146.262 247.233 146.262C247.643 146.262 248.817 146.02 249.994 145.609C251.668 145.024 253.236 144.173 254.52 143.057C255.159 142.502 255.82 141.875 256.51 141.175L257.342 140.315C257.833 139.796 258.339 139.237 259.13 138.352L260.23 137.123L260.278 137.071C254.766 135.057 249.002 127.958 244.69 118.752L244.25 117.793ZM223.812 112.726C220.971 113.765 213.856 117.989 206.092 123.223L204.849 124.066C201.355 126.45 198.128 128.774 195.69 130.669L195.012 131.2C193.924 132.062 193.044 132.805 192.406 133.401C192.085 133.7 191.833 133.955 191.655 134.159L191.53 134.306C191.503 134.334 191.496 134.323 191.506 134.231L191.514 134.169C191.511 134.193 191.508 134.213 191.506 134.231L191.467 134.545C190.061 146.889 198.987 167.048 207.53 167.45L207.731 167.455C207.748 167.456 207.767 167.456 207.789 167.456L207.731 167.455C207.57 167.446 207.634 167.4 207.658 167.386L207.922 167.25C208.116 167.148 208.347 167.024 208.613 166.878L209.83 166.197C210.295 165.934 210.814 165.636 211.382 165.309L212.833 164.465C215.605 162.847 219.063 160.787 222.59 158.653L225.945 156.613C230.024 154.121 233.71 151.823 236.48 150.038L237.907 149.111C238.791 148.531 239.537 148.03 240.134 147.614L240.351 147.462C240.667 147.239 240.932 147.046 241.142 146.886C237.374 144.121 233.664 139.015 230.371 132.387L230.134 131.906C226.96 125.408 224.664 118.372 223.812 112.726ZM189.054 143.515C187.998 144.18 184.885 145.957 181.421 147.935C177.316 150.279 172.719 152.905 170.468 154.292C165.152 157.57 160.865 160.608 157.682 163.468L158.736 165.247C163.349 172.986 166.02 177.059 168.169 179.36C167.455 177.667 167.085 175.518 167.085 172.823C167.085 172.699 167.1 172.579 167.13 172.464C166.988 171.903 167.187 171.288 167.682 170.925L168.678 170.184C169.276 169.733 170.259 168.981 171.377 168.127C173.823 166.258 176.914 163.895 178.017 163.105C181.486 160.621 184.043 159.226 186.371 158.743C187.483 158.511 188.347 159.169 188.597 160.188L188.638 160.373C188.696 160.677 188.707 160.975 188.706 161.626L188.705 161.833C188.693 164.267 188.934 165.671 189.965 167.294C190.67 168.404 191.707 169.417 193.151 170.324C193.302 170.419 193.43 170.537 193.533 170.671C195.863 169.106 198.045 167.651 199.655 166.608C197.118 164.152 194.833 160.597 192.906 156.238C191.111 152.177 189.78 147.702 189.054 143.515ZM265.217 129.748C264.745 126.047 262.938 120.887 260.275 115.507C254.777 104.405 247.497 96.06 244.576 97.227C241.753 98.3551 242.49 106.386 246.55 115.761L246.917 116.591C251.567 126.917 258.215 134.554 263.184 134.72C264.973 134.78 265.672 133.319 265.217 129.748ZM159.361 171.93C161.899 176.032 163.752 178.743 165.368 180.628L149.116 190.499C147.451 186.85 145.962 183.452 144.517 180.001L159.132 172.084C159.214 172.039 159.291 171.987 159.361 171.93ZM191.027 187.896C189.45 184.634 188.361 181.364 187.762 178.086C185.662 179.499 183.835 180.722 182.66 181.486C182.861 182.495 183.609 184.89 184.253 186.593L185.454 189.683L185.568 189.985C186.748 189.487 187.981 189.001 189.258 188.53L190.102 188.222C190.413 188.111 190.721 188.002 191.027 187.896ZM190.975 172.392C189.477 171.354 188.328 170.172 187.496 168.862C186.149 166.742 185.795 164.932 185.78 162.197L185.779 161.952L185.572 162.03C184.089 162.605 182.319 163.647 180.096 165.217L179.721 165.484C178.662 166.242 175.648 168.545 173.218 170.402L173.217 170.403C171.866 171.435 170.696 172.33 170.141 172.745L170.01 172.841C170.013 177.708 171.228 179.941 173.487 181.024L173.668 181.107C174.206 181.345 174.59 181.465 175.688 181.766C175.71 181.772 175.732 181.778 175.753 181.785C176.892 181.402 178.198 180.762 179.757 179.848L180.338 179.499C181.626 178.696 185.082 176.365 188.885 173.801C189.574 173.337 190.274 172.864 190.975 172.392ZM141.932 181.401L142.156 181.934C143.709 185.618 145.324 189.266 147.156 193.244L147.868 194.788C147.635 194.945 147.328 195.111 146.99 195.259C146.505 195.47 146.013 195.619 145.643 195.669L145.525 195.681L145.347 195.467C143.962 193.763 142.355 190.866 141.194 187.986C140.575 186.452 140.135 185.045 139.936 183.963C139.855 183.523 139.818 183.153 139.821 182.872L139.829 182.687C139.832 182.642 139.832 182.619 139.821 182.616L139.865 182.586C140.112 182.416 140.744 182.046 141.683 181.536L141.932 181.401Z" fill="black"/>
<path d="M129.391 326.716C136.705 367.497 164.12 398.155 199.103 405.383C205.524 406.71 216.643 406.885 228.158 405.394C242.993 403.474 257.43 399.07 270.128 391.932C305.008 373.185 331.476 334.925 334.907 301.433C337.92 272.013 326.681 244.835 306.335 225.446C306.335 225.446 242.419 256.839 211.044 274.683C183.742 290.21 129.391 326.716 129.391 326.716Z" fill="white"/>
<path d="M278.241 205.104C265.131 198.636 248.705 193.526 232.599 192.702C173.526 189.682 127.067 236.873 126.582 297.741C126.582 297.741 192.513 255.746 226.766 235.484C243.807 225.404 278.241 205.104 278.241 205.104Z" fill="white"/>
<path fill-rule="evenodd" clip-rule="evenodd" d="M399.746 174.083C399.547 184.252 388.786 201.179 371.487 220.333C358.957 234.208 344.375 247.62 332.149 256.658L331.388 257.215L331.893 259.461C334.866 272.491 338.748 286.656 337.281 300.941C333.722 335.612 306.603 374.727 270.766 393.946C257.696 401.278 242.839 405.8 227.599 407.768L226.146 407.948C214.783 409.286 203.909 409.064 197.264 407.694C171.471 402.376 149.634 384.346 136.432 358.252C136.388 358.164 136.353 358.074 136.327 357.983C134.589 358.974 132.251 360.082 131.183 360.445L128.257 361.433C96.7245 372.039 65.4639 380.912 52.6934 375.374C47.8318 373.266 46.1702 369.212 48.2033 363.764C50.1792 358.471 55.6577 351.649 64.8492 343.16L65.3543 342.695C74.0639 334.711 93.4056 320.122 123.379 298.927L123.387 298.538C124.85 235.737 173.632 187.861 234.95 191.769C253.705 192.964 268.641 199.629 276.101 203.722L279.382 201.961C310.152 185.508 334.841 173.943 353.679 167.021C384.657 155.637 399.978 160.96 399.746 174.083ZM354.688 173.767C320.048 186.496 265.303 215.125 189.081 261.176L186.765 262.577C127.413 298.506 88.1123 325.802 67.331 344.852L66.3068 345.797L65.3356 346.708C49.7357 361.447 46.9706 369.704 53.8573 372.691C65.6463 377.803 97.3052 369.184 128.309 359.015L131.183 358.067C133.948 357.151 135.781 356.625 136.916 356.383C136.966 356.347 137.02 356.315 137.077 356.286C137.465 356.09 137.899 356.083 138.274 356.23C138.355 356.246 138.408 356.271 138.435 356.306C138.688 356.443 138.903 356.655 139.042 356.931C151.859 382.263 172.978 397.7 197.855 402.829C204.312 404.16 215.207 404.355 226.544 402.953L227.224 402.867C242.113 400.944 256.615 398.53 269.359 391.381C304.379 372.6 330.913 334.329 334.371 300.642C335.849 286.245 333.963 272.113 328.949 258.96C328.535 259.25 328.124 259.533 327.717 259.811C326.947 260.336 327.235 259.486 328.579 257.26C328.65 256.97 328.811 256.705 329.041 256.507L329.455 255.851C329.6 255.623 329.752 255.385 329.912 255.137L331.646 253.675C347.985 239.855 360.542 228.088 369.316 218.372L370.318 217.257C386.552 199.09 396.644 183.042 396.81 174.029C396.993 164.141 383.947 163.015 354.688 173.767ZM207.808 358.747C211.733 370.742 205.796 378.457 195.345 378.856C185.688 379.224 176.894 373.139 177.342 364.492C177.73 357.019 182.847 349.03 189.146 346.096C196.765 342.548 203.916 346.852 207.808 358.747ZM190.69 349.411C185.649 351.758 181.313 358.528 180.994 364.682C180.676 370.81 187.451 375.498 195.205 375.202C203.312 374.892 207.474 369.485 204.333 359.884C201.062 349.889 196.09 346.896 190.69 349.411ZM287.602 334.305C292.61 343.767 291.299 353.063 283.599 357.23L283.383 357.343L283.271 357.455C272.946 367.679 260.046 368.92 251.634 361.509L251.346 361.25C241.656 352.374 243.965 337.124 259.383 325.169C269.306 317.476 281.426 322.635 287.602 334.305ZM261.304 327.646C247.306 338.499 245.339 351.496 253.463 358.939C259.29 364.276 267.9 364.572 275.941 359.391L276.098 359.286L276.039 359.274C275.482 359.127 275.036 358.678 274.909 358.093L274.884 357.944C274.782 357.084 275.396 356.305 276.256 356.203C278.222 355.97 279.928 355.495 281.375 354.816L281.572 354.72L281.812 354.472C282.756 353.478 283.677 352.398 284.57 351.229L284.866 350.836C285.201 350.387 285.731 350.169 286.251 350.211L286.291 350.216L286.312 350.177C288.189 346.466 287.744 341.438 284.996 336.086L284.832 335.771C279.461 325.623 269.424 321.351 261.304 327.646ZM354.514 215.171C353.708 218.032 351.257 221.96 347.499 226.61C340.948 234.717 331.107 244.154 322.505 250.606L324.413 248.508C324.394 248.491 324.378 248.468 324.365 248.443L323.706 247.233C319.401 239.376 314.606 231.626 306.856 225.308C286.795 233.579 263.792 244.886 242.835 256.708L235.966 260.59C185.381 289.245 158.767 306.401 130.307 327.49C131.381 332.327 132.735 337.048 134.356 341.622C134.61 342.34 131.287 345.026 130.678 344.695C125.001 348.499 116.11 351.262 111.049 351.405C106.116 351.545 103.266 349.548 104.734 345.567C105.963 342.236 110.589 337.486 118.915 331.119L119.864 330.399L121.783 328.957C153.118 305.498 184.139 286.46 241.398 254.16L243.795 252.815C283.066 230.893 328.544 211.144 349.374 209.322C353.656 208.947 355.598 211.317 354.514 215.171ZM126.497 330.328L119.931 335.282C114.075 339.723 109.852 343.007 107.571 345.114L107.404 345.27C104.62 347.881 107.771 348.572 110.966 348.481C115.805 348.344 123.219 344.674 129.494 341.334C128.334 337.741 127.334 334.068 126.497 330.328ZM229.19 314.446C229.973 314.645 230.447 315.44 230.248 316.223C230.049 317.006 229.253 317.48 228.47 317.281C224.537 316.283 222.213 316.666 221.46 317.725C220.96 318.428 221.237 319.626 222.172 320.391C222.903 320.989 223.876 321.275 224.545 321.129C225.127 321.002 225.453 320.553 225.453 319.43C225.453 318.622 226.108 317.967 226.916 317.967C227.724 317.967 228.379 318.622 228.379 319.43C228.379 321.873 227.157 323.554 225.167 323.987C223.568 324.335 221.704 323.788 220.32 322.655C218.275 320.983 217.607 318.094 219.076 316.029C220.687 313.765 224.217 313.183 229.19 314.446ZM164.938 309.076C167.194 309.752 168.166 311.484 168.472 314.083L168.503 314.364L168.54 314.792C168.545 314.863 168.55 314.936 168.555 315.015L168.632 316.499L168.655 316.834C168.667 316.981 168.68 317.101 168.695 317.208L168.734 317.432L168.757 317.53L168.798 317.566C169.25 318.008 169.37 318.701 169.078 319.274L169.003 319.403C168.565 320.082 167.66 320.278 166.981 319.84C166.047 319.237 165.834 318.617 165.721 316.838L165.628 315.097C165.618 314.939 165.606 314.803 165.591 314.649C165.425 312.945 165.009 312.151 164.099 311.878C161.544 311.113 160.078 311.895 159.613 313.602C159.2 315.124 159.798 316.723 160.847 317.167L161.112 317.266C161.797 317.559 162.16 318.33 161.929 319.055C161.684 319.824 160.861 320.249 160.091 320.004C157.306 319.116 155.982 315.807 156.79 312.835C157.692 309.517 160.829 307.845 164.938 309.076ZM270.467 286.679C274.517 292.373 273.764 299.619 267.266 302.898C266.544 303.261 265.665 302.972 265.301 302.25C264.937 301.529 265.227 300.65 265.948 300.286C270.653 297.912 271.19 292.743 268.083 288.374C265.064 284.131 260.863 283.664 257.975 288.249C254.914 293.111 255.136 295.965 257.34 297.25C259.09 298.27 261.907 298.056 262.682 297.222L262.757 297.13C263.225 296.472 264.139 296.318 264.797 296.786C265.455 297.255 265.609 298.168 265.14 298.826C263.514 301.111 258.874 301.53 255.867 299.777C252.017 297.532 251.649 292.806 255.5 286.691C259.623 280.142 266.349 280.889 270.467 286.679ZM209.823 278.292C210.583 278.292 211.208 278.872 211.279 279.613L211.286 279.754C211.286 280.012 211.525 280.3 212.383 280.929L213.196 281.512C214.081 282.158 214.508 282.558 214.911 283.196C215.834 284.654 216.356 286.139 216.356 287.885C216.356 292.355 209.641 298.435 202.311 301.141C193.523 304.384 186.324 301.979 184.365 292.962C184.193 292.172 184.694 291.393 185.483 291.222C186.273 291.05 187.052 291.551 187.223 292.341C188.744 299.339 193.993 301.092 201.298 298.396C207.605 296.068 213.431 290.794 213.431 287.885C213.431 286.76 213.089 285.787 212.439 284.76L212.351 284.636C212.202 284.448 211.969 284.244 211.55 283.934L210.585 283.238C208.981 282.056 208.36 281.258 208.36 279.754C208.36 278.947 209.015 278.292 209.823 278.292ZM216.689 197.219L215.765 197.323C165.853 203.326 128.409 243.247 126.367 296.818L131.723 293.05C147.094 282.26 164.937 269.935 185.25 256.075L189.208 253.682C201.025 246.553 212.323 239.844 223.109 233.55C222.912 233.205 222.857 232.781 222.99 232.374C223.744 230.072 224.441 228.525 225.718 226.976C229.715 222.128 235.19 219.76 239.069 222.804C239.451 223.104 239.644 223.555 239.628 224.006L243.074 222.04C253.925 215.863 264.192 210.158 273.883 204.918L270.098 203.841C264.485 202.261 257.502 200.387 250.546 198.945C250.609 203.573 247.145 207.27 241.388 209.812C236.495 211.973 230.119 213.136 225.585 212.865C217.103 212.36 212.328 204.92 216.689 197.219ZM304.244 260.741C307.824 270.521 304.871 279.413 295.933 279.355C283.199 279.272 270.764 268.153 272.774 258.193C273.671 253.749 277.011 249.818 282.82 247.856C292.097 244.724 300.601 250.786 304.244 260.741ZM283.756 250.628C278.956 252.249 276.336 255.332 275.642 258.771C274.046 266.677 284.873 276.358 295.952 276.43C302.299 276.471 304.481 269.899 301.497 261.747C298.34 253.12 291.281 248.087 283.756 250.628ZM176.201 216.001L176.306 216.152L177.01 217.272C177.354 217.84 177.663 218.398 177.957 218.999C181.197 225.622 181.113 234.305 175.631 246.358C173.147 251.818 166.82 259.156 161.295 263.535C154.24 269.127 148.973 270.397 142.686 269.707L140.82 269.487L140.593 269.467C140.468 269.457 140.388 269.457 140.301 269.46L140.173 269.465C140.075 269.47 140.042 269.465 140.036 269.452L140.036 269.442L139.989 269.518C139.565 270.126 138.74 270.326 138.079 269.958C137.373 269.565 137.119 268.675 137.511 267.969C138.037 267.024 138.916 266.596 140.034 266.543C140.33 266.529 140.644 266.539 141.017 266.57L141.453 266.612L142.659 266.759C148.386 267.453 152.943 266.423 159.478 261.243C164.668 257.13 170.7 250.134 172.968 245.147C178.098 233.868 178.173 226.099 175.329 220.284C175.14 219.897 174.943 219.529 174.728 219.16L174.422 218.648L173.809 217.678C173.38 216.994 173.587 216.091 174.271 215.662C174.913 215.259 175.746 215.416 176.201 216.001ZM349.629 212.236C340.278 213.054 325.62 217.673 308.721 224.544L309.215 224.981C313.918 229.2 323.407 239.206 326.377 246.343L329.335 243.062C336.635 234.943 341.931 228.846 345.224 224.771L345.89 223.936C349.037 219.942 351.071 216.605 351.698 214.378L351.787 214.04C352.177 212.433 351.725 212.053 349.629 212.236ZM209.573 216.988C213.213 218.748 214.69 222.666 212.295 226.218C211.844 226.888 210.935 227.065 210.265 226.614C209.595 226.162 209.418 225.253 209.87 224.583C211.187 222.629 210.444 220.658 208.299 219.621C206.041 218.529 203.566 219.157 202.289 221.541C201.112 223.738 201.031 226.712 201.971 228.659C202.795 230.369 203.996 230.697 205.828 229.318C206.473 228.832 207.39 228.961 207.876 229.607C208.362 230.252 208.233 231.169 207.587 231.655C204.249 234.168 200.945 233.266 199.336 229.93C197.987 227.134 198.094 223.175 199.71 220.16C201.771 216.313 205.972 215.247 209.573 216.988ZM227.976 228.837C227.294 229.664 226.806 230.537 226.355 231.658C230.124 229.468 233.829 227.328 237.471 225.24L237.365 225.178L237.263 225.105C235.03 223.353 231.093 225.055 227.976 228.837ZM221.738 196.772L220.459 196.862L220.373 196.97C215.317 203.36 217.264 208.547 224.169 209.283C229.129 209.812 242.294 206.133 243.838 204.841C245.342 203.583 247.245 200.691 247.538 198.348C243.07 197.507 238.699 196.89 234.8 196.69C230.816 196.487 226.887 196.492 223.023 196.696L221.738 196.772Z" fill="black"/>
<path d="M353.8 174.129C384.779 162.745 384.069 166.123 354.809 176.875C320.169 189.605 189.412 269.365 189.412 269.365C130.06 305.294 125.62 299.748 183.148 264.786L186.694 262.635C187.362 262.231 252.858 220.894 299.659 198.779C304.925 196.29 350.273 175.425 353.8 174.129Z" fill="white"/>
<path fill-rule="evenodd" clip-rule="evenodd" d="M407.29 117.456C397.691 116.965 390.198 124.425 390.12 134.185C390.055 142.362 394.747 149.306 401.469 150.692C403.24 151.057 408.347 151.057 412.778 148.571L413.145 148.369C418.732 145.206 422.532 139.188 423.04 134.237C423.941 125.46 416.89 117.947 407.29 117.456ZM392.21 134.202C392.21 134.139 392.211 134.076 392.212 134.013C392.272 133.994 392.331 133.969 392.388 133.938C399.914 129.884 404.56 126.794 406.415 124.563C407.64 123.09 408.238 121.429 408.189 119.624C409.453 119.763 410.658 120.041 411.787 120.438C411.78 120.492 411.778 120.547 411.78 120.604C411.871 123.201 411.179 125.278 409.707 126.895C408.015 128.753 405.965 130.522 403.635 132.189C401.143 133.972 398.468 135.546 395.792 136.894C395.168 137.208 394.574 137.495 394.017 137.754L393.209 138.12C393.093 138.171 392.986 138.218 392.888 138.261L392.647 138.362C392.351 137.045 392.198 135.648 392.21 134.202ZM393.235 140.382C393.896 142.217 394.855 143.843 396.041 145.167L396.665 144.808C406.487 139.122 412.584 134.655 414.891 131.504C417.225 128.318 418.056 125.872 417.534 124.208C417.522 124.169 417.512 124.13 417.505 124.09C416.477 123.011 415.253 122.083 413.874 121.351C413.815 124.113 412.942 126.445 411.252 128.302C409.453 130.278 407.293 132.14 404.851 133.888C402.264 135.739 399.498 137.367 396.733 138.76C395.926 139.167 395.167 139.529 394.468 139.845L393.653 140.206L393.235 140.382ZM401.056 148.435C399.822 148.066 398.673 147.461 397.638 146.659C407.749 140.811 414.04 136.204 416.577 132.739C418.151 130.589 419.158 128.656 419.567 126.931C420.075 127.881 420.461 128.893 420.708 129.951C420.655 130.059 420.619 130.178 420.606 130.304C420.351 132.747 419.093 135.171 416.791 137.586C414.581 139.903 409.813 143.246 402.528 147.569L401.056 148.435ZM404.588 148.773C406.831 148.63 409.574 147.973 411.791 146.73C415.913 144.519 419.223 140.355 420.473 136.343C419.869 137.249 419.145 138.144 418.303 139.028C416.034 141.407 411.475 144.642 404.588 148.773ZM392.818 131.326L392.446 131.528C393.632 124.624 399.148 119.669 406.094 119.526C406.168 120.883 405.746 122.1 404.809 123.227C403.293 125.05 399.272 127.778 392.818 131.326Z" fill="black"/>
<path fill-rule="evenodd" clip-rule="evenodd" d="M482.717 97.4354C482.912 97.4578 483.047 97.6341 483.026 97.8277C483.024 98.1128 482.841 98.267 482.594 98.3671C482.372 98.4563 482.017 98.4221 481.81 98.4502C479.547 98.6248 477.769 96.9599 476.987 94.814C476.235 92.7526 476.435 90.2878 477.8 88.7676C477.957 88.5884 478.229 88.5704 478.408 88.7274C478.587 88.8845 479.605 89.1574 479.448 89.3366C478.323 90.6498 477.562 91.4466 478.623 94.5635C479.684 97.6805 482.571 97.4187 482.717 97.4354Z" fill="white"/>
<path d="M122.461 119.752C121.866 119.344 121.053 119.495 120.645 120.089C120.237 120.684 120.388 121.497 120.982 121.905C121.635 122.354 122.213 122.768 122.722 123.153C122.173 123.589 121.625 124.09 121.056 124.659L119.901 125.832C119.393 126.344 119.397 127.171 119.909 127.679C120.421 128.187 121.248 128.183 121.756 127.671L123.142 126.27C123.706 125.721 124.234 125.262 124.766 124.88C125.947 126.05 126.306 126.909 126.325 127.762L126.325 127.981L126.332 128.115C126.399 128.773 126.955 129.287 127.631 129.287C128.353 129.287 128.937 128.702 128.937 127.981L128.937 127.724C128.913 126.394 128.443 125.128 127.179 123.682C128.014 123.434 128.955 123.294 130.096 123.235C130.816 123.197 131.37 122.583 131.332 121.862C131.294 121.142 130.68 120.589 129.96 120.626C127.979 120.73 126.44 121.06 125.068 121.687C124.496 121.219 123.847 120.728 123.114 120.208L122.461 119.752Z" fill="black"/>
<path d="M318.148 405.922L319.054 405.926C324.118 405.973 328.074 406.429 335.526 407.625C336.381 407.763 336.962 408.567 336.825 409.421C336.688 410.276 335.884 410.857 335.029 410.72L332.587 410.336C326.421 409.389 322.868 409.056 318.148 409.056C301.77 409.056 291.314 419.308 293.084 435.033C293.18 435.893 292.562 436.668 291.702 436.765C290.842 436.862 290.066 436.243 289.969 435.383C287.979 417.698 299.99 405.922 318.148 405.922Z" fill="black"/>
<path d="M330.832 412.249L330.68 412.115C330.532 411.988 330.305 412.006 330.181 412.154C330.051 412.303 330.071 412.526 330.219 412.653L330.376 412.787C330.524 412.914 330.746 412.897 330.875 412.748C331 412.6 330.985 412.376 330.832 412.249Z" fill="black"/>
<path d="M302.433 415.527C301.871 415.075 301.049 415.165 300.597 415.727C298.773 417.997 297.443 420.209 296.614 422.368C295.807 424.468 295.532 427.997 295.741 433.043L295.792 434.108C295.83 434.828 296.444 435.381 297.164 435.344C297.885 435.306 298.438 434.691 298.4 433.971C298.123 428.7 298.359 425.109 299.052 423.305C299.778 421.416 300.969 419.433 302.633 417.363C303.085 416.801 302.996 415.979 302.433 415.527Z" fill="black"/>
<path d="M316.686 411.206C317.327 410.874 318.115 411.125 318.447 411.765C318.778 412.406 318.528 413.194 317.888 413.525C315.235 414.9 313.209 417.203 311.797 420.487C310.282 424.012 309.042 427.157 308.078 429.921C307.84 430.602 307.095 430.961 306.414 430.724C305.733 430.486 305.374 429.742 305.611 429.061C306.598 426.234 307.86 423.033 309.398 419.456C311.039 415.638 313.473 412.871 316.686 411.206Z" fill="black"/>
<path d="M324.279 411.138C323.803 410.595 322.978 410.541 322.436 411.016C320.256 412.926 318.581 414.663 317.409 416.238C316.245 417.802 314.882 420.141 313.305 423.271C312.98 423.915 313.239 424.7 313.883 425.025C314.527 425.349 315.313 425.09 315.637 424.446C317.153 421.44 318.447 419.218 319.504 417.797C320.553 416.388 322.105 414.778 324.157 412.98C324.7 412.505 324.754 411.68 324.279 411.138Z" fill="black"/>
<path d="M319.51 425.886C318.968 426.361 318.143 426.307 317.668 425.764C317.192 425.222 317.247 424.397 317.789 423.921C319.841 422.124 321.393 420.514 322.442 419.104C323.499 417.683 324.794 415.462 326.309 412.455C326.634 411.811 327.419 411.552 328.063 411.877C328.707 412.202 328.966 412.987 328.641 413.631C327.064 416.76 325.701 419.099 324.537 420.664C323.365 422.239 321.69 423.976 319.51 425.886Z" fill="black"/>
<path d="M309.623 412.271C309.029 411.861 308.216 412.01 307.806 412.604C304.886 416.832 303.022 419.991 302.197 422.137C301.37 424.291 300.798 427.194 300.467 430.863C300.402 431.581 300.932 432.216 301.65 432.281C302.368 432.346 303.003 431.816 303.068 431.098C303.38 427.649 303.908 424.969 304.636 423.074C305.314 421.307 306.896 418.582 309.369 414.944L309.955 414.088C310.365 413.494 310.216 412.681 309.623 412.271Z" fill="black"/>
<path fill-rule="evenodd" clip-rule="evenodd" d="M284.83 404.569L285.73 406.569L287.782 407.158C287.893 407.19 287.957 407.306 287.925 407.417C287.915 407.451 287.897 407.482 287.871 407.507L286.313 409.059L286.4 411.292C286.405 411.407 286.315 411.504 286.199 411.509C286.16 411.51 286.122 411.501 286.088 411.481L284.323 410.476C284.268 410.445 284.202 410.44 284.143 410.464L282.255 411.213C282.148 411.256 282.027 411.204 281.984 411.096C281.97 411.06 281.966 411.021 281.973 410.982L282.37 408.783L281.042 407.029C280.973 406.937 280.991 406.806 281.083 406.737C281.111 406.715 281.145 406.701 281.18 406.696L283.293 406.399L284.463 404.544C284.524 404.446 284.653 404.417 284.751 404.478C284.786 404.5 284.813 404.532 284.83 404.569Z" fill="black"/>
<path fill-rule="evenodd" clip-rule="evenodd" d="M357.501 124.583C357.982 125.01 358.581 125.778 359.111 126.61L359.793 126.307L360.599 125.962C360.761 125.888 360.865 125.83 360.897 125.783C360.99 125.61 361.205 125.544 361.379 125.636C361.549 125.728 361.618 125.942 361.525 126.114C361.462 126.279 361.009 126.793 360.168 127.297C360.016 127.388 359.847 127.473 359.667 127.555C359.977 128.135 360.22 128.695 360.335 129.145C360.507 129.807 360.37 130.277 360.142 130.442C359.92 130.605 359.36 130.635 358.509 129.929C358.352 129.809 358.328 129.587 358.447 129.432C358.566 129.277 358.787 129.249 358.944 129.368C359.106 129.488 359.269 129.555 359.402 129.604L359.337 129.35C359.312 129.26 359.281 129.165 359.237 129.073C359.085 128.74 358.891 128.359 358.673 127.967C358.008 128.219 357.25 128.447 356.432 128.557C356.034 128.61 355.627 128.621 355.205 128.617C354.963 128.633 354.752 128.449 354.736 128.206C354.72 127.963 354.904 127.753 355.147 127.737C356.131 127.642 357.041 127.393 357.844 127.113L358.107 127.019C357.673 126.34 357.207 125.723 356.808 125.374C356.592 125.183 356.57 124.85 356.759 124.632C356.954 124.413 357.285 124.392 357.501 124.583Z" fill="black"/>
<path fill-rule="evenodd" clip-rule="evenodd" d="M69.9452 301.388C68.5793 301.477 66.4133 301.826 64.6427 302.528C63.1281 303.129 63.1281 319.479 68.3061 320.783C73.4542 322.5 79.0834 320.227 78.4113 311.477C78.3992 311.294 78.251 310.797 78.0812 310.226C77.8325 309.391 77.5373 308.399 77.5551 308.011C77.625 306.637 77.264 305.479 76.3112 304.752C75.2847 302.576 73.2731 301.173 69.9452 301.388ZM69.2039 316.803C66.6698 314.909 66.7588 306.072 69.6509 305.482C71.4508 306.866 73.0938 308.863 73.648 312.712C73.0279 314.832 71.7186 316.059 70.5738 317.131C70.4514 317.246 70.3308 317.359 70.2131 317.471C69.8863 317.285 69.5497 317.058 69.2039 316.803Z" fill="white"/>
<path fill-rule="evenodd" clip-rule="evenodd" d="M66.1267 311.651C65.8969 310.277 66.0536 308.738 66.7448 307.095C67.0582 306.351 67.8823 305.745 68.9131 305.338C70.1183 304.862 71.5924 304.626 72.522 304.565C74.7868 304.419 76.1554 305.367 76.8533 306.839C77.5015 307.33 77.7469 308.114 77.6989 309.043C77.6784 309.484 78.2605 311.082 78.2806 311.387C78.7356 317.304 74.9041 318.843 71.4011 317.683C70.0702 318.36 68.7865 318.472 67.8204 317.754C66.9538 317.113 66.2885 315.76 66.1361 313.375C66.0955 312.76 66.0924 312.185 66.1267 311.651ZM72.3401 307.754C70.3302 308.149 70.2461 313.951 72.0012 315.188C72.2407 315.355 72.4739 315.503 72.7004 315.624C73.5488 314.859 74.1814 314.241 74.5404 312.975C74.8993 311.71 73.5866 308.658 72.3401 307.754Z" fill="black"/>
<path d="M203.288 456.561C202.694 456.152 201.881 456.304 201.473 456.898C201.064 457.493 201.215 458.306 201.81 458.714C202.463 459.163 203.04 459.577 203.55 459.961C203.001 460.398 202.453 460.898 201.884 461.468L200.729 462.641C200.221 463.153 200.224 463.98 200.737 464.487C201.249 464.995 202.076 464.992 202.584 464.479L203.969 463.079C204.533 462.53 205.062 462.07 205.593 461.688C206.774 462.859 207.134 463.717 207.153 464.571L207.153 464.79L207.16 464.923C207.227 465.582 207.783 466.096 208.459 466.096C209.18 466.096 209.765 465.511 209.765 464.79L209.765 464.533C209.741 463.202 209.271 461.937 208.007 460.491C208.842 460.242 209.783 460.103 210.924 460.043C211.644 460.006 212.197 459.391 212.16 458.671C212.122 457.951 211.508 457.397 210.787 457.435C208.807 457.539 207.267 457.869 205.896 458.496C205.324 458.028 204.675 457.537 203.942 457.017L203.288 456.561Z" fill="black"/>
<path d="M203.288 456.561C202.694 456.152 201.881 456.304 201.473 456.898C201.064 457.493 201.215 458.306 201.81 458.714C202.463 459.163 203.04 459.577 203.55 459.961C203.001 460.398 202.453 460.898 201.884 461.468L200.729 462.641C200.221 463.153 200.224 463.98 200.737 464.487C201.249 464.995 202.076 464.992 202.584 464.479L203.969 463.079C204.533 462.53 205.062 462.07 205.593 461.688C206.774 462.859 207.134 463.717 207.153 464.571L207.153 464.79L207.16 464.923C207.227 465.582 207.783 466.096 208.459 466.096C209.18 466.096 209.765 465.511 209.765 464.79L209.765 464.533C209.741 463.202 209.271 461.937 208.007 460.491C208.842 460.242 209.783 460.103 210.924 460.043C211.644 460.006 212.197 459.391 212.16 458.671C212.122 457.951 211.508 457.397 210.787 457.435C208.807 457.539 207.267 457.869 205.896 458.496C205.324 458.028 204.675 457.537 203.942 457.017L203.288 456.561Z" fill="black"/>
<path fill-rule="evenodd" clip-rule="evenodd" d="M247.922 420.782L248.822 422.782L250.874 423.371C250.985 423.403 251.049 423.519 251.017 423.629C251.007 423.664 250.989 423.695 250.964 423.72L249.405 425.272L249.492 427.505C249.497 427.62 249.407 427.717 249.292 427.722C249.253 427.723 249.214 427.714 249.18 427.694L247.415 426.689C247.36 426.658 247.294 426.653 247.235 426.677L245.348 427.426C245.24 427.469 245.119 427.417 245.076 427.309C245.062 427.273 245.058 427.233 245.065 427.195L245.462 424.996L244.135 423.242C244.065 423.15 244.083 423.019 244.175 422.95C244.203 422.928 244.237 422.914 244.272 422.909L246.385 422.612L247.555 420.757C247.617 420.659 247.746 420.63 247.843 420.691C247.878 420.713 247.905 420.745 247.922 420.782Z" fill="black"/>
<path fill-rule="evenodd" clip-rule="evenodd" d="M134.702 407.041L136.232 408.612L138.361 408.464C138.476 408.456 138.576 408.543 138.584 408.658C138.587 408.693 138.58 408.729 138.565 408.761L137.631 410.752L138.477 412.821C138.52 412.928 138.469 413.05 138.362 413.093C138.326 413.108 138.287 413.112 138.248 413.106L136.246 412.765C136.184 412.754 136.12 412.773 136.072 412.815L134.555 414.165C134.469 414.242 134.337 414.234 134.26 414.148C134.234 414.118 134.217 414.083 134.21 414.044L133.832 411.842L131.984 410.648C131.887 410.585 131.86 410.456 131.922 410.359C131.942 410.329 131.968 410.305 132 410.288L133.884 409.286L134.348 407.142C134.373 407.029 134.484 406.958 134.597 406.982C134.637 406.991 134.674 407.011 134.702 407.041Z" fill="black"/>
<path fill-rule="evenodd" clip-rule="evenodd" d="M110.815 263.825L111.715 265.825L113.767 266.414C113.878 266.446 113.942 266.561 113.91 266.672C113.9 266.707 113.882 266.738 113.856 266.763L112.298 268.314L112.385 270.547C112.39 270.663 112.3 270.76 112.185 270.764C112.146 270.766 112.107 270.757 112.073 270.737L110.308 269.732C110.253 269.701 110.187 269.696 110.128 269.72L108.241 270.469C108.133 270.512 108.012 270.459 107.969 270.352C107.955 270.316 107.951 270.276 107.958 270.238L108.355 268.039L107.027 266.285C106.958 266.193 106.976 266.062 107.068 265.992C107.096 265.971 107.13 265.957 107.165 265.952L109.278 265.655L110.448 263.799C110.509 263.702 110.639 263.673 110.736 263.734C110.771 263.756 110.798 263.788 110.815 263.825Z" fill="black"/>
<path fill-rule="evenodd" clip-rule="evenodd" d="M110.606 265.817L110.988 266.666L111.86 266.917C111.907 266.93 111.934 266.979 111.921 267.026C111.916 267.041 111.909 267.054 111.898 267.065L111.236 267.724L111.273 268.672C111.275 268.721 111.237 268.763 111.188 268.765C111.171 268.765 111.155 268.761 111.14 268.753L110.391 268.326C110.367 268.313 110.339 268.311 110.314 268.321L109.512 268.639C109.467 268.657 109.415 268.635 109.397 268.589C109.391 268.574 109.389 268.557 109.392 268.541L109.561 267.607L108.997 266.862C108.968 266.823 108.975 266.767 109.014 266.738C109.026 266.728 109.041 266.723 109.056 266.72L109.953 266.594L110.45 265.806C110.476 265.765 110.531 265.752 110.572 265.778C110.587 265.788 110.599 265.801 110.606 265.817Z" fill="white"/>
<path fill-rule="evenodd" clip-rule="evenodd" d="M3.83018 351.569L4.73012 353.569L6.78163 354.158C6.89255 354.19 6.95669 354.305 6.92485 354.416C6.91503 354.451 6.89663 354.482 6.87141 354.507L5.31273 356.059L5.40004 358.292C5.40455 358.407 5.31473 358.504 5.19942 358.509C5.16041 358.51 5.12176 358.501 5.08784 358.481L3.32326 357.476C3.26811 357.445 3.20169 357.44 3.14271 357.464L1.25545 358.213C1.14819 358.256 1.02671 358.204 0.984114 358.096C0.969705 358.06 0.965731 358.02 0.97267 357.982L1.36995 355.783L0.0423718 354.029C-0.0272864 353.937 -0.00917031 353.806 0.0828381 353.737C0.111209 353.715 0.144617 353.701 0.179853 353.696L2.29335 353.399L3.46287 351.544C3.52442 351.446 3.65343 351.417 3.75105 351.478C3.78579 351.5 3.81333 351.532 3.83018 351.569Z" fill="black"/>
<path fill-rule="evenodd" clip-rule="evenodd" d="M94.2517 171.991L94.9054 172.447C95.639 172.967 98.3778 175.549 98.9506 176.017C100.32 175.389 101.859 175.058 103.84 174.955C104.561 174.917 105.175 175.471 105.213 176.191C105.25 176.911 104.697 177.526 103.977 177.563C102.835 177.623 101.894 177.762 101.059 178.011C102.324 179.458 102.794 180.723 102.818 182.053L102.818 182.309C102.818 183.031 102.233 183.615 101.512 183.615C100.836 183.615 100.28 183.101 100.213 182.443L100.206 182.309L100.206 182.091C100.187 181.237 99.8273 180.379 98.6465 179.208C98.1147 179.59 97.5862 180.049 97.0222 180.598L95.6365 181.999C95.1288 182.511 94.3019 182.515 93.7896 182.007C93.2773 181.5 93.2737 180.673 93.7814 180.16L94.9364 178.987C95.5059 178.418 96.0539 177.918 96.6026 177.481C95.639 175.281 92.0276 172.923 92.4359 172.328C92.8441 171.734 93.6571 171.583 94.2517 171.991Z" fill="black"/>
<path fill-rule="evenodd" clip-rule="evenodd" d="M346.227 322.607L348.006 323.889L350.077 323.374C350.189 323.346 350.303 323.414 350.331 323.526C350.339 323.56 350.339 323.596 350.33 323.631L349.756 325.754L350.948 327.644C351.009 327.742 350.98 327.871 350.883 327.932C350.849 327.953 350.811 327.964 350.772 327.965L348.742 327.977C348.678 327.977 348.618 328.006 348.579 328.056L347.319 329.649C347.248 329.739 347.116 329.755 347.026 329.683C346.995 329.659 346.972 329.627 346.959 329.59L346.203 327.487L344.177 326.632C344.07 326.587 344.021 326.464 344.065 326.358C344.079 326.325 344.101 326.297 344.129 326.275L345.811 324.96L345.896 322.769C345.901 322.653 345.998 322.564 346.113 322.568C346.154 322.57 346.194 322.583 346.227 322.607Z" fill="black"/>
<path fill-rule="evenodd" clip-rule="evenodd" d="M366.666 240.757L367.205 242.883L369.123 243.819C369.227 243.87 369.27 243.995 369.219 244.098C369.204 244.13 369.18 244.158 369.151 244.178L367.346 245.436L367.045 247.65C367.029 247.764 366.924 247.844 366.809 247.829C366.771 247.823 366.734 247.807 366.704 247.783L365.141 246.486C365.092 246.446 365.028 246.43 364.965 246.443L362.977 246.853C362.864 246.876 362.753 246.804 362.73 246.691C362.722 246.653 362.725 246.613 362.738 246.576L363.511 244.479L362.509 242.522C362.456 242.419 362.496 242.293 362.599 242.241C362.631 242.225 362.666 242.217 362.702 242.218L364.835 242.292L366.309 240.668C366.386 240.582 366.518 240.576 366.604 240.654C366.634 240.681 366.656 240.717 366.666 240.757Z" fill="black"/>
<path fill-rule="evenodd" clip-rule="evenodd" d="M320.121 155.203L320.66 157.328L322.578 158.265C322.682 158.315 322.725 158.44 322.674 158.544C322.659 158.576 322.635 158.603 322.606 158.624L320.802 159.881L320.5 162.096C320.484 162.21 320.379 162.29 320.264 162.274C320.226 162.269 320.189 162.253 320.159 162.228L318.596 160.932C318.547 160.892 318.483 160.875 318.42 160.888L316.432 161.299C316.319 161.322 316.208 161.249 316.185 161.136C316.177 161.098 316.18 161.058 316.193 161.022L316.966 158.925L315.964 156.968C315.911 156.865 315.952 156.739 316.054 156.686C316.086 156.67 316.121 156.662 316.157 156.664L318.29 156.738L319.764 155.114C319.841 155.028 319.973 155.022 320.059 155.099C320.089 155.127 320.111 155.163 320.121 155.203Z" fill="black"/>
<path fill-rule="evenodd" clip-rule="evenodd" d="M457.627 176.032L458.421 175.961C459.318 175.888 460.131 175.847 460.871 175.838C461.516 174.476 462.483 173.234 463.934 171.881C464.461 171.389 465.288 171.418 465.78 171.946C466.271 172.474 466.242 173.3 465.715 173.792C464.879 174.571 464.248 175.283 463.768 176.01C465.667 176.305 466.839 176.972 467.713 177.976L467.878 178.172C468.342 178.725 468.27 179.548 467.717 180.012C467.199 180.447 466.443 180.411 465.968 179.949L465.877 179.851L465.737 179.683C465.173 179.042 464.346 178.616 462.689 178.478C462.527 179.112 462.418 179.804 462.339 180.587L462.177 182.551C462.118 183.27 461.487 183.804 460.768 183.744C460.049 183.684 459.515 183.053 459.574 182.335L459.705 180.693C459.775 179.891 459.874 179.156 460.013 178.469C459.377 178.501 458.668 178.555 457.879 178.631C457.161 178.701 456.523 178.175 456.453 177.457C456.384 176.739 456.909 176.101 457.627 176.032Z" fill="black"/>
<path fill-rule="evenodd" clip-rule="evenodd" d="M352.169 266.183C351.933 266.78 351.416 267.607 350.816 268.389L351.333 268.926L351.933 269.565L352.067 269.693C352.125 269.745 352.171 269.776 352.204 269.785C352.398 269.813 352.533 269.992 352.507 270.187C352.479 270.378 352.301 270.516 352.107 270.488C351.931 270.484 351.293 270.235 350.532 269.617C350.394 269.505 350.257 269.376 350.117 269.235C349.679 269.724 349.235 270.145 348.852 270.406C348.289 270.795 347.801 270.826 347.568 270.668C347.338 270.515 347.118 270 347.491 268.959C347.55 268.77 347.751 268.671 347.937 268.73C348.123 268.789 348.225 268.987 348.167 269.175C348.11 269.368 348.102 269.545 348.102 269.686L348.318 269.539C348.394 269.484 348.472 269.422 348.544 269.35C348.806 269.093 349.097 268.78 349.39 268.442C348.926 267.902 348.453 267.269 348.07 266.538C347.884 266.181 347.735 265.803 347.594 265.405C347.496 265.183 347.597 264.922 347.82 264.823C348.042 264.725 348.303 264.827 348.401 265.049C348.827 265.942 349.372 266.711 349.909 267.37L350.088 267.586C350.578 266.945 350.998 266.297 351.189 265.803C351.295 265.534 351.6 265.4 351.87 265.503C352.142 265.61 352.276 265.914 352.169 266.183Z" fill="white"/>
<path d="M339.418 0.0219366C340.214 -0.116683 340.972 0.416102 341.11 1.21194C341.249 2.00778 340.716 2.76531 339.92 2.90393C336.135 3.56323 331.58 5.82575 327.644 9.46984C322.534 14.2017 318.764 20.8802 316.903 29.5979C315.404 36.6215 316.782 45.8689 320.701 53.5841C325.16 62.3617 332.327 68.3296 341.524 70.0095C350.966 71.734 358.954 70.663 367.876 67.4913L368.697 67.193C368.957 67.0943 369.422 66.9149 370.006 66.6898L370.007 66.6892C372.156 65.8603 375.91 64.4119 376.988 64.086C379.872 63.2137 381.84 63.2867 383.266 64.8071C383.819 65.3961 383.79 66.3218 383.201 66.8746C382.649 67.3928 381.8 67.3994 381.241 66.9128L381.133 66.8089C380.712 66.3604 379.842 66.3084 378.091 66.8106L377.835 66.8862C376.884 67.1735 373.408 68.514 371.24 69.3498L371.239 69.3502C370.4 69.674 369.757 69.9219 369.533 70.0035C359.897 73.521 351.25 74.7596 340.999 72.8872C330.84 71.0318 322.942 64.4556 318.093 54.909C313.878 46.6123 312.399 36.685 314.042 28.9871C316.029 19.6829 320.102 12.4671 325.657 7.32333C330.005 3.29683 335.076 0.778264 339.418 0.0219366Z" fill="black"/>
<path d="M349.311 7.08825C350.104 6.93299 350.872 7.44979 351.027 8.24255C351.183 9.03531 350.666 9.80384 349.873 9.9591C338.018 12.2808 328.484 21.3357 325.719 33.3127C324.783 37.3662 325.066 40.6622 325.985 41.9196L326.106 42.0773L326.116 42.0992L326.133 42.086C326.462 41.7892 326.846 41.0311 327.145 39.8558L327.207 39.5976C330.051 27.2795 339.442 17.7445 351.438 14.5424C352.218 14.334 353.02 14.7978 353.228 15.5783C353.436 16.3588 352.973 17.1604 352.192 17.3688C341.385 20.2537 332.894 28.7621 330.169 39.7883L330.057 40.2556C329.054 44.6001 326.175 46.674 323.842 43.9239C322.135 41.9125 321.717 37.6445 322.869 32.6547C325.896 19.5431 336.333 9.6298 349.311 7.08825Z" fill="black"/>
<path d="M366.902 23.1429C366.845 22.3371 366.145 21.7305 365.339 21.788C351.103 22.8037 338.618 32.0501 333.651 45.6974C331.766 50.8759 331.654 55.4812 333.197 57.8298C335.267 60.98 338.523 59.193 340.147 54.7325L340.317 54.2748C344.71 42.7252 355.004 34.6587 367.054 32.9766C367.854 32.8649 368.412 32.1258 368.301 31.3258C368.189 30.5257 367.45 29.9676 366.65 30.0793C353.379 31.9317 342.064 40.9106 337.398 53.732L337.295 54.0059C336.776 55.3404 336.208 56.1449 335.777 56.3811L335.758 56.3939C335.755 56.3964 335.753 56.3987 335.751 56.4006C335.747 56.4037 335.744 56.4052 335.744 56.4052C335.741 56.4049 335.74 56.4008 335.736 56.391C335.727 56.3694 335.706 56.3202 335.642 56.2233L335.565 56.096C334.716 54.5909 334.845 50.97 336.4 46.6979C340.969 34.1448 352.452 25.6402 365.548 24.706C366.353 24.6485 366.96 23.9487 366.902 23.1429Z" fill="black"/>
<path d="M373.273 37.3623C374.079 37.3048 374.779 37.9114 374.836 38.7172C374.893 39.5229 374.287 40.2228 373.481 40.2802C364.3 40.9353 356.249 46.8979 353.045 55.6992C352.096 58.3082 351.919 60.5388 352.259 61.6685L352.301 61.7946L352.365 61.7013C352.529 61.4536 352.713 61.0978 352.893 60.6364L352.97 60.4322C356.354 51.1357 364.558 44.6251 374.18 43.2819C374.98 43.1703 375.719 43.7283 375.831 44.5284C375.942 45.3284 375.384 46.0675 374.584 46.1792C366.167 47.3542 358.972 52.972 355.873 61.0214L355.719 61.4327C354.464 64.8802 351.751 66.3695 350.016 63.7297C348.827 61.9208 348.911 58.5059 350.296 54.6987C353.898 44.8032 362.951 38.0987 373.273 37.3623Z" fill="black"/>
<path d="M380.982 49.1473C380.925 48.3415 380.225 47.7349 379.419 47.7924C372.506 48.2856 366.443 52.7758 364.031 59.4029C363.08 62.0155 363.022 64.3933 363.902 65.7322C365.344 67.9273 367.585 66.6973 368.519 64.1323L368.646 63.7956C370.611 58.7771 375.114 55.2783 380.379 54.5434C381.179 54.4317 381.737 53.6926 381.625 52.8925C381.514 52.0924 380.774 51.5344 379.974 51.6461L379.604 51.7018C373.937 52.6147 369.046 56.2119 366.511 61.3891L366.422 61.5733L366.477 61.3634C366.559 61.0579 366.659 60.7364 366.78 60.4034C368.794 54.8705 373.855 51.1222 379.627 50.7104C380.433 50.6529 381.039 49.9531 380.982 49.1473Z" fill="black"/>
<path fill-rule="evenodd" clip-rule="evenodd" d="M373.273 37.3623C374.079 37.3048 374.779 37.9114 374.836 38.7172C374.893 39.5229 374.287 40.2228 373.481 40.2802C364.3 40.9353 356.249 46.8979 353.045 55.6992C352.096 58.3082 351.919 60.5388 352.259 61.6685L352.301 61.7946L352.365 61.7013C352.529 61.4536 352.713 61.0978 352.893 60.6364L352.97 60.4322C356.354 51.1357 364.558 44.6251 374.18 43.2819C374.98 43.1703 375.719 43.7283 375.831 44.5284C375.942 45.3284 375.384 46.0675 374.584 46.1792C366.167 47.3542 358.972 52.972 355.873 61.0214L355.719 61.4327C354.464 64.8802 351.751 66.3695 350.016 63.7297C348.827 61.9208 348.911 58.5059 350.296 54.6987C353.898 44.8032 362.951 38.0987 373.273 37.3623Z" fill="black"/>
<path d="M282.178 227.801C312.843 213.458 338.482 205.881 354.444 204.49C359.332 204.064 361.549 206.759 360.311 211.142C359.392 214.397 356.593 218.864 352.303 224.153C344.823 233.374 334.961 241.265 325.14 248.604C340.852 234.102 344.859 228.036 349.705 222.062L350.466 221.112C354.059 216.569 356.381 212.774 357.096 210.241L357.198 209.857C357.644 208.029 357.127 207.596 354.735 207.805C339.134 209.164 313.593 216.756 283.041 231.08C252.438 245.427 251.563 242.121 282.178 227.801Z" fill="white"/>
<path d="M141.932 181.401L142.156 181.934C143.709 185.618 145.324 189.266 147.156 193.244L147.868 194.788C147.635 194.945 147.328 195.111 146.99 195.259C146.505 195.47 146.013 195.619 145.643 195.669L145.525 195.681L145.347 195.467C143.962 193.763 142.355 190.866 141.194 187.986C140.575 186.452 140.135 185.045 139.936 183.963C139.855 183.523 139.818 183.153 139.821 182.872L139.829 182.687C139.832 182.642 139.832 182.619 139.821 182.616L139.865 182.586C140.112 182.416 140.744 182.046 141.683 181.536L141.932 181.401Z" fill="white"/>
<path fill-rule="evenodd" clip-rule="evenodd" d="M180.697 168.057C181.656 166.882 182.901 167.057 184.477 168.013L184.882 168.269L186.016 169.02C186.332 169.223 186.47 169.293 186.655 169.367C187.084 169.538 187.293 170.024 187.122 170.453C186.951 170.882 186.465 171.091 186.036 170.92L185.883 170.857C185.594 170.733 185.375 170.604 184.788 170.214L183.975 169.673C183.841 169.585 183.725 169.512 183.61 169.443C182.668 168.871 182.24 168.811 181.991 169.115C181.835 169.306 181.873 169.715 182.184 170.552L182.525 171.43C183.203 173.23 183.207 174.035 181.999 174.721C180.96 175.313 180.427 175.036 178.934 173.573L178.571 173.215C177.615 172.26 177.114 171.927 176.791 171.996C176.684 172.018 176.559 172.094 176.406 172.257C176.227 172.448 176.176 173.059 176.286 174.142L176.454 175.557C176.651 177.286 176.572 177.734 175.858 178.212C174.875 178.87 173.567 178.126 171.142 175.949C170.798 175.64 170.77 175.112 171.079 174.769C171.387 174.425 171.915 174.397 172.259 174.705C173.295 175.636 174.078 176.242 174.625 176.553L174.747 176.62L174.85 176.671L174.852 176.566L174.845 176.316C174.835 176.111 174.809 175.863 174.758 175.441L174.652 174.573C174.448 172.813 174.512 171.833 175.187 171.114C175.562 170.714 175.983 170.458 176.445 170.36C177.519 170.133 178.282 170.592 179.548 171.83L180.188 172.459C180.877 173.122 181.133 173.291 181.173 173.268C181.329 173.179 181.306 172.902 180.882 171.815L180.697 171.344C180.106 169.826 179.994 168.917 180.697 168.057Z" fill="black"/>
<path d="M271.944 32.0127L271.151 32.0836C270.433 32.153 269.907 32.7913 269.976 33.5092C270.018 33.9433 270.268 34.307 270.618 34.5115L270.48 34.6096C269.891 35.0259 269.751 35.8408 270.167 36.4298C270.584 37.0188 271.399 37.1588 271.988 36.7425L273.33 35.7921C273.291 36.0995 273.257 36.4168 273.228 36.7454L273.098 38.3864C273.038 39.1052 273.572 39.7363 274.291 39.796C275.01 39.8556 275.641 39.3214 275.701 38.6026L275.862 36.6389C275.904 36.2186 275.955 35.8247 276.019 35.4519C276.477 36.3219 276.569 36.9921 276.472 37.626L276.434 37.8416L276.417 37.9742C276.369 38.6344 276.827 39.2371 277.493 39.3545C278.204 39.4797 278.881 39.0054 279.006 38.2951L279.051 38.0422C279.189 37.1609 279.126 36.2736 278.769 35.2887C278.956 35.4229 279.116 35.5721 279.26 35.7353L279.401 35.903L279.492 36.0009C279.966 36.4624 280.722 36.4986 281.24 36.0639C281.793 35.6003 281.865 34.7766 281.401 34.2241L281.236 34.0275C281.178 33.9601 281.118 33.8943 281.056 33.83C281.738 33.8697 282.342 33.373 282.427 32.6855C282.515 31.9696 282.006 31.3179 281.29 31.2299C280.059 31.0785 278.982 31.0444 277.992 31.1334C278.347 30.7152 278.759 30.2905 279.238 29.8436C279.766 29.3518 279.795 28.5254 279.303 27.9978C278.811 27.4702 277.985 27.4412 277.457 27.933C276.572 28.7581 275.867 29.5421 275.305 30.3372C275.088 30.1072 274.86 29.8713 274.621 29.6293L274.057 29.0666C273.542 28.5613 272.715 28.5689 272.21 29.0836C271.705 29.5983 271.712 30.4251 272.227 30.9304C272.584 31.2813 272.914 31.6133 273.218 31.9279C272.813 31.9484 272.389 31.9766 271.944 32.0127Z" fill="black"/>
<path d="M221.614 41.0616C221.301 40.7402 220.793 40.7491 220.48 41.0816C220.167 41.4141 220.168 41.9442 220.481 42.2656C220.779 42.5704 221.045 42.853 221.282 43.1159C220.78 43.3288 220.276 43.6046 219.736 43.945L218.917 44.4704C218.557 44.6994 218.479 45.1577 218.742 45.4939C219.004 45.8301 219.509 45.917 219.869 45.688L220.85 45.0614C221.363 44.7472 221.825 44.5096 222.29 44.3428C222.996 45.3245 223.144 45.9538 223.054 46.5372L223.03 46.6756L223.019 46.7607C222.986 47.1842 223.264 47.5683 223.672 47.6403C224.108 47.7171 224.526 47.4097 224.606 46.9536L224.635 46.7913C224.769 45.945 224.625 45.0925 224.019 44.0393C224.43 44.033 224.879 44.0635 225.387 44.1284C225.83 44.1851 226.228 43.9043 226.275 43.5015C226.322 43.0986 226.002 42.7261 225.559 42.6695C224.588 42.5454 223.774 42.5312 223.029 42.6319C222.723 42.255 222.367 41.8526 221.958 41.4195L221.614 41.0616Z" fill="black"/>
<path fill-rule="evenodd" clip-rule="evenodd" d="M53.313 258.782L54.213 260.782L56.2645 261.371C56.3754 261.403 56.4395 261.518 56.4077 261.629C56.3979 261.664 56.3795 261.695 56.3543 261.72L54.7956 263.271L54.8829 265.505C54.8874 265.62 54.7976 265.717 54.6823 265.721C54.6433 265.723 54.6046 265.714 54.5707 265.694L52.8061 264.689C52.751 264.658 52.6846 264.653 52.6256 264.677L50.7383 265.426C50.6311 265.469 50.5096 265.416 50.467 265.309C50.4526 265.273 50.4486 265.233 50.4556 265.195L50.8528 262.996L49.5253 261.242C49.4556 261.15 49.4737 261.019 49.5657 260.95C49.5941 260.928 49.6275 260.914 49.6627 260.909L51.7762 260.612L52.9457 258.756C53.0073 258.659 53.1363 258.63 53.2339 258.691C53.2687 258.713 53.2962 258.745 53.313 258.782Z" fill="black"/>
<path fill-rule="evenodd" clip-rule="evenodd" d="M65.3131 147.782L66.213 149.782L68.2645 150.371C68.3755 150.403 68.4396 150.518 68.4077 150.629C68.3979 150.663 68.3795 150.695 68.3543 150.72L66.7956 152.271L66.8829 154.504C66.8875 154.62 66.7976 154.717 66.6823 154.721C66.6433 154.723 66.6046 154.714 66.5707 154.694L64.8061 153.689C64.751 153.658 64.6846 153.653 64.6256 153.677L62.7383 154.426C62.6311 154.469 62.5096 154.416 62.467 154.309C62.4526 154.273 62.4486 154.233 62.4556 154.195L62.8528 151.996L61.5253 150.242C61.4556 150.15 61.4737 150.019 61.5658 149.949C61.5941 149.928 61.6275 149.914 61.6627 149.909L63.7762 149.612L64.9458 147.756C65.0073 147.659 65.1363 147.63 65.2339 147.691C65.2687 147.713 65.2962 147.745 65.3131 147.782Z" fill="black"/>
<path d="M92.495 324.507C93.1653 324.02 94.1033 324.169 94.5901 324.839C95.0768 325.51 73.8555 342.795 65.6232 350.716L64.6663 351.644C59.9642 356.245 56.4973 360.229 54.5432 363.378C52.4724 366.716 52.3396 368.528 53.6765 369.269C58.7486 372.08 66.0413 373.45 76.4858 371.72L77.5591 371.537C81.5348 370.84 111.441 364.318 110.968 364.491L110.784 364.546C109.841 364.796 97.6636 369.007 93.4606 370.077L92.9526 370.206C86.5273 371.822 81.4993 372.93 76.9761 373.679C65.9235 375.51 58.0267 375.11 52.2223 371.893C48.8729 370.037 49.1396 366.397 51.994 361.797C54.2391 358.178 58.1881 353.707 63.543 348.554C71.8855 340.527 83.6193 330.952 92.495 324.507Z" fill="white"/>
<path fill-rule="evenodd" clip-rule="evenodd" d="M248.749 116.578C249.115 116.334 249.606 116.438 249.846 116.81L255.261 125.2C255.501 125.572 255.399 126.071 255.033 126.314C254.667 126.558 254.175 126.454 253.935 126.082L248.52 117.692C248.281 117.32 248.383 116.821 248.749 116.578Z" fill="black"/>
<path fill-rule="evenodd" clip-rule="evenodd" d="M249.014 110.378C249.433 110.131 249.987 110.256 250.251 110.656L253.978 116.3C254.242 116.7 254.116 117.225 253.697 117.472C253.278 117.719 252.723 117.594 252.459 117.194L248.733 111.55C248.468 111.15 248.594 110.625 249.014 110.378Z" fill="black"/>
</svg>
