<svg viewBox="0 0 588 391" fill="none" xmlns="http://www.w3.org/2000/svg">
<path fill-rule="evenodd" clip-rule="evenodd" d="M493.572 51.1218C503.924 50.3223 515.082 50.8394 523.518 56.8923C531.954 62.9452 535.786 76.2366 528.859 83.971C536.69 80.9093 545.895 86.1023 549.818 93.5397C553.741 100.977 553.535 109.888 552.355 118.214C549.432 138.832 541.027 158.647 528.234 175.079C527.646 176.811 527.058 178.544 526.47 180.276C541.591 184.174 600.637 207.105 584.683 263.635C568.729 320.165 499.055 341.681 491.923 348.447C479.493 360.24 460.519 361.046 443.394 360.502C401.285 359.166 359.306 353.815 318.209 344.544C314.715 343.756 310.289 343.276 308.275 346.238C293.697 367.672 263.211 369.588 237.357 367.722C204.146 365.326 171.127 360.289 138.712 352.675C120.326 348.356 100.801 342.343 89.3471 327.326C75.994 309.819 77.5361 285.546 79.7028 263.635C70.9262 268.515 56.3696 271.158 36.0331 271.563C24.0595 269.121 16.5906 264.781 13.6266 258.543C0.0721931 230.014 -4.5759 193.252 12.3031 165.132C14.3307 161.754 16.6701 158.425 19.9717 156.276C23.472 153.997 27.7394 153.248 31.8999 152.879C48.3101 151.426 65.1473 155.256 79.3136 163.666C79.1871 117.623 79.0606 71.5797 78.9341 25.5367C78.9269 22.9 78.9636 20.1021 80.3693 17.8714C82.4025 14.6449 86.5675 13.6448 90.3164 12.945C124.419 6.57886 158.908 2.28539 193.53 0.0961377C204.843 -0.619182 220.325 2.52919 220.376 13.8643C220.573 57.2732 220.771 100.682 220.968 144.091C221.015 154.423 221.679 153.559 226.519 150.565C223.476 150.881 224.155 145.719 226.461 143.709C235.07 136.205 247.614 135.929 259.034 136.045C284.578 136.307 310.121 136.568 335.665 136.83C360.414 137.083 390.095 140.222 401.3 162.291C400.974 155.732 406.919 149.542 413.486 149.603C420.647 149.669 426.637 143.456 428.727 136.606C430.817 129.756 429.895 122.396 428.955 115.296C417.407 104.115 414.384 85.1078 421.893 70.8957C429.402 56.6836 446.807 48.4692 462.551 51.7068C472.721 53.7981 483.22 51.9212 493.572 51.1218ZM197.175 264.054C196.835 273.194 196.475 282.456 193.786 291.197L197.175 264.054ZM186.592 151.891C188.969 152.587 191.911 154.695 190.663 156.834C200.991 157.866 197.907 157.388 198.371 145.218C198.843 132.868 198.882 119.213 190.797 109.866C183.643 101.595 171.976 99.0083 161.08 98.0781C148.362 96.9923 135.507 97.514 122.919 99.6269C116.777 100.658 110.124 102.434 106.56 107.541C104.565 110.4 103.831 113.929 103.245 117.365C100.94 130.881 100.22 144.666 101.105 158.348C127.583 146.029 158.564 143.689 186.592 151.891ZM416.384 242.626C417.031 241.972 418.012 241.813 418.923 241.688C422.562 241.187 426.201 240.687 429.839 240.186C421.489 236.414 416.427 227.455 414.915 218.418C413.403 209.381 414.88 200.14 416.371 191.1C411.029 197.044 411.414 206.013 412.114 213.974C413.646 231.399 415.737 243.28 416.384 242.626ZM347.682 328.454C348.397 326.126 350.833 324.876 352.617 323.218C355.828 320.234 357.021 315.723 358.068 311.466C361.687 296.757 365.329 281.869 365.284 266.721C365.274 263.512 365.111 260.215 366.174 257.187C367.236 254.159 369.899 251.42 373.108 251.405C376.492 251.388 377.3 246.694 376.997 243.324C375.954 231.703 374.911 220.081 373.868 208.46C373.535 204.748 373.195 201.002 372.069 197.449C367.904 184.316 351.855 176.374 338.888 181.031C337.3 181.601 336.876 183.606 336.696 185.283C334.7 203.872 332.704 222.461 330.708 241.049C330.354 244.352 334.618 246.46 337.838 245.642C341.057 244.824 343.515 242.309 346.299 240.496C349.082 238.684 353.006 237.641 355.562 239.762C358.451 242.16 362.728 239.496 365.237 236.704C367.747 233.912 371.015 230.546 374.584 231.71C370.397 235.715 366.211 239.72 362.024 243.724C360.636 245.053 359.412 247.705 361.166 248.489C365.976 246.783 370.325 243.793 373.64 239.913C375.173 239.864 375.245 242.271 374.39 243.544C371.167 248.341 363.581 249.409 361.628 254.848C357.069 267.543 342.85 275.975 329.524 273.887C326.791 273.459 325.428 277.054 325.099 279.802C323.787 290.756 322.475 301.71 321.163 312.664C320.862 315.183 320.58 317.849 321.618 320.165C323.349 324.03 327.979 325.492 332.084 326.532C337.51 327.907 342.999 329.288 348.545 329.889C350.88 330.141 350.871 329.286 347.682 328.454ZM131.507 308.37C139.26 310.967 147.466 311.847 155.597 312.71C159.045 313.077 162.717 313.405 165.81 311.838C169.451 309.994 171.391 305.997 172.957 302.228C181.69 281.208 186.676 258.638 187.61 235.896C187.743 232.665 183.606 231.238 180.379 231.021C154.617 229.292 129.979 240.617 106.647 251.676C105.529 252.206 104.332 252.811 103.78 253.918C103.368 254.744 103.389 255.71 103.42 256.632C103.838 269.196 104.365 282.21 109.984 293.456C111.502 296.492 113.432 299.415 116.165 301.429C117.82 302.65 119.715 303.497 121.594 304.333C124.855 305.785 128.122 307.237 131.507 308.37ZM298.164 261.871C301.598 243.404 304.018 224.748 305.41 206.016C305.886 199.607 306.235 193.092 304.849 186.818C303.464 180.543 300.122 174.443 294.658 171.061C291.291 168.977 287.35 168.042 283.452 167.346C276.338 166.077 269.101 165.502 261.876 165.63C255.501 165.743 248.81 166.52 243.605 170.204C241.884 171.422 240.321 173.017 239.692 175.029C239.064 177.042 239.593 179.515 241.339 180.697C245.752 183.686 247.55 189.277 248.377 194.542C249.204 199.806 249.403 205.319 251.802 210.078C253.039 212.532 254.813 214.673 256.674 216.696C266.761 227.664 279.919 235.778 294.248 239.867C296.767 240.586 299.972 242.142 299.44 244.707C307.365 249.706 298.032 262.58 298.164 261.871ZM276.324 316.339C279.242 314.567 281.22 311.616 282.962 308.68C290.351 296.22 295.197 282.259 297.115 267.9C270.535 267.78 244.113 257.752 224.148 240.204C223.464 242.947 223.595 245.817 223.688 248.642C224.271 266.277 223.225 283.966 220.567 301.409C219.933 305.567 222.417 309.725 225.832 312.181C229.247 314.636 233.454 315.691 237.584 316.487C246.895 318.28 256.41 319.016 265.886 318.674C269.49 318.544 273.242 318.212 276.324 316.339ZM444.053 164.225C442.504 160.491 441.341 156.281 438.127 153.83C434.912 151.378 428.86 152.578 428.671 156.616C431.852 156.03 434.284 159.957 433.742 163.146C433.2 166.335 430.882 168.87 429.04 171.529C426.495 175.203 424.754 179.362 423.032 183.487C418.935 193.3 417.341 204.146 418.439 214.723C419.086 220.95 420.793 227.346 425.004 231.98C429.214 236.613 436.432 238.93 441.98 236.03C446.746 233.539 449.123 228.048 450.216 222.783C451.309 217.518 451.503 212.007 453.568 207.042C457.377 197.882 466.77 192.349 476.062 188.875C462.094 186.977 449.456 177.245 444.053 164.225ZM405.427 174.133C406.048 176.534 406.908 178.873 407.99 181.105C408.64 177.96 409.683 174.897 411.087 172.009C409.667 171.847 408.236 171.77 406.807 171.778C406.46 171.78 406.093 171.793 405.8 171.979C405.139 172.398 405.231 173.376 405.427 174.133ZM237.06 171.661C236.181 172.369 235.665 173.893 236.593 174.535C238.015 173.111 239.437 171.687 240.859 170.264C240.565 169.899 240.138 169.645 239.677 169.56C239.113 170.538 237.94 170.954 237.06 171.661Z" fill="white"/>
<path d="M483.288 161.461C486.326 161.461 488.788 158.999 488.788 155.961C488.788 152.924 486.326 150.461 483.288 150.461C480.25 150.461 477.788 152.924 477.788 155.961C477.788 158.999 480.25 161.461 483.288 161.461Z" fill="#FFB61D"/>
<path d="M451.788 155.961C453.445 155.961 454.788 154.618 454.788 152.961C454.788 151.305 453.445 149.961 451.788 149.961C450.131 149.961 448.788 151.305 448.788 152.961C448.788 154.618 450.131 155.961 451.788 155.961Z" fill="#FFB61D"/>
<path fill-rule="evenodd" clip-rule="evenodd" d="M167.714 77.038C176.713 77.0951 185.713 77.1522 194.713 77.2093C195.134 77.212 195.587 77.2245 195.927 77.4738C196.621 77.9834 196.344 79.177 195.629 79.6574C194.914 80.1378 193.988 80.1174 193.127 80.0875C185.207 79.8126 177.263 80.224 169.414 81.3155C168.22 81.4814 166.961 81.6558 165.844 81.202C164.728 80.7482 163.874 79.4115 164.388 78.3213C164.924 77.1824 166.454 77.03 167.714 77.038ZM137.618 76.1541C138.188 76.7227 137.915 77.7663 137.281 78.2633C136.648 78.7602 135.799 78.8597 134.998 78.9408C127.019 79.7487 119.04 80.5566 111.062 81.3644C110.118 81.46 109.142 81.5525 108.239 81.2619C107.337 80.9713 106.52 80.1908 106.499 79.2426C106.477 78.2644 107.307 77.4337 108.235 77.1215C109.162 76.8094 110.169 76.8968 111.145 76.9736C119.32 77.6167 127.575 77.2458 135.659 75.872C136.337 75.7569 137.131 75.6692 137.618 76.1541ZM136.5 60.8385C137.096 61.3196 136.884 62.3509 136.286 62.8294C135.688 63.308 134.873 63.3874 134.11 63.4476L108.486 65.4693C107.527 65.5449 106.533 65.6163 105.629 65.289C104.724 64.9616 103.93 64.1187 103.982 63.1579C104.035 62.1845 104.934 61.4295 105.881 61.1996C106.828 60.9698 107.82 61.1414 108.784 61.284C117.481 62.5693 126.324 61.3974 135.079 60.6014C135.57 60.5567 136.116 60.5289 136.5 60.8385ZM172.285 55.7619C177.632 56.4449 183.052 56.5487 188.421 56.0711C190.555 55.8812 193.136 55.7922 194.348 57.5588C192.909 58.7224 190.931 58.8875 189.083 59.004C182.961 59.3898 176.839 59.7757 170.717 60.1616C169.32 60.2496 167.579 60.1439 167.004 58.8682C166.488 57.7234 167.396 56.3468 168.563 55.8832C169.73 55.4195 171.04 55.6028 172.285 55.7619ZM126.097 49.2161C126.103 50.1409 124.944 50.5399 124.029 50.674L110.574 52.6462C109.613 52.787 108.621 52.9262 107.683 52.6758C106.745 52.4254 105.868 51.6793 105.781 50.7125C105.673 49.529 106.784 48.5303 107.944 48.2724C109.104 48.0146 110.306 48.2843 111.485 48.4361C115.549 48.9597 119.649 48.0665 123.745 47.9258C124.747 47.8914 126.089 48.2134 126.097 49.2161ZM191.022 45.9953C192.063 46.1117 193.132 46.7328 193.41 47.7428C191.561 49.1411 189.117 49.3956 186.808 49.6003C182.856 49.9506 178.903 50.3009 174.951 50.6513C173.558 50.7747 172.166 50.8981 170.774 51.0215C169.755 51.1117 168.696 51.1968 167.74 50.8355C166.784 50.4741 165.967 49.5254 166.11 48.5133C166.334 46.9183 168.427 46.5043 170.038 46.5389C176.012 46.6673 182.062 47.569 187.916 46.3662C188.942 46.1553 189.981 45.8789 191.022 45.9953ZM196.271 30.9078C166.984 34.8568 136.956 32.8119 108.073 39.0593C106.36 39.4298 103.969 39.4481 103.526 37.7523C103.566 35.7543 106.15 35.0331 108.143 34.891C136.242 32.887 164.34 30.8831 192.438 28.8792C194.087 28.7616 196.4 29.2602 196.271 30.9078Z" fill="#E7EAEE"/>
<path fill-rule="evenodd" clip-rule="evenodd" d="M93.2498 334.49C93.5559 338.033 88.6717 339.233 85.1154 339.247C66.6322 339.32 48.1675 342.749 30.8899 349.315C28.2531 350.317 25.4311 351.579 24.1477 354.091C22.4484 357.418 24.3031 361.674 27.3094 363.891C30.3158 366.108 34.153 366.784 37.8397 367.384C133.667 382.988 230.92 389.828 327.988 387.79L329.548 387.756C340.743 387.497 352.168 386.896 362.425 382.463C353.934 376.512 345.444 370.562 336.953 364.611C351.651 361.675 366.816 363.766 381.731 365.239C415.868 368.609 450.331 368.677 484.481 365.444C482.077 369.286 476.791 369.819 472.26 369.916C429.303 370.841 386.293 369.315 343.509 365.348C349.091 369.021 354.673 372.695 360.255 376.368C362.278 377.699 364.516 379.389 364.633 381.808C364.808 385.443 360.342 387.256 356.752 387.85C344.838 389.818 332.718 390.132 320.644 390.308C226.345 391.687 131.929 384.939 38.785 370.165C34.24 369.444 29.5308 368.639 25.7412 366.028C21.9515 363.418 19.3679 358.454 20.9604 354.137C22.5444 349.842 27.3636 347.826 31.7147 346.404C51.6263 339.901 72.3499 335.888 93.2498 334.49ZM220.376 13.8643C220.573 57.2732 220.771 100.682 220.968 144.091C221.015 154.423 223.05 167.497 233.042 170.128C246.848 163.754 262.41 161.237 277.522 162.931C286.173 163.902 295.156 166.517 301.013 172.957C309.046 181.792 309.059 195.097 308.196 207.008C306.448 231.149 303.004 255.168 297.899 278.828C301.955 278.572 306.092 280.199 308.886 283.15C304.582 285.118 299.455 285.201 295.09 283.371C298.088 299.621 284.849 315.654 268.994 320.309C253.139 324.964 235.934 320.575 221.025 313.449C219.626 318.895 226.911 322.094 232.472 322.916C246.59 325.003 260.707 327.09 274.825 329.176C257.39 329.7 239.898 328.273 222.779 324.93C219.626 329.394 226.765 333.902 232.16 334.775C246.469 337.091 260.779 339.406 275.089 341.722C258.926 341.614 242.77 340.537 226.737 338.497C236.934 347.695 250.853 352.641 264.568 351.939C256.831 354.483 248.236 354.33 240.595 351.512C250.154 364.313 269.711 366.684 283.993 359.524C298.275 352.364 307.6 337.716 312.161 322.405C316.723 307.094 317.166 290.912 317.975 274.956C319.467 245.504 322.318 216.091 327.477 187.055C330.952 167.503 339.486 144.189 359.152 141.426C324.116 139.811 289.047 138.941 253.974 138.814C243.317 138.776 230.078 140.519 226.519 150.565C223.476 150.881 224.155 145.719 226.461 143.709C235.07 136.205 247.614 135.929 259.034 136.045L335.665 136.83C360.414 137.083 390.095 140.222 401.3 162.291C400.974 155.732 406.919 149.542 413.486 149.603C420.647 149.669 426.637 143.456 428.727 136.606C430.817 129.756 429.895 122.396 428.955 115.296C417.407 104.115 414.384 85.1078 421.893 70.8957C424.017 66.8759 427.155 57.2911 444.68 51.1218C456.364 47.0089 467.913 47.4611 479.327 52.4784C500.763 48.3334 515.493 49.8047 523.518 56.8923C535.555 67.5238 535.786 76.2366 528.859 83.971C536.69 80.9093 545.895 86.1023 549.818 93.5397C553.741 100.977 553.535 109.888 552.355 118.214C549.432 138.832 541.027 158.647 528.234 175.079L526.47 180.276C557.417 188.254 582.452 215.607 587.665 247.138C577.376 223.947 563.448 199.387 539.451 191.154C534.036 196.834 528.468 202.761 525.925 210.185C523.382 217.609 524.756 226.989 531.204 231.461C527.154 232.4 523.104 233.339 519.054 234.278C520.402 236.669 521.75 239.06 523.099 241.451C507.795 253.085 506.034 275.09 506.127 294.313C506.22 313.537 505.87 335.216 491.923 348.447C479.493 360.24 460.519 361.046 443.394 360.502C401.285 359.166 359.305 353.815 318.209 344.544C314.715 343.756 310.289 343.276 308.275 346.238C293.697 367.672 263.211 369.588 237.357 367.722C204.146 365.326 171.127 360.289 138.712 352.675C120.326 348.356 100.801 342.343 89.3471 327.326C75.994 309.819 77.536 285.546 79.7028 263.635C66.5379 270.955 50.9308 273.788 36.0331 271.563C51.7369 261.297 59.3521 241.656 59.4952 222.894C59.6383 204.133 53.3758 185.947 46.4085 168.527C31.0574 177.431 22.9805 196.199 24.1816 213.904C25.3827 231.61 34.7769 248.044 47.3811 260.537C31.8435 250.731 21.5623 233.066 20.7113 214.713C19.8603 196.359 28.4628 177.818 43.0264 166.617C40.6992 158.659 28.6929 157.686 22.4003 163.086C16.1077 168.485 14.1328 177.249 12.5142 185.382C9.52327 200.408 6.52005 215.785 8.69316 230.951C10.8663 246.117 19.2439 261.298 33.2823 267.435C26.7217 272.164 17.9836 265.356 13.6265 258.543C-4.04233 230.912 -4.57592 193.252 12.3031 165.132C14.3306 161.754 16.6701 158.425 19.9717 156.276C23.472 153.997 27.7394 153.248 31.8999 152.879C48.3101 151.426 65.1473 155.256 79.3136 163.666C79.1871 117.623 79.0606 71.5797 78.9341 25.5367C78.9268 22.9 78.9636 20.1021 80.3693 17.8714C82.4025 14.6449 86.5675 13.6448 90.3164 12.945C124.419 6.57886 158.908 2.28539 193.53 0.0961377C204.843 -0.619182 220.325 2.52919 220.376 13.8643ZM197.253 2.87023C160.545 4.59816 123.97 9.13588 87.9532 16.4306C86.4203 16.7411 84.7972 17.1036 83.683 18.2011C82.1652 19.6961 82.0479 22.0651 82.0279 24.1954C81.5978 70.0417 81.7796 115.894 82.5734 161.735C86.9811 160.636 91.3887 159.537 95.7964 158.438C94.0734 149.032 92.3431 139.498 93.0798 129.963C93.8165 120.428 97.3155 110.732 104.512 104.434C112.301 97.6181 123.171 95.6922 133.496 94.9672C143.424 94.2701 153.413 94.4316 163.314 95.4494C173.421 96.4883 184.068 98.7325 191.36 105.808C201.892 116.029 202.063 132.587 201.517 147.253C200.07 186.187 198.622 225.121 197.175 264.054C196.835 273.194 196.475 282.456 193.786 291.197C191.096 299.938 185.757 308.245 177.68 312.535C169.754 316.744 160.27 316.625 151.353 315.611C142.84 314.644 134.409 312.956 126.179 310.572C121.18 309.124 116.178 307.38 111.929 304.374C97.871 294.425 96.2089 274.573 95.8675 257.354C90.4694 256.379 85.1923 260.488 82.9634 265.5C80.7346 270.512 80.8333 276.207 80.9718 281.691C81.3171 295.369 81.8501 309.731 88.8329 321.498C99.6066 339.653 122.236 346.361 142.898 350.696C179.571 358.391 216.805 363.409 254.207 365.697C237.515 357.196 222.716 342.645 219.196 324.247C218.239 319.249 218.137 314.132 218.037 309.045C216.088 209.566 214.139 110.088 212.191 10.6091C212.067 4.31809 203.538 2.57437 197.253 2.87023ZM339.55 166.195C338.622 168.46 337.947 170.972 338.565 173.34C339.183 175.708 341.484 177.776 343.898 177.373C354.711 175.573 366.367 180.899 372.083 190.252C376.799 197.97 377.454 207.412 377.985 216.441L382.821 298.686C383.338 307.475 383.593 317.147 378.13 324.051C371.043 333.01 357.735 333.308 346.367 332.196C336.986 331.279 327.118 329.718 319.835 323.735C320.093 327.218 319.078 330.78 317.023 333.604C314.488 337.089 318.581 341.675 322.564 343.323C327.429 345.335 332.718 346.037 337.939 346.714C361.85 349.818 385.776 352.811 409.716 355.693C428.142 357.911 446.863 360.059 465.182 357.082C453.593 353.83 442.503 348.804 432.418 342.233C427.387 338.954 422.522 335.209 419.09 330.28C413.489 322.235 412.309 312.013 411.376 302.254C408.605 273.236 406.542 244.151 405.19 215.032C404.193 193.555 397.306 172.38 385.479 154.425C383.364 151.214 380.776 147.883 377.037 146.989C362.17 143.435 345.351 152.053 339.55 166.195ZM271.38 352.054C272.641 352.269 273.935 352.551 274.975 353.297C276.014 354.042 276.739 355.366 276.419 356.605C276.099 357.844 274.464 358.658 273.432 357.903C272.292 357.07 270.777 357.041 269.418 356.657C268.06 356.273 266.636 355.145 266.88 353.755C267.19 351.993 269.616 351.755 271.38 352.054ZM219.022 352.578C220.586 352.903 222.418 354.018 222.097 355.584C221.815 356.965 220.107 357.425 218.71 357.611C217.144 357.82 215.473 358.014 214.051 357.326C212.63 356.637 211.708 354.695 212.64 353.421C213.269 352.561 214.446 352.332 215.511 352.289C216.687 352.241 217.869 352.338 219.022 352.578ZM312.63 335.177C311.145 336.248 310.125 337.826 309.077 339.328C304.3 346.172 298.246 352.121 291.319 356.777C291.492 357.512 292.593 357.326 293.246 356.948C301.266 352.301 306.99 344.624 312.483 337.158C312.932 336.547 313.303 335.524 312.63 335.177ZM384.347 150.282C388.626 155.335 392.938 160.436 396.069 166.27C399.462 172.596 401.369 179.605 402.904 186.617C411.491 225.845 409.199 266.628 414.764 306.397C415.768 313.573 417.096 320.901 420.83 327.111C425.204 334.386 432.463 339.429 439.859 343.596C445.84 346.966 452.083 349.926 458.652 351.922C469.098 355.096 481.646 355.319 489.654 347.897C494.15 343.73 496.516 337.784 498.363 331.938C506.282 306.882 507.152 279.64 500.85 254.129C501.009 269.387 502.99 284.608 502.536 299.859C502.083 315.111 498.952 330.816 489.987 343.162C488.211 345.608 486.153 347.955 483.469 349.345C479.934 351.177 475.735 351.141 471.783 350.659C464.882 349.816 458.133 347.73 451.96 344.532C447.27 342.103 442.931 339.051 438.727 335.854C433.84 332.138 429.042 328.135 425.618 323.039C422.225 317.989 420.333 312.089 418.833 306.192C407.878 263.135 415.711 216.689 402.712 174.205C399.648 164.192 394.327 153.449 384.347 150.282ZM123 339.703C148.289 343.607 173.579 347.51 198.869 351.414C198.228 353.087 195.916 353.145 194.14 352.908C172.512 350.019 150.884 347.13 129.256 344.24C126.811 343.914 124.366 343.587 121.921 343.26C120.76 343.105 119.319 342.685 119.172 341.524C118.966 339.886 121.369 339.452 123 339.703ZM416.371 191.1C411.029 197.044 411.414 206.013 412.114 213.974C413.645 231.399 415.177 248.824 416.708 266.249C416.78 267.064 416.867 267.924 417.345 268.588C418.127 269.674 419.64 269.863 420.975 269.957C439.157 271.238 457.339 272.519 475.521 273.801C474.162 275.95 471.098 275.982 468.562 275.786C451.445 274.465 434.258 274.036 417.096 274.504C416.8 283.305 418.097 292.157 420.906 300.503C422.123 304.121 426.81 304.891 430.624 305.046C445.167 305.634 459.71 306.223 474.254 306.812C474.923 308.319 472.573 309.26 470.925 309.241C455.976 309.069 441.027 308.897 426.078 308.725C424.03 308.702 423.29 311.602 424.061 313.499C426.078 318.456 432.498 319.524 437.839 319.858L471.261 321.951C472.024 321.999 472.183 323.198 471.626 323.721C471.069 324.244 470.22 324.259 469.456 324.243L430.324 323.413C440.442 335.455 454.633 344.011 470.005 347.339C473.318 348.056 476.829 348.527 480.047 347.465C483.898 346.193 486.738 342.924 488.961 339.532C500.751 321.544 499.967 298.4 498.762 276.926L497.396 252.587C497.873 251.931 498.853 251.703 499.57 252.083C499.847 250.89 498.295 250.181 497.09 249.96C470.492 245.074 443.199 240.181 416.579 244.953C415.729 244.604 415.737 243.28 416.384 242.626C417.031 241.972 418.012 241.813 418.923 241.688C422.562 241.187 426.201 240.687 429.839 240.186C421.489 236.414 416.427 227.455 414.915 218.418C413.403 209.381 414.88 200.14 416.371 191.1ZM285.644 339.064C288.013 339.505 290.749 340.229 291.674 342.454C289.036 344.252 285.572 344.068 282.39 343.813C281.515 343.743 280.558 343.637 279.943 343.01C278.855 341.901 279.667 339.857 281.067 339.183C282.467 338.51 284.117 338.78 285.644 339.064ZM105.212 322.805C132.459 331.366 160.694 336.779 189.175 338.901C191.384 339.066 194.354 340.119 193.93 342.293C163.808 338.886 133.87 333.852 104.291 327.218C102.404 326.795 99.9822 325.451 100.685 323.648C101.303 322.065 103.591 322.296 105.212 322.805ZM205.01 336.019C206.401 336.016 207.744 336.493 209.045 336.988C209.706 337.239 210.434 337.564 210.69 338.223C211.237 339.629 209.298 340.634 207.814 340.903C206.815 341.084 205.816 341.266 204.817 341.447C203.975 341.6 203.068 341.745 202.292 341.382C201.033 340.792 200.705 338.974 201.428 337.785C202.15 336.596 203.619 336.023 205.01 336.019ZM333.313 333.016C345.365 335.308 357.71 335.438 369.978 335.56C370.927 335.57 371.183 337.063 370.505 337.728C369.827 338.393 368.769 338.422 367.819 338.403C356.367 338.178 344.901 336.971 333.482 337.871C332.239 337.969 330.948 338.086 329.781 337.649C328.613 337.211 327.618 336.031 327.84 334.805C328.031 333.747 329.062 333.006 330.117 332.801C331.172 332.597 332.257 332.815 333.313 333.016ZM360.541 144.078C346.895 146.116 335.43 158.261 334.183 172.002C333.017 184.836 329.475 197.316 326.953 209.953C318.856 250.535 321.312 292.592 314.153 333.35C316.768 328.589 317.473 323.046 318.132 317.654L335.492 175.485C335.954 171.702 336.426 167.876 337.785 164.315C341.499 154.585 351.098 148.472 360.541 144.078ZM298.495 328.21C299.238 328.446 300 328.756 300.496 329.359C300.991 329.961 301.115 330.934 300.574 331.495C300.165 331.919 299.525 331.995 298.939 332.047C297.021 332.216 295.103 332.386 293.185 332.555C292.15 332.646 291.08 332.734 290.093 332.408C289.106 332.081 288.217 331.226 288.188 330.187C288.14 328.427 290.311 327.542 292.068 327.427C294.234 327.286 296.426 327.553 298.495 328.21ZM338.888 181.031C337.3 181.601 336.876 183.606 336.696 185.283L330.708 241.049C330.354 244.352 334.618 246.46 337.838 245.642C341.057 244.824 343.515 242.309 346.298 240.496C349.082 238.684 353.006 237.641 355.562 239.762C358.451 242.16 362.728 239.496 365.237 236.704C367.747 233.912 371.015 230.546 374.584 231.71C370.397 235.715 366.211 239.72 362.024 243.724C360.636 245.053 359.412 247.705 361.166 248.489C365.976 246.783 370.325 243.793 373.64 239.913C375.173 239.864 375.245 242.271 374.39 243.544C371.167 248.341 363.581 249.409 361.628 254.848C357.069 267.543 342.85 275.975 329.524 273.887C326.791 273.459 325.428 277.054 325.099 279.802C323.787 290.756 322.475 301.71 321.163 312.664C320.862 315.183 320.58 317.849 321.618 320.165C323.349 324.03 327.979 325.492 332.084 326.532C339.795 328.486 347.633 330.453 355.582 330.172C363.531 329.892 371.751 327.049 376.785 320.89C375.391 319.08 372.286 321.401 370.255 320.354C368.269 319.329 369.324 315.917 371.457 315.247C373.589 314.576 375.84 315.642 377.82 316.678C379.064 314.251 380.343 311.654 380.087 308.938C379.831 306.223 377.339 303.538 374.681 304.148C372.934 304.55 372.222 301.522 373.631 300.413C375.039 299.305 377.062 299.664 378.806 300.079C378.903 293.525 379 286.972 379.097 280.419C379.116 279.082 379.121 277.677 378.487 276.5C377.853 275.322 376.349 274.497 375.144 275.078C373.502 275.869 372.078 273.073 373.177 271.618C374.276 270.164 376.351 269.976 378.173 269.912C378.314 264.092 377.937 258.26 377.05 252.506C370.191 255.943 368.991 265.012 368.299 272.653C366.972 287.307 364.303 301.839 360.336 316.008C359.447 319.182 358.447 322.428 356.37 324.988C354.293 327.547 350.871 329.286 347.682 328.454C348.397 326.126 350.833 324.876 352.617 323.218C355.828 320.234 357.021 315.723 358.068 311.466C361.687 296.757 365.329 281.869 365.284 266.721L365.277 265.705C365.253 262.821 365.223 259.896 366.174 257.187C367.236 254.159 369.899 251.42 373.108 251.405C376.492 251.388 377.3 246.694 376.997 243.324C375.954 231.703 374.911 220.081 373.868 208.46C373.535 204.748 373.195 201.002 372.069 197.449C367.904 184.316 351.855 176.374 338.888 181.031ZM389.95 322.766C391.54 323.193 393.084 324.828 392.423 326.336C391.792 327.777 389.81 327.857 388.244 327.708C387.478 327.636 386.662 327.544 386.064 327.06C385.015 326.212 385.163 324.413 386.145 323.489C387.128 322.565 388.647 322.416 389.95 322.766ZM198.819 321.155C199.866 321.381 200.956 321.686 201.708 322.448C202.46 323.21 202.709 324.567 201.961 325.334C201.351 325.96 200.365 325.971 199.491 325.941C198.234 325.897 196.977 325.852 195.72 325.808C194.992 325.783 194.214 325.74 193.63 325.306C192.381 324.377 192.929 322.201 194.27 321.412C195.611 320.622 197.298 320.825 198.819 321.155ZM101.97 309.751C109.006 313.023 116.737 314.451 124.382 315.783C139.858 318.479 155.381 320.907 170.941 323.066C173.118 323.368 175.53 323.796 176.857 325.549C170.831 325.961 164.809 324.957 158.853 323.957C139.218 320.66 119.583 317.363 99.9484 314.065C97.8903 313.72 95.233 312.577 95.6338 310.528C96.109 308.101 99.7267 308.708 101.97 309.751ZM224.148 240.204C223.464 242.947 223.595 245.817 223.688 248.642C224.271 266.277 223.225 283.966 220.567 301.409C219.933 305.567 222.417 309.725 225.832 312.181C229.247 314.636 233.454 315.691 237.584 316.487C246.895 318.28 256.41 319.016 265.886 318.674C269.489 318.544 273.242 318.212 276.324 316.339C279.242 314.567 281.22 311.616 282.962 308.68C290.351 296.22 295.197 282.259 297.115 267.9C270.535 267.78 244.113 257.752 224.148 240.204ZM293.667 310.124C295.482 310.723 297.297 311.322 299.111 311.92C299.717 312.12 300.365 312.352 300.724 312.878C301.331 313.768 300.742 315.07 299.803 315.598C298.865 316.126 297.725 316.098 296.649 316.055C294.69 315.977 292.526 315.812 291.158 314.407C289.791 313.002 290.26 309.971 292.216 309.843C292.711 309.811 293.196 309.969 293.667 310.124ZM388.796 310.387C389.875 310.559 391.014 310.758 391.846 311.467C392.678 312.176 393.019 313.58 392.253 314.36C391.944 314.674 391.515 314.835 391.099 314.98C389.493 315.539 387.709 315.986 386.12 315.377C384.532 314.768 383.449 312.668 384.447 311.291C385.365 310.025 387.252 310.14 388.796 310.387ZM106.647 251.676C105.529 252.206 104.332 252.811 103.78 253.918C103.368 254.744 103.389 255.71 103.42 256.632C103.838 269.196 104.365 282.21 109.984 293.456C111.502 296.492 113.432 299.415 116.165 301.429C117.82 302.65 119.715 303.497 121.594 304.333C124.855 305.785 128.122 307.237 131.507 308.37C139.26 310.967 147.466 311.847 155.597 312.71C159.045 313.077 162.717 313.405 165.81 311.838C169.451 309.994 171.391 305.997 172.957 302.228C181.69 281.208 186.676 258.638 187.61 235.896C187.743 232.665 183.606 231.238 180.379 231.021C154.617 229.292 129.979 240.617 106.647 251.676ZM191.611 234.984C190.95 235.854 190.868 237.017 190.802 238.107C189.261 263.826 182.86 289.246 172.036 312.628C182.348 307.409 190.031 297.275 192.272 285.937C193.042 282.039 193.2 278.05 193.355 274.079C193.845 261.56 194.335 249.04 194.825 236.521C194.851 235.861 194.856 235.135 194.436 234.625C193.742 233.782 192.272 234.115 191.611 234.984ZM195.882 297.628C197.19 297.699 198.42 298.243 199.692 298.559C200.831 298.842 201.175 300.464 200.539 301.451C199.903 302.437 198.677 302.866 197.515 303.029C196.301 303.2 194.997 303.135 193.953 302.493C192.91 301.851 192.233 300.51 192.649 299.358C193.095 298.126 194.573 297.557 195.882 297.628ZM389.546 294.228C390.77 294.481 391.819 295.239 392.826 295.978C393.373 296.379 393.954 296.829 394.133 297.483C394.362 298.318 393.811 299.217 393.052 299.633C392.293 300.049 391.384 300.079 390.521 300.01C389.295 299.912 388.029 299.608 387.103 298.798C386.178 297.987 385.708 296.564 386.284 295.478C386.87 294.374 388.323 293.975 389.546 294.228ZM98.4936 255.334C98.159 255.931 98.2265 256.662 98.3037 257.342L100.121 273.347C101.108 282.033 102.4 291.393 108.471 297.682C109.483 297.202 108.912 295.681 108.274 294.76C103.356 287.663 102.409 278.64 101.611 270.043C101.144 265.004 100.676 259.965 100.209 254.925C99.7388 254.428 98.8282 254.738 98.4936 255.334ZM422.22 288.12C438.899 288.532 455.578 288.943 472.257 289.355C474.81 289.418 477.37 289.482 479.895 289.861C479.368 291.685 476.971 292.028 475.072 292.01C458.346 291.852 441.565 290.817 424.929 292.556C423.507 292.704 421.971 292.851 420.737 292.129C419.503 291.406 418.95 289.425 420.085 288.554C420.673 288.103 421.479 288.102 422.22 288.12ZM376.394 284.843C376.762 284.963 377.137 285.09 377.437 285.334C378.434 286.146 378.063 287.88 377.043 288.663C376.024 289.445 374.649 289.536 373.364 289.567C372.026 289.6 370.466 289.495 369.704 288.395C368.747 287.014 369.884 284.971 371.468 284.411C373.052 283.851 374.798 284.32 376.394 284.843ZM388.589 281.472C390.145 281.64 391.658 282.185 392.963 283.048C393.961 283.707 393.762 285.363 392.854 286.141C391.947 286.919 390.651 287.028 389.456 286.985C388.248 286.941 386.987 286.758 386.009 286.046C385.032 285.334 384.45 283.96 384.974 282.87C385.572 281.627 387.217 281.324 388.589 281.472ZM220.566 243.409C219.658 256.499 219.251 269.625 219.346 282.746C219.35 283.301 219.728 284.089 220.202 283.801C221.206 272.771 221.699 261.695 221.678 250.619C221.674 248.166 221.624 245.623 220.566 243.409ZM202.736 276.991C204.167 277.099 205.43 277.931 206.596 278.767C206.955 279.024 207.325 279.299 207.525 279.693C207.941 280.508 207.443 281.558 206.661 282.035C205.88 282.512 204.913 282.549 203.999 282.506C201.919 282.409 199.304 281.278 199.537 279.208C199.697 277.782 201.305 276.883 202.736 276.991ZM392.054 268.173C393.447 268.745 394.88 270.238 394.16 271.56C393.673 272.455 392.486 272.649 391.467 272.659C390.284 272.671 389.1 272.574 387.934 272.371C386.294 272.085 386.043 269.505 387.316 268.433C388.589 267.361 390.514 267.541 392.054 268.173ZM554.355 242.559C554.929 243.52 554.939 244.703 554.932 245.822C554.883 253.743 554.835 261.665 554.786 269.586C554.78 270.548 554.651 271.714 553.778 272.118C553.023 272.467 552.093 271.977 551.673 271.259C551.253 270.541 551.215 269.67 551.201 268.839C551.079 261.767 551.867 254.526 549.864 247.743C549.269 245.727 548.557 243.21 550.113 241.798C551.33 240.694 553.512 241.149 554.355 242.559ZM350.699 241.641C344.695 245.367 338.379 249.198 331.33 249.706C330.048 249.798 329.471 251.33 329.218 252.59C328.079 258.261 327.451 264.034 327.343 269.816C327.337 270.17 327.34 270.55 327.544 270.838C327.869 271.297 328.532 271.316 329.093 271.287C334.592 270.999 340.166 270.425 345.272 268.366C350.379 266.307 355.025 262.578 357.106 257.481C359.186 252.383 358.186 245.881 353.936 242.381C353.022 241.628 351.706 241.017 350.699 241.641ZM304.73 263.939C306.659 264.445 308.588 264.952 310.517 265.458C311.238 265.648 312.04 265.899 312.385 266.56C312.791 267.338 312.318 268.342 311.584 268.823C310.849 269.304 309.935 269.395 309.061 269.472C307.674 269.596 306.246 269.715 304.915 269.306C303.585 268.896 302.359 267.823 302.207 266.439C302.055 265.055 303.384 263.585 304.73 263.939ZM37.1151 158.378C44.3353 161.302 49.77 167.628 53.1408 174.651C56.5115 181.673 58.0464 189.417 59.384 197.091C61.5979 209.793 63.361 222.758 61.7467 235.549C60.1324 248.341 54.7852 261.096 44.8723 269.34C52.0932 269.726 60.7149 269.44 64.635 263.364C66.3943 260.637 70.1806 259.43 73.1934 260.636C71.2993 258.998 72.729 255.949 74.1347 253.877C79.8944 245.388 83.8464 235.631 85.2586 225.47C87.9968 205.768 81.1124 185.8 70.8972 168.731C64.2694 157.657 48.8098 152.919 37.1151 158.378ZM208.312 260.44C209.802 261.026 209.455 263.488 208.063 264.279C206.67 265.07 204.935 264.714 203.383 264.32C202.659 264.135 201.891 263.92 201.4 263.358C200.252 262.045 201.569 259.826 203.268 259.434C204.966 259.043 206.69 259.801 208.312 260.44ZM261.876 165.63C255.501 165.743 248.81 166.52 243.605 170.204C241.884 171.422 240.321 173.017 239.692 175.029C239.064 177.042 239.593 179.515 241.339 180.697C245.752 183.686 247.55 189.277 248.377 194.542C249.204 199.806 249.403 205.319 251.802 210.078C253.039 212.532 254.813 214.673 256.674 216.696C266.761 227.664 279.919 235.778 294.248 239.867C296.767 240.586 299.972 242.142 299.44 244.707C278.825 240.383 260.026 227.943 247.988 210.657C244.33 221.891 237.115 231.938 227.638 238.992C246.124 254.724 270.047 263.941 294.31 264.679C295.409 264.713 296.652 264.671 297.394 263.859C297.88 263.327 298.032 262.58 298.164 261.871C301.598 243.404 304.018 224.748 305.41 206.016C305.886 199.607 306.235 193.092 304.849 186.818C303.464 180.543 300.122 174.443 294.658 171.061C291.291 168.977 287.35 168.042 283.452 167.346C276.338 166.077 269.101 165.502 261.876 165.63ZM388.546 255.505C390.218 255.506 392.326 255.995 392.62 257.64C392.912 259.28 391.044 260.502 389.391 260.713C388.182 260.867 386.869 260.72 385.91 259.969C384.951 259.217 384.505 257.744 385.171 256.723C385.854 255.677 387.297 255.504 388.546 255.505ZM512.051 222.574C508.983 234.458 507.192 246.63 505.407 258.774C505.318 259.378 505.267 260.093 505.723 260.499C510.505 254.557 514.892 248.298 518.846 241.775C519.236 241.132 519.619 240.29 519.182 239.677C518.191 238.292 517.201 236.907 516.21 235.522C515.475 234.495 514.717 233.14 515.364 232.055C515.889 231.172 517.066 230.986 518.089 230.891L526.491 230.118C526.4 229.597 526.083 229.149 525.775 228.719C523.526 225.589 521.072 222.297 517.47 220.924C515.474 220.163 512.585 220.505 512.051 222.574ZM122.919 99.6269C116.777 100.658 110.124 102.434 106.56 107.541C104.565 110.4 103.831 113.929 103.245 117.365C100.94 130.881 100.22 144.666 101.105 158.348C127.583 146.029 158.564 143.689 186.592 151.891C188.969 152.587 191.911 154.695 190.663 156.834C169.638 149.058 146.219 147.898 124.529 153.559C117.51 155.391 110.689 157.91 103.711 159.889C93.3395 162.83 82.6281 164.568 71.8593 165.059C91.472 191.688 94.01 229.818 78.0995 258.812C87.9987 256.939 97.3002 252.779 106.428 248.514C120.055 242.145 133.624 235.429 148.1 231.341C162.577 227.253 178.228 225.916 192.587 230.398C194.267 230.922 195.192 228.498 195.26 226.74L198.371 145.218C198.843 132.868 198.882 119.213 190.797 109.866C183.643 101.595 171.976 99.0083 161.08 98.0781C148.362 96.9923 135.507 97.514 122.919 99.6269ZM312.619 250.935C313.021 251.198 313.436 251.529 313.53 251.999C313.721 252.955 312.558 253.563 311.621 253.829C310.26 254.215 308.857 254.602 307.45 254.454C306.043 254.306 304.611 253.497 304.148 252.16C303.686 250.823 304.616 249.068 306.03 249.042C308.349 248.999 310.677 249.668 312.619 250.935ZM512.339 199.638C507.217 202.51 501.098 203.559 495.312 202.558C496.052 204.621 499.297 205.341 499.313 207.534C499.323 208.869 498.065 209.809 497.35 210.936C496.8 211.804 496.562 212.827 496.343 213.831C494.281 223.271 493.097 232.902 492.812 242.56C492.763 244.224 493.177 246.422 494.832 246.603C498.26 246.979 501.488 248.901 503.452 251.735C505.061 241.609 506.671 231.483 508.28 221.357C508.653 219.007 508.967 216.383 507.59 214.442C505.696 211.773 507.345 208.116 509.006 205.296L512.339 199.638ZM207.371 243.406C209.12 243.755 211.109 245.265 210.446 246.92C210.038 247.94 208.806 248.352 207.709 248.41C206.613 248.469 205.472 248.306 204.444 248.696C203.236 249.154 201.812 248.083 201.665 246.799C201.517 245.515 202.41 244.268 203.573 243.704C204.736 243.14 206.104 243.153 207.371 243.406ZM388.525 241.842C389.627 241.995 390.789 242.237 391.591 243.008C392.393 243.78 392.614 245.247 391.76 245.96C391.478 246.196 391.122 246.321 390.774 246.439C389.26 246.957 387.64 247.463 386.087 247.079C384.534 246.695 383.184 245.047 383.721 243.54C384.34 241.802 386.697 241.59 388.525 241.842ZM488.848 221.025C487.681 221.306 486.83 222.28 486.061 223.202L481.426 228.752C480.52 229.836 482.114 231.348 483.522 231.466C484.93 231.584 486.575 231.253 487.577 232.249C488.627 233.293 488.194 235.113 487.335 236.318C486.475 237.523 485.256 238.508 484.736 239.894C483.959 241.966 485.245 244.563 487.364 245.202C488.515 245.548 490.13 245.015 490.14 243.813C490.2 236.787 490.61 229.764 491.37 222.779C491.5 221.586 490.015 220.744 488.848 221.025ZM253.683 224.514C254.571 225.104 255.145 226.048 255.737 226.935C260.822 234.548 269.326 239.781 278.414 240.887C280.516 241.143 282.996 241.399 284.05 243.235C282.07 245.196 278.843 244.957 276.129 244.326C266.507 242.087 257.69 236.528 251.523 228.811C250.539 227.581 249.641 225.709 250.738 224.578C251.48 223.813 252.795 223.924 253.683 224.514ZM483.85 190.872C477.056 192.541 470.27 194.898 464.763 199.214C459.256 203.53 455.16 210.088 455.203 217.085C455.258 225.958 450.898 234.752 443.802 240.08L455.749 241.486C457.148 241.65 458.716 241.769 459.811 240.884C461.414 239.588 461.004 237.101 460.599 235.081C460.194 233.061 460.284 230.391 462.205 229.648C464.592 228.725 466.567 232.036 466.205 234.569C465.844 237.102 464.374 239.54 464.834 242.057C470.492 242.86 476.168 243.536 481.856 244.085C480.725 243.157 480.601 241.396 481.174 240.049C481.746 238.701 482.858 237.67 483.938 236.682C485.089 235.63 483.43 233.775 481.879 233.608C480.329 233.441 478.505 233.814 477.411 232.702C476.052 231.319 477.072 229 478.231 227.445C480.482 224.428 483.272 220.792 481.823 217.318C478.291 208.847 479.068 198.705 483.85 190.872ZM223.268 167.726C222.321 190.915 222.451 214.148 223.657 237.326C232.515 232.519 238.987 224.062 243.001 214.817C245.45 209.177 247.089 202.961 246.11 196.891C245.38 192.364 243.237 188.182 240.745 184.333C236.325 177.505 230.554 171.342 223.268 167.726ZM428.671 156.616C431.852 156.03 434.284 159.957 433.742 163.146C433.2 166.335 430.882 168.87 429.04 171.529C426.495 175.203 424.754 179.362 423.032 183.487C418.935 193.3 417.34 204.146 418.439 214.723C419.086 220.95 420.793 227.346 425.004 231.98C429.214 236.613 436.432 238.93 441.98 236.03C446.746 233.539 449.123 228.048 450.216 222.783C451.309 217.518 451.503 212.007 453.568 207.042C457.377 197.882 466.77 192.349 476.062 188.875C462.094 186.977 449.456 177.245 444.053 164.225C442.504 160.491 441.341 156.281 438.127 153.83C434.912 151.378 428.86 152.578 428.671 156.616ZM310.602 231.317C311.584 231.505 312.548 231.791 313.475 232.168C315.004 232.79 316.646 234.51 315.662 235.835C315.125 236.56 314.093 236.647 313.192 236.67C311.548 236.712 309.775 236.717 308.432 235.767C307.09 234.818 306.625 232.521 307.979 231.588C308.723 231.076 309.715 231.146 310.602 231.317ZM384.654 227.402C385.984 227.515 387.308 227.7 388.619 227.955C389.267 228.081 389.966 228.257 390.373 228.777C390.991 229.565 390.602 230.8 389.821 231.426C389.04 232.052 388.001 232.228 387.012 232.383C385.501 232.619 383.889 232.843 382.496 232.214C381.102 231.585 380.15 229.743 381.002 228.473C381.745 227.365 383.325 227.29 384.654 227.402ZM4.48604 220.249C3.35969 220.237 2.97002 221.741 3.00419 222.867C3.10238 226.102 3.75732 229.32 4.93162 232.337C5.25851 232.67 5.63805 231.974 5.59239 231.51L4.48604 220.249ZM220.927 228.58C220.224 228.961 219.956 229.971 220.378 230.65L220.395 230.675L220.38 230.692C220.361 230.714 220.341 230.741 220.319 230.773C220.037 231.201 220.433 231.88 220.945 231.844C221.291 230.792 221.284 229.628 220.927 228.58ZM206.287 224C207.811 224.337 209.465 225.602 209.086 227.116C208.835 228.12 207.779 228.708 206.77 228.933C205.76 229.157 204.693 229.142 203.729 229.517C202.502 229.993 201.025 229.004 200.773 227.713C200.52 226.422 201.311 225.074 202.452 224.42C203.594 223.765 205.002 223.716 206.287 224ZM215.107 10.4005C215.196 80.208 216.8 150.014 219.917 219.752L220.245 226.962L220.294 224.643C220.384 219.222 220.305 213.8 220.225 208.379C219.295 144.836 218.364 81.2937 217.434 17.7513C217.395 15.0908 217.185 12.0626 215.107 10.4005ZM314.954 213.792C315.809 214.048 316.667 214.436 317.221 215.136C317.776 215.835 317.935 216.909 317.386 217.614C316.855 218.295 315.893 218.424 315.032 218.501L311.359 218.827C310.759 218.88 310.114 218.924 309.592 218.622C309.17 218.379 308.891 217.934 308.763 217.464C308.377 216.05 309.334 214.515 310.657 213.885C311.98 213.255 313.55 213.372 314.954 213.792ZM19.1182 159.148C15.2997 162.9 13.3136 168.086 11.4786 173.115C6.36524 187.128 1.50603 202.002 4.02902 216.704C4.80915 216.847 5.18101 215.786 5.23885 214.995C6.27606 200.811 9.11035 186.76 13.6525 173.284C15.3856 168.141 17.4701 162.92 21.32 159.096C21.2673 158.164 19.7835 158.494 19.1182 159.148ZM488.548 189.803C487.882 189.966 487.451 190.594 487.103 191.185C483.817 196.761 482.27 203.345 482.729 209.8C482.919 212.466 483.776 215.536 486.265 216.508C488.289 214.565 490.313 212.622 492.337 210.679C492.658 210.37 492.987 210.05 493.165 209.642C493.609 208.62 492.974 207.479 492.391 206.529C489.507 201.836 487.34 195.887 489.743 190.93C490.042 190.313 489.214 189.639 488.548 189.803ZM530.602 183.787C530.279 183.955 530.03 184.234 529.788 184.507C523.814 191.264 518.044 198.201 512.488 205.307C511.328 206.79 510.118 208.464 510.232 210.344C510.333 212.016 511.509 213.472 512.934 214.351C514.359 215.23 516.019 215.631 517.648 216.019C518.084 216.123 518.557 216.224 518.967 216.042C519.344 215.875 519.583 215.505 519.801 215.155C523.202 209.671 526.651 204.079 528.257 197.829C528.6 196.496 529.755 195.565 530.679 194.545C532.493 192.541 533.557 189.872 533.617 187.17C533.638 186.255 533.531 185.289 533.001 184.543C532.472 183.796 531.413 183.363 530.602 183.787ZM385.096 210.534C385.919 210.738 386.827 211.05 387.196 211.813C387.847 213.159 386.32 214.562 384.892 215.004C383.785 215.346 382.551 215.465 381.49 215.001C380.428 214.537 379.622 213.366 379.863 212.232C380.291 210.221 383.1 210.039 385.096 210.534ZM207.649 207.596C208.038 207.944 208.398 208.354 208.546 208.854C208.842 209.861 208.139 210.972 207.174 211.386C206.209 211.8 205.083 211.64 204.111 211.243C203.087 210.826 202.09 210.028 201.96 208.93C201.811 207.674 202.948 206.519 204.2 206.338C205.451 206.156 206.708 206.752 207.649 207.596ZM318.375 196.558C319.374 196.965 319.478 198.475 318.789 199.305C318.101 200.134 316.952 200.41 315.878 200.501C314.804 200.591 313.693 200.552 312.689 200.945C311.146 201.549 309.469 199.685 309.836 198.07C310.203 196.455 311.938 195.451 313.592 195.374C315.247 195.297 316.842 195.933 318.375 196.558ZM383.385 194.129C384.8 194.198 386.2 194.57 387.463 195.212C388.011 195.49 388.578 195.875 388.734 196.47C389.055 197.695 387.519 198.535 386.275 198.774C385.173 198.986 384.055 199.112 382.933 199.151C381.549 199.199 379.878 198.932 379.327 197.661C378.898 196.674 379.42 195.463 380.297 194.84C381.174 194.216 382.31 194.076 383.385 194.129ZM474.643 103.72C466.384 105.053 458.089 106.157 449.77 107.032C443.744 107.665 438.068 111.084 434.69 116.115C433.996 117.149 433.518 118.798 434.59 119.432C437.622 115.933 441.738 113.388 446.223 112.238C447.826 111.827 449.58 111.603 451.092 112.276C452.603 112.949 453.683 114.804 453 116.31C451.949 118.624 448.599 117.977 446.063 117.822C439.01 117.392 432.91 125.464 435.25 132.132C436.892 125.767 445.979 123.003 451.073 127.159C456.166 131.314 455.543 140.44 450.096 144.119C448.296 145.334 445.984 146.182 445.163 148.193C444.458 149.917 445.136 151.864 445.812 153.599C446.872 156.323 447.933 159.046 448.993 161.77C451.216 167.481 453.579 173.4 458.079 177.559C461.539 180.757 466.027 182.66 470.605 183.776C487.111 187.799 505.693 181.397 516.218 168.06C517.062 166.991 518.987 168.005 519.137 169.358C519.287 170.711 518.362 171.928 517.447 172.936C512.734 178.123 506.794 182.188 500.253 184.701C497.16 185.889 493.486 187.175 492.535 190.348C491.748 192.976 493.404 195.88 495.782 197.247C498.16 198.615 501.059 198.731 503.786 198.432C509.224 197.837 514.487 195.709 518.809 192.355C520.119 191.339 521.388 190.151 521.97 188.598C522.521 187.127 522.396 185.501 522.262 183.936L522.146 182.591C521.636 176.757 520.975 170.854 518.597 165.519C517.452 162.952 515.922 160.547 515.079 157.866C514.04 154.56 514.103 151.014 513.405 147.619C512.707 144.225 510.939 140.699 507.707 139.448C508.561 137.279 510.69 135.915 512.07 134.036C513.449 132.157 513.651 128.874 511.48 128.026C510.442 127.62 509.26 127.97 508.271 128.483C504.102 130.649 501.852 135.947 503.191 140.451C504.064 143.39 499.421 145.362 496.921 143.586C494.421 141.811 493.805 138.431 493.312 135.405C491.402 123.674 487.566 111.028 477.548 104.633C476.672 104.075 475.669 103.554 474.643 103.72ZM206.774 186.93C208.091 187.357 209.404 188.541 209.13 189.898C208.871 191.181 207.394 191.782 206.104 192.003C204.274 192.316 201.887 191.957 201.372 190.173C200.883 188.475 202.66 186.848 204.417 186.662C205.209 186.578 206.016 186.684 206.774 186.93ZM418.011 162.497C416.783 163.661 416.185 165.322 415.627 166.919C414.368 170.523 413.092 174.231 413.238 178.045C413.331 180.501 411.906 182.712 410.89 184.949C409.873 187.186 409.321 190.051 410.915 191.921C414.722 188.72 415.636 183.331 416.473 178.428C417.474 172.566 418.835 166.49 422.626 161.908C421.299 160.858 419.239 161.333 418.011 162.497ZM317.692 178.833C318.672 179.148 319.781 179.778 319.793 180.808C319.808 182.059 318.267 182.635 317.035 182.861C316.418 182.974 315.801 183.087 315.183 183.2C313.61 183.487 311.924 183.764 310.461 183.116C308.999 182.468 308.025 180.494 308.98 179.211C309.597 178.381 310.733 178.155 311.765 178.091C313.764 177.967 315.786 178.22 317.692 178.833ZM174.624 160.752C176.345 161.575 178.271 163.198 177.634 164.996C159.898 161.13 140.951 163.042 124.346 170.375C116.875 173.674 109.861 178.037 102.128 180.667C99.4827 181.567 96.5946 182.257 93.922 181.441C91.2495 180.625 89.0206 177.79 89.8024 175.107C90.5362 172.589 93.3403 171.392 95.8249 170.551C108.07 166.405 120.529 162.89 133.135 160.022C146.889 156.894 161.899 154.666 174.624 160.752ZM429.279 160.54C428.012 160.535 426.947 161.464 426.115 162.418C424.095 164.732 422.659 167.508 421.591 170.388C420.265 173.966 419.48 177.745 419.272 181.555C422.94 175.247 426.86 169.086 431.022 163.092C431.745 162.052 430.545 160.545 429.279 160.54ZM406.807 171.778C406.46 171.78 406.093 171.793 405.799 171.979C405.139 172.398 405.231 173.376 405.427 174.133C406.048 176.534 406.908 178.873 407.99 181.105C408.64 177.96 409.683 174.897 411.087 172.009C409.667 171.847 408.236 171.77 406.807 171.778ZM128.899 163.672C118.401 166.898 107.903 170.124 97.4057 173.351C96.1517 173.736 94.6966 174.331 94.4296 175.616C95.2831 176.861 96.9087 177.39 98.4167 177.317C99.9248 177.244 101.356 176.665 102.754 176.094C113.404 171.742 124.054 167.391 134.704 163.039C132.802 162.508 130.787 163.091 128.899 163.672ZM239.677 169.56C239.113 170.538 237.94 170.954 237.06 171.661C236.181 172.369 235.665 173.893 236.593 174.535C238.015 173.111 239.437 171.687 240.859 170.264C240.565 169.899 240.138 169.645 239.677 169.56ZM350.439 168.803C358.07 169.598 365.769 170.004 373.413 169.345C375.39 169.175 377.756 169.095 378.929 170.696C377.448 172.205 375.119 172.387 373.006 172.477C365.072 172.817 357.139 173.157 349.205 173.497C347.657 173.563 345.697 173.366 345.195 171.9C344.799 170.747 345.698 169.474 346.826 169.011C347.954 168.548 349.226 168.677 350.439 168.803ZM468.41 160.466C470.256 162.711 470.93 165.871 470.161 168.675C469.972 169.367 469.695 170.046 469.252 170.61C468.092 172.092 465.949 172.53 464.118 172.092C462.288 171.653 460.72 170.488 459.323 169.226C457.883 167.926 456.533 166.444 455.841 164.631C455.15 162.819 455.231 160.613 456.457 159.11C457.467 157.871 459.1 157.276 460.694 157.16C463.594 156.947 466.564 158.22 468.41 160.466ZM211.176 165.687C211.905 166.276 211.783 167.5 211.16 168.2C210.538 168.901 209.589 169.2 208.679 169.427C207.605 169.695 206.476 169.904 205.399 169.648C204.322 169.392 203.313 168.557 203.18 167.458C202.988 165.864 204.657 164.617 206.243 164.366C207.974 164.093 209.812 164.585 211.176 165.687ZM459.961 160.995C459.153 162.041 459.684 163.93 460.995 164.109C462.508 164.315 463.686 165.906 463.442 167.414C463.25 168.598 464.694 169.587 465.84 169.232C466.985 168.876 467.648 167.592 467.622 166.393C467.597 165.194 467.025 164.076 466.376 163.068C465.661 161.956 464.786 160.876 463.579 160.334C462.373 159.793 460.77 159.948 459.961 160.995ZM455.931 53.4988C444.93 55.5138 434.033 60.3188 426.937 68.9636C419.842 77.6083 417.388 90.5459 422.935 100.257C424.895 103.689 427.888 106.682 431.651 107.889C435.414 109.097 439.965 108.208 442.475 105.156C445.323 101.694 451.073 105.015 455.359 103.7C461.287 101.883 467.449 100.828 473.645 100.57C475.114 100.509 476.629 100.5 478 101.032C479.488 101.609 480.664 102.765 481.795 103.892C485.716 107.799 489.718 111.82 492.04 116.845C495.722 124.815 494.811 134.532 499.462 141.978C500.005 137.309 500.549 132.64 501.093 127.971C501.294 126.238 501.519 124.439 502.455 122.968C503.392 121.496 505.264 120.464 506.903 121.059C509.795 122.109 512.806 123.238 514.881 125.509C516.957 127.78 517.725 131.566 515.73 133.908C513.802 136.171 515.989 139.442 517.013 142.234C518.787 147.07 516.701 152.596 518.096 157.554C519.251 161.662 522.588 164.729 525.776 167.565C526.708 168.395 527.795 169.279 529.038 169.165C530.078 169.071 530.915 168.295 531.625 167.529C535.862 162.962 538.764 157.171 539.886 151.043C540.339 148.571 539.479 144.968 536.989 145.306C537.669 139.374 543.122 135.333 546.325 130.293C549.779 124.858 550.595 118.174 550.753 111.736C550.911 105.266 550.279 98.2336 545.968 93.4066C540.787 87.6075 530.721 87.1741 525.061 92.5066C523.65 93.836 521.791 95.5928 520.108 94.6309C521.427 92.2645 522.746 89.8981 524.065 87.5317C526.215 83.6754 528.41 79.6788 528.847 75.2855C529.71 66.6171 523.111 58.4096 514.95 55.3612C506.79 52.3128 497.577 53.5768 489.391 56.5582C487.34 57.3055 484.916 58.9105 485.472 61.0219C485.795 62.2446 487.033 62.9828 487.669 64.076C488.065 64.7576 488.025 64.9759 487.577 65.5273C487.307 65.8605 486.819 66.8249 486.381 66.6368C481.741 61.2621 476.722 55.6352 469.918 53.6026C465.408 52.2553 460.561 52.6508 455.931 53.4988ZM403.224 164.346C402.644 164.002 401.534 163.777 401.642 164.442C401.956 166.07 403.422 167.281 405.003 167.779C406.585 168.276 408.282 168.193 409.938 168.104C410.585 168.069 411.276 168.019 411.791 167.625C412.223 167.295 412.46 166.777 412.68 166.28C413.057 165.428 413.434 164.576 413.811 163.724C410.734 161.722 406.383 166.218 403.224 164.346ZM314.373 158.785C315.667 158.882 316.952 159.108 318.201 159.458C319.284 159.762 320.528 160.396 320.582 161.519C320.652 162.997 318.729 163.601 317.254 163.729C315.753 163.858 314.252 163.988 312.751 164.118C311.658 164.212 310.421 164.261 309.617 163.513C308.537 162.51 308.973 160.563 310.142 159.665C311.311 158.768 312.903 158.675 314.373 158.785ZM349.473 158.464C356.651 159.425 363.927 159.656 371.152 159.154C372 159.095 372.923 159.045 373.621 159.53C374.319 160.015 374.493 161.264 373.731 161.64C373.5 161.754 373.233 161.766 372.976 161.776C364.241 162.105 355.507 162.435 346.772 162.764C345.976 162.795 345.099 162.799 344.486 162.289C343.39 161.376 344.019 159.424 345.277 158.749C346.534 158.075 348.059 158.274 349.473 158.464ZM419.17 151.349C416.382 151.5 413.544 151.758 410.969 152.84C408.394 153.921 406.084 155.956 405.316 158.641C405.159 159.185 405.102 159.856 405.52 160.239C405.845 160.537 406.335 160.541 406.776 160.524C411.408 160.342 416.021 159.652 420.504 158.471C422.733 157.883 425.419 156.467 425.118 154.182C424.959 152.979 423.921 152.038 422.775 151.64C421.629 151.242 420.382 151.284 419.17 151.349ZM97.4555 151.013C97.0108 153.366 96.9021 155.783 97.1337 158.167C97.7098 158.789 98.468 157.574 98.4193 156.728C98.308 154.795 97.9842 152.875 97.4555 151.013ZM246.618 148.135C262.675 148.86 278.732 149.586 294.79 150.312C296.288 150.38 298.279 150.954 298.191 152.451C296.274 153.682 293.802 153.427 291.54 153.164C277.226 151.496 262.746 151.265 248.386 152.477C247.147 152.582 245.83 152.683 244.724 152.114C243.618 151.545 242.904 150.03 243.622 149.014C244.251 148.125 245.531 148.086 246.618 148.135ZM207.682 146.451C208.388 146.557 209.124 146.742 209.637 147.239C210.81 148.376 210.086 150.537 208.675 151.361C207.264 152.184 205.516 152.069 203.888 151.928C202.102 151.774 201.523 149.094 202.696 147.739C203.869 146.383 205.909 146.183 207.682 146.451ZM264.156 140.511C290.326 141.869 316.495 143.227 342.664 144.584C344.066 144.657 345.921 145.196 345.847 146.598C341.532 147.375 337.063 147.289 332.781 146.345L336.583 149.617C334.771 150.76 332.84 151.94 330.697 151.987C328.555 152.035 326.222 150.455 326.283 148.313C327.367 147.813 328.451 147.313 329.535 146.812C308.395 145.001 287.157 144.34 265.945 144.834C264.721 144.862 263.414 144.873 262.381 144.217C261.347 143.561 260.824 141.965 261.68 141.09C262.292 140.463 263.282 140.466 264.156 140.511ZM433.607 144.011C432.664 144.063 431.864 144.689 431.133 145.287C430.266 145.996 429.4 146.705 428.534 147.414C427.626 148.156 426.643 149.043 426.59 150.214C426.561 150.85 427.045 151.605 427.665 151.462C427.838 151.422 427.988 151.317 428.133 151.214C430.197 149.759 432.261 148.303 434.325 146.847C434.746 146.55 435.196 146.214 435.332 145.717C435.582 144.807 434.55 143.959 433.607 144.011ZM465.709 136.386C465.791 138.509 464.737 140.498 464.362 142.589C463.987 144.68 464.701 147.343 466.768 147.832C467.378 147.977 467.555 148.849 467.211 149.373C466.866 149.896 466.216 150.122 465.599 150.234C463.684 150.582 461.416 149.967 460.536 148.231C460.095 147.362 460.061 146.351 460.036 145.377C459.969 142.768 459.902 140.16 459.835 137.552C459.789 135.769 459.989 133.573 461.621 132.853C463.565 131.996 465.626 134.263 465.709 136.386ZM437.242 148.218C436.865 148.394 436.608 148.802 436.612 149.218L436.518 149.243C436.727 149.707 437.481 149.78 437.775 149.364C438.07 148.947 437.751 148.261 437.242 148.218ZM433.632 134.586C432.766 134.608 431.798 134.765 431.286 135.464C430.738 136.211 430.96 137.307 431.522 138.043C432.085 138.779 432.913 139.252 433.686 139.762C436.942 141.91 439.542 145.038 441.057 148.633C442.088 147.276 443.118 145.92 444.148 144.564C444.918 143.551 445.729 142.392 445.567 141.131C445.45 140.219 444.838 139.453 444.188 138.803C441.434 136.048 437.526 134.487 433.632 134.586ZM101.731 113.603C100.521 113.702 99.8935 115.061 99.513 116.214C98.9332 117.971 98.3535 119.728 97.7738 121.485C97.1404 123.405 96.5025 125.346 96.3287 127.36C96.2136 128.694 96.3047 130.037 96.3959 131.374C96.6807 135.548 96.9654 139.721 97.2502 143.895C97.3052 144.702 97.9192 145.816 98.5865 145.359C98.3094 134.698 99.3685 124.003 101.731 113.603ZM444.049 128.95C442.951 129.368 441.784 130.104 441.625 131.269C441.466 132.434 443.181 133.515 443.846 132.545C444.695 131.308 446.817 131.954 447.518 133.28C448.22 134.606 448.014 136.201 448.004 137.702C447.993 139.202 448.338 140.923 449.646 141.658C449.865 139.651 450.085 137.644 450.304 135.637C450.575 133.16 450.559 130.087 448.381 128.874C447.078 128.148 445.444 128.419 444.049 128.95ZM479.327 127.816C481.11 127.896 483.014 128.517 483.989 130.012C484.965 131.507 484.447 133.956 482.729 134.437C480.276 135.124 477.983 131.668 475.585 132.526C474.086 133.063 473.16 135.172 471.596 134.869C470.627 134.682 470.09 133.52 470.283 132.551C470.476 131.583 471.199 130.808 471.973 130.194C474.036 128.56 476.698 127.699 479.327 127.816ZM206.268 126.051C207.987 126.329 209.67 128.211 208.764 129.697C208.51 130.115 208.096 130.412 207.663 130.639C206.591 131.203 205.269 131.395 204.162 130.903C203.055 130.411 202.277 129.134 202.576 127.96C202.953 126.486 204.766 125.808 206.268 126.051ZM482.123 116.265C483.306 117.389 484.227 119.508 482.903 120.462C481.502 121.472 479.824 119.767 478.484 118.679C476.986 117.462 474.957 116.926 473.053 117.242C471.836 117.445 470.689 117.973 469.468 118.151C468.247 118.328 466.826 118.048 466.16 117.009C465.461 115.92 465.905 114.378 466.867 113.511C467.828 112.644 469.164 112.327 470.453 112.21C474.681 111.823 479.046 113.34 482.123 116.265ZM206.209 112.818C207.264 113.436 207.833 114.896 207.246 115.969C206.469 117.387 204.435 117.368 202.866 116.978C202.301 116.838 201.706 116.652 201.332 116.206C200.439 115.141 201.44 113.47 202.687 112.856C203.784 112.314 205.153 112.199 206.209 112.818Z" fill="#00160A"/>
</svg>
