<svg viewBox="0 0 443 421" fill="none" xmlns="http://www.w3.org/2000/svg">
<g clip-path="url(#clip0_765_448)">
<path fill-rule="evenodd" clip-rule="evenodd" d="M89.8358 378.045C91.006 378.809 91.1644 380.566 90.1017 381.605C89.4645 382.229 88.7104 382.732 88.0518 383.336C86.6508 384.62 86.1128 386.291 86.7364 388.025C87.3635 389.766 88.7832 390.765 90.6763 391.263C92.9403 391.854 95.079 391.419 97.1776 390.812C98.0523 390.559 98.7558 389.797 98.6261 388.474C98.3852 386.016 98.5089 383.523 98.3419 381.055C98.2551 379.779 99.2793 379.994 99.8411 379.82C101.338 379.356 102.895 378.854 104.434 378.832C105.531 378.815 106.639 379.552 107.655 380.039C105.907 380.126 104.232 380.005 102.592 380.19C102.006 380.255 101.503 381.058 100.962 381.524C101.342 381.867 101.709 382.485 102.104 382.504C103.624 382.574 105.155 382.478 106.678 382.392C107.881 382.324 108.325 381.63 108.089 380.472C108.865 382.384 108.505 383.544 106.935 384.296C106.698 384.409 106.54 384.675 106.318 384.832C106.055 385.018 105.763 385.162 105.484 385.324C105.542 385.049 105.744 384.685 105.637 384.512C104.506 382.682 102.703 383.893 101.22 383.66C100.919 383.613 100.188 384.412 100.158 384.856C100.033 386.638 100.007 388.442 100.162 390.221C100.214 390.812 100.808 391.633 101.35 391.842C102.047 392.111 103.036 392.177 103.34 390.956C103.702 389.502 104.187 388.075 104.618 386.636C104.679 386.432 104.736 386.227 104.795 386.022C104.851 386.229 104.954 386.436 104.958 386.645C104.984 388.207 104.652 389.976 106.375 390.851C107.479 391.411 108.768 391.718 110.007 391.881C112.5 392.216 115.014 392.406 117.524 392.589C118.368 392.651 119.245 392.457 119.183 391.314C119.09 389.58 119.208 387.757 118.699 386.141C118.067 384.134 118.549 382.159 119.715 381.109C120.594 380.317 122.725 380.858 124.295 380.916C124.793 380.934 125.275 381.316 125.772 381.509C126.352 381.733 127.419 381.894 127.439 382.151C127.512 383.053 127.479 384.133 127.036 384.879C125.22 387.931 125.501 390.283 127.748 392.496C128.614 393.347 130.363 393.495 131.738 393.6C134.008 393.771 134.15 393.627 134.437 395.618C134.897 398.806 135.307 402.018 135.469 405.234C135.644 408.71 135.488 412.202 135.535 415.685C135.541 416.117 135.916 416.541 136.12 416.965C136.495 416.712 136.936 416.521 137.232 416.199C138.146 415.199 138.326 414.002 138.313 412.653C138.251 406.474 138.278 400.296 138.291 394.113C138.294 392.748 138.165 391.605 136.301 392.243C136.281 392.247 136.08 391.955 136.112 391.846C136.59 390.202 135.911 389.63 134.309 389.821C133.93 389.867 133.532 389.754 133.142 389.723C132.172 389.642 131.195 389.611 130.234 389.467C129.671 389.385 129.135 389.125 128.586 388.946C128.98 388.779 129.367 388.489 129.768 388.469C130.999 388.406 132.243 388.36 133.468 388.467C135.172 388.615 136.883 388.814 138.552 389.175C139.589 389.397 140.411 389.926 140.398 391.337C140.332 398.324 140.444 405.315 140.34 412.303C140.276 416.58 136.595 420.153 132.484 420.048C129.87 419.982 127.112 421.075 124.646 420.557C119.465 419.477 114.226 420.017 109.058 419.321C107.329 419.088 105.566 419.123 103.828 418.944C99.6791 418.512 95.5403 417.987 91.3891 417.583C89.1912 417.373 86.9758 417.342 84.769 417.221C80.643 416.992 76.5171 416.77 72.3927 416.521C70.7729 416.424 68.3068 414.083 68.1861 412.458C67.807 407.349 67.2776 402.236 67.2114 397.123C67.174 394.21 67.7576 391.353 69.8698 388.864C71.541 386.893 73.4971 386.288 75.7938 386.026C76.1932 385.98 76.6027 386.027 77.0072 386.017C77.4183 386.007 77.8289 385.979 78.2396 385.959C77.8998 386.145 77.5674 386.347 77.219 386.514C75.8697 387.164 74.4886 387.755 73.179 388.476C72.7975 388.686 72.4741 389.23 72.3978 389.669C72.358 389.898 72.8777 390.427 73.2047 390.485C75.2527 390.851 77.2879 391.395 79.0871 389.56C80.6212 387.999 81.26 385.819 80.3297 383.786C79.6671 382.34 79.3335 380.853 80.1794 379.444C80.5033 378.905 81.3706 378.708 81.9592 378.309C84.3863 376.662 87.5407 376.548 89.8358 378.045ZM69.9196 391.566C69.6849 391.944 69.2582 392.313 69.2469 392.698C69.1823 394.91 69.1368 397.127 69.2329 399.335C69.4023 403.227 69.7219 407.112 69.8931 411C69.9951 413.314 71.0244 414.737 73.2997 415.126C75.7448 415.542 78.2132 416.133 80.668 416.113C84.8943 416.082 88.9604 417.058 93.1038 417.509C97.6031 417.999 102.151 418.069 106.681 418.244C109.009 418.337 111.345 418.217 113.675 418.271C116.865 418.345 120.053 418.489 123.241 418.613C123.51 418.625 123.773 418.749 124.042 418.761C125.634 418.835 127.228 418.936 128.819 418.913C129.086 418.909 129.345 418.353 129.608 418.053C129.331 417.89 129.065 417.614 128.776 417.587C127.094 417.431 125.323 417.626 123.735 417.171C117.474 415.374 110.985 416.012 104.634 415.211C102.078 414.892 99.4008 415.635 96.8152 415.433C91.8959 415.048 86.9918 414.406 82.1028 413.722C79.7485 413.391 77.4432 412.715 74.9425 412.019C74.1904 411.121 73.0533 410.324 72.7699 409.293C72.2463 407.392 72.1607 405.358 72.0057 403.367C71.7259 399.775 71.5678 396.166 71.2408 392.577C71.2069 392.204 70.379 391.901 69.9196 391.566ZM75.264 391.897C73.6049 392.192 73.2047 393.199 73.3721 394.696C73.5274 396.085 73.659 397.484 73.7182 398.88C73.8626 402.298 73.9288 405.716 74.0923 409.13C74.1448 410.23 74.5512 411.128 75.8814 411.346C78.3588 411.747 80.8034 412.396 83.2913 412.68C87.3542 413.146 91.4373 413.461 95.5185 413.741C101.326 414.138 107.14 414.449 112.951 414.791C113.297 414.811 113.647 414.764 113.991 414.799C118.772 415.254 123.553 415.713 128.332 416.187C128.928 416.245 129.523 416.366 130.105 416.51C132.67 417.155 134.158 416.059 134.105 413.454C134.076 412.058 133.842 410.666 133.783 409.266C133.638 405.852 133.535 402.434 133.428 399.016C133.31 395.264 131.74 394.463 128.461 394.374C127.392 394.343 126.462 394.914 126.502 396.193C126.538 397.418 126.86 398.643 126.804 399.86C126.655 403.06 126.45 406.26 126.096 409.445C125.961 410.658 125.696 412.237 124.88 412.898C124.033 413.578 122.671 414.554 121.237 413.745C120.003 413.053 119.572 411.914 119.535 410.545C119.442 407.05 119.311 403.554 119.196 399.712C119.311 398.837 119.396 397.955 119.549 397.084C119.922 394.961 118.864 393.689 116.753 393.635C113.967 393.565 111.181 393.452 108.398 393.289C106.097 393.153 105.535 393.561 105.681 395.777C105.809 397.71 106.164 399.627 106.342 401.555C106.512 403.41 106.73 405.276 106.645 407.127C106.595 408.208 106.247 409.394 104.992 409.95C102.976 410.841 100.467 410.199 99.4829 408.263C98.6721 406.669 98.1847 404.771 98.0928 402.982C97.948 400.156 98.2839 397.306 98.3587 394.467C98.3992 392.927 97.7012 392.453 96.2122 392.846C95.893 392.931 95.5286 393.009 95.218 392.939C93.2642 392.503 91.3369 391.901 89.3629 391.64C88.7217 391.555 87.4134 392.262 87.36 392.721C87.1335 394.658 86.8956 396.726 87.3429 398.581C88.1935 402.108 87.2849 405.218 85.8263 408.282C85.6562 408.64 84.8079 408.675 84.2742 408.862C84.4708 408.574 84.6849 408.298 84.8593 407.998C84.9924 407.773 85.1338 407.52 85.1723 407.267C85.5347 404.872 85.952 402.481 86.1938 400.074C86.3362 398.651 85.3377 397.819 83.8242 397.807C82.5517 397.795 80.877 399.156 81.0436 400.241C81.4072 402.609 81.9129 404.958 82.3784 407.306C82.4851 407.847 82.6646 408.372 82.8105 408.9C82.2223 408.504 81.5641 408.181 81.0697 407.695C80.7088 407.337 80.4032 406.777 80.3511 406.28C80.1619 404.487 80.0315 402.687 79.9894 400.883C79.9318 398.402 79.9965 395.917 79.9532 393.437C79.9466 393.04 79.743 392.566 79.4733 392.274C78.2027 390.894 76.7246 391.633 75.264 391.897ZM123.135 397.869C122.477 397.943 121.566 398.542 121.351 399.121C120.975 400.128 121.018 401.303 120.938 402.411C120.799 404.324 120.741 406.245 120.572 408.154C120.416 409.911 120.584 411.576 122.149 412.637C122.566 412.921 123.628 412.855 123.956 412.524C124.43 412.042 124.504 411.167 124.749 410.114C124.865 406.7 125.074 403.282 125.034 399.872C125.023 398.954 124.428 397.718 123.135 397.869ZM203.845 295.55C205.649 295.565 207.455 295.721 209.252 295.898C210.304 296.002 210.734 296.689 210.854 297.762C211.043 299.454 210.425 300.88 209.752 302.347C208.84 304.336 208.021 306.367 207.164 308.382C207.101 308.529 207.059 308.685 207.008 308.837C207.847 309.025 208.692 309.376 209.521 309.342C210.026 309.321 210.749 308.814 210.957 308.343C211.84 306.332 212.557 304.249 213.363 302.203C213.48 301.906 213.831 301.699 213.937 301.402C215.005 298.402 217.336 297.903 220.181 297.911C223.029 297.919 225.045 299.447 226.212 301.546C227.353 303.599 227.627 306.156 228.16 308.518C228.605 310.49 229.011 312.49 229.191 314.498C229.489 317.838 228.182 320.781 226.613 323.644C225.559 325.566 224.208 327.477 223.789 329.553C223.356 331.698 222.896 333.926 223.563 336.322C224.357 339.174 224.365 342.245 224.705 345.222C224.737 345.507 224.815 345.856 224.694 346.079C222.743 349.674 224.6 353.256 224.743 356.836C224.763 357.321 225.138 357.52 224.297 357.636C222.126 357.934 220.056 358.394 217.764 358.063C216.117 357.825 214.302 358.747 212.475 359.238C210.831 360.358 209.448 363.809 210.186 365.266C210.435 365.759 211.301 366.19 211.902 366.214C214.501 366.317 217.106 366.221 219.708 366.273C220.992 366.3 222.3 366.372 223.541 366.664C224.012 366.775 224.601 367.534 224.652 368.045C224.759 369.114 225.133 370.427 223.795 371.089C223.277 371.345 222.634 371.414 222.041 371.446C219.226 371.599 217.81 372.949 217.422 375.932C217.183 377.761 216.909 379.589 216.787 381.427C216.772 381.659 217.555 382.051 218.021 382.176C218.506 382.307 219.054 382.192 219.574 382.208C223.228 382.319 226.885 382.382 230.534 382.57C233.236 382.71 235.902 385.645 236.443 388.322C236.781 389.992 236.492 391.796 236.432 393.538C236.402 394.428 236.165 395.315 236.211 396.193C236.228 396.516 236.759 397.018 237.118 397.08C239.508 397.492 241.937 397.694 244.308 398.188C246.301 398.6 248.215 399.374 250.194 399.872C252.771 400.513 255.356 401.186 257.978 401.587C262.521 402.283 267.107 402.699 271.646 403.41C272.75 403.581 273.742 404.456 274.786 405.008C274.665 405.152 274.57 405.366 274.418 405.424C272.157 406.249 269.908 407.112 267.616 407.847C263.796 409.068 259.81 409.211 255.857 409.686C250.794 410.289 245.719 411.058 240.669 410.561C230.816 409.593 220.954 410.25 211.108 409.892C205.506 409.69 199.914 409.095 194.332 408.531C189.817 408.072 185.294 407.563 180.833 406.754C178.44 406.319 176.146 405.265 173.851 404.378C170.514 403.087 167.23 401.653 163.894 400.358C162.646 399.872 161.232 399.775 160.039 399.199C157.53 397.994 157.591 396.345 159.457 394.409C161.892 391.881 164.866 391.399 168.056 391.22C168.344 391.205 168.653 391.154 168.92 391.232C170.026 391.547 170.34 391.185 170.244 390.066C170.099 388.362 170.266 386.626 170.042 384.937C169.91 383.948 169.387 382.958 168.849 382.087C167.434 379.796 165.578 377.743 165.188 374.931C165.143 374.607 165.045 374.289 165.015 373.965C164.776 371.403 164.363 368.841 164.367 366.28C164.372 363.602 164.652 360.906 165.041 358.252C165.619 354.305 166.331 350.375 167.109 346.461C168.368 340.122 170.219 333.957 173.015 328.112C173.78 326.513 174.844 325.06 175.698 323.5C177.141 320.867 178.204 317.951 180.025 315.619C181.875 313.251 182.893 310.053 185.977 308.761C187.307 308.204 188.751 307.296 190.053 307.429C192.581 307.686 192.794 306.044 193.101 304.464C194.141 299.103 198.377 295.506 203.845 295.55ZM101.668 402.66C100.517 402.636 99.9353 403.091 100.087 404.343C100.168 405.012 99.9014 405.739 100.061 406.373C100.283 407.248 100.545 408.477 101.177 408.799C102.041 409.239 103.414 409.305 104.303 408.92C105.419 408.438 105.755 405.214 104.927 403.698C104.353 402.644 103.169 402.504 101.668 402.66ZM185.881 311.294C184.425 313.035 182.882 314.749 181.714 316.678C179.882 319.702 178.346 322.905 176.653 326.015C176.06 327.105 175.22 328.082 174.756 329.218C172.994 333.53 170.881 337.704 170.176 342.415C169.564 346.5 168.57 350.528 167.798 354.591C167.389 356.747 166.982 358.914 166.781 361.095C166.617 362.867 166.564 364.696 166.816 366.449C167.216 369.242 168.048 371.973 168.448 374.766C168.985 378.518 170.632 381.28 174.42 382.402C176.126 382.907 178.162 381.973 179.637 383.581C179.758 383.713 180.047 383.691 180.258 383.741C180.012 383.807 179.735 383.821 179.527 383.947C177.872 384.954 176.179 384.737 174.389 384.336C173.538 384.145 172.146 383.798 172.295 385.613C172.431 387.259 172.19 389.027 172.713 390.532C174.062 394.417 176.349 397.675 180.864 398.11C185.376 398.542 189.921 398.709 194.456 398.83C204.887 399.102 215.356 398.184 225.743 399.604C228.454 399.973 231.205 399.397 233.853 400.233C234.037 400.292 234.214 400.373 234.393 400.439C234.229 400.603 234.085 400.875 233.897 400.91C232.437 401.171 230.972 401.555 229.502 401.587C225.397 401.68 221.288 401.629 217.181 401.606C216.643 401.602 216.108 401.369 215.566 401.338C213.321 401.209 211.036 400.817 208.839 401.097C206.416 401.408 204.107 401.552 201.691 401.05C199.834 400.661 197.88 400.579 195.976 400.622C194.158 400.661 192.328 401.338 190.54 401.213C186.726 400.949 182.911 400.494 179.144 399.841C176.051 399.304 173.478 397.811 171.852 394.868C171.429 394.102 170.197 393.557 169.245 393.371C168.256 393.172 167.106 393.371 166.118 393.686C164.699 394.137 163.302 394.739 162.018 395.49C161.308 395.902 161.676 397.543 162.451 397.795C164.285 398.402 166.151 398.915 167.973 399.549C170.548 400.451 173.221 401.186 175.624 402.426C179.188 404.269 183.019 404.604 186.85 405.074C190.17 405.483 193.504 405.77 196.829 406.128C201.035 406.583 205.233 407.123 209.446 407.489C212.279 407.734 215.133 407.854 217.977 407.835C223.367 407.804 228.755 407.571 234.146 407.528C242.577 407.462 251.018 407.769 259.399 406.482C261.967 406.085 264.55 405.79 267.12 405.413C267.344 405.382 267.527 405.074 267.728 404.895C267.518 404.841 267.31 404.755 267.098 404.748C264.022 404.623 260.946 404.51 257.871 404.394C256.903 404.355 255.867 404.53 254.979 404.242C251.721 403.196 248.545 401.882 245.274 400.883C242.205 399.942 239.097 398.814 235.804 400.062C234.59 400.521 234.18 399.798 234.085 398.744C234.057 398.437 234.128 398.118 234.072 397.819C233.862 396.699 233.485 395.591 233.417 394.463C233.305 392.62 233.389 390.769 233.386 388.919C233.383 387.355 232.895 386.089 231.208 385.682C230.043 385.401 228.861 385.046 227.678 385.007C222.233 384.828 216.784 384.754 211.337 384.63C206.583 384.523 201.83 384.402 197.077 384.285C196.187 384.263 195.149 384.589 194.855 383.25C194.526 381.753 195.884 381.965 196.587 381.523C196.712 381.445 196.946 381.561 197.098 381.504C198.335 381.038 198.707 380.594 198.481 378.89C197.967 375.023 195.028 371.338 197.281 367.197C197.423 366.937 197.445 366.612 197.523 366.317C197.908 366.437 198.393 366.455 198.649 366.706C198.899 366.949 199.061 367.455 199.005 367.805C198.871 368.642 198.262 369.525 198.421 370.266C199.085 373.373 199.923 376.446 200.778 379.508C201.142 380.811 201.877 382.033 203.352 382.174C206.775 382.503 210.213 382.679 213.648 382.887C214.2 382.92 214.761 382.796 215.318 382.745C214.963 382.262 214.616 381.773 214.249 381.298C214.109 381.117 213.927 380.968 213.762 380.805C210.182 377.264 208.238 373.019 208.423 367.945C208.493 366.013 208.821 364.086 209.101 362.166C209.402 360.108 209.486 357.946 210.217 356.041C210.927 354.193 210.59 352.208 211.756 350.358C213.151 348.147 213.574 345.349 214.685 342.928C215.768 340.57 217.189 338.367 218.462 336.27C217.24 339.571 216.023 342.874 214.793 346.171C214.28 347.546 214.954 348.683 216.494 348.912C217.002 348.987 217.536 348.968 218.05 348.917C220.907 348.63 223.166 347.075 222.615 344.015C222.212 341.773 221.866 339.497 221.161 337.345C220.859 336.424 220.031 335.047 218.462 335.923C220.137 333.21 221.69 330.41 223.52 327.805C225.637 324.793 227.033 321.62 226.779 317.883C226.688 316.548 226.397 315.61 224.537 315.563C221.62 315.489 219.772 317.178 217.891 318.849C213.864 322.427 212.298 327.627 209.437 331.979C207.581 334.802 207.694 338.608 204.929 340.978C204.855 341.042 204.832 341.166 204.786 341.263C204.717 341.141 204.58 341.013 204.589 340.898C204.665 339.953 204.646 338.979 204.881 338.073C206.23 332.869 209.034 328.321 211.651 323.722C214.142 319.344 217.386 315.594 222.21 313.558C222.579 313.402 222.921 313.185 223.276 312.997C222.879 312.839 222.493 312.588 222.083 312.537C219.048 312.163 216.016 311.729 212.969 311.504C207.276 311.082 201.574 310.783 195.875 310.445C193.668 310.313 191.426 310.401 189.262 310.031C187.729 309.769 186.729 310.278 185.881 311.294ZM101.35 392.305C100.743 392.492 99.8305 393.168 99.8391 393.608C99.8726 395.299 100.222 396.987 100.453 399.02C100.279 400.817 101.574 400.649 102.65 400.552C103.533 400.471 104.967 400.879 104.617 399.075C104.275 397.317 104.032 395.532 103.533 393.822C103.264 392.896 102.559 391.932 101.35 392.305ZM231.858 395.062C232.257 395.07 232.646 395.462 233.039 395.68C232.667 396.042 232.313 396.427 231.914 396.757C231.763 396.882 231.51 396.882 231.217 397.026C230.152 397.111 229.173 397.123 228.195 397.107C227.534 397.099 226.799 397.426 226.63 396.209C226.579 395.84 225.24 395.641 224.484 395.385C224.229 395.299 223.953 395.276 223.686 395.225C223.993 395.159 224.299 395.043 224.606 395.043C227.024 395.027 229.442 395.004 231.858 395.062ZM122.164 394C121.864 394.028 121.573 394.16 121.278 394.245C121.452 394.739 121.625 395.233 121.972 395.898C122.223 396.267 122.498 396.956 122.72 396.94C123.592 396.874 124.457 396.613 125.298 396.341C125.397 396.31 125.442 395.696 125.315 395.455C124.648 394.187 123.487 393.88 122.164 394ZM81.6614 392.585C81.4049 392.818 81.5789 393.666 81.7373 394.175C81.9078 394.728 82.2889 395.214 82.7518 395.898C84.0889 396.761 84.9461 396.559 85.4806 395.253C86.3164 393.215 85.8555 392.395 83.7394 391.644C82.6315 391.251 82.1947 392.103 81.6614 392.585ZM120.938 385.232C120.658 385.268 120.243 386.017 120.277 386.404C120.413 387.981 120.861 389.545 120.887 391.115C120.913 392.733 122.114 392.853 123.049 392.881C123.973 392.908 124.974 392.387 124.749 390.699C124.749 389.665 124.422 388.474 124.829 387.639C125.376 386.517 125.089 385.502 124.354 385.235C123.34 384.866 122.073 385.085 120.938 385.232ZM228.961 389.401C229.453 389.945 229.858 390.4 230.263 390.859C229.703 391.096 229.149 391.52 228.583 391.535C222.908 391.703 217.23 391.776 211.555 391.924C209.52 391.975 207.488 392.189 205.453 392.235C204.639 392.255 203.791 392.107 203.011 391.866C202.487 391.706 202.056 391.244 201.583 390.917C202.175 390.672 202.761 390.229 203.359 390.213C206.306 390.139 209.257 390.221 212.205 390.171C216.783 390.089 221.361 389.972 225.937 389.813C226.921 389.778 227.896 389.486 228.961 389.401ZM82.9009 382.663C82.3551 383.226 82.1083 383.6 82.0561 384.28C81.9456 385.727 81.8261 387.173 81.7104 388.966C81.9946 389.482 82.1636 390.151 82.5945 390.466C83.0324 390.785 83.7467 390.898 84.3046 390.828C84.741 390.769 85.4389 390.33 85.4763 389.996C85.6978 388.045 85.8481 386.074 85.8306 384.112C85.8239 383.364 85.509 382.326 84.9687 381.961C84.4404 381.605 83.6463 381.893 82.9009 382.663ZM115.789 387.763C115.903 387.792 116.026 387.966 116.054 388.093C116.072 388.17 115.914 388.373 115.837 388.372C113.138 388.35 110.44 388.31 107.655 388.186C108.19 387.941 108.813 387.79 109.432 387.623C111.565 387.047 113.682 387.224 115.789 387.763ZM90.2633 386.392C91.5806 386.405 92.8991 386.461 94.2121 386.568C94.5013 386.591 94.7555 386.907 95.0518 387.023C95.3165 387.126 95.617 387.14 95.9016 387.193C95.6026 387.38 95.2904 387.744 95.007 387.722C93.5787 387.614 92.1579 387.406 90.6479 387.146C90.2901 387.019 90.0188 386.98 89.7479 386.94C89.9199 386.749 90.0931 386.391 90.2633 386.392ZM123.052 381.74C122.577 381.757 122.107 381.923 121.635 382.023C121.856 382.546 121.943 383.362 122.324 383.534C123.232 383.946 124.279 384.055 125.617 384.286L125.729 383.989C125.748 383.94 125.769 383.892 125.792 383.844C126.019 383.377 126.253 382.913 126.484 382.448C125.95 382.252 125.43 381.99 124.879 381.876C124.285 381.754 123.66 381.717 123.052 381.74ZM88.1316 378.739C86.2323 378.787 84.3283 378.778 82.4376 378.931C82.0627 378.962 81.7381 379.613 81.3901 379.979C81.9646 380.259 82.5283 380.566 83.1185 380.808C83.463 380.95 83.8487 381.048 84.2189 381.06L85.6381 381.109C86.8211 381.148 88.0042 381.172 89.1795 381.091C89.5213 381.068 89.8078 380.238 90.12 379.779C89.5731 379.432 89.0257 379.085 88.1316 378.739ZM211.469 371.175C211.301 371.155 210.896 371.901 210.856 372.321C210.762 373.288 210.581 374.358 210.89 375.224C211.255 376.253 212.091 377.118 212.752 378.033C212.792 378.088 213.224 377.985 213.235 377.918C213.493 376.294 213.764 374.67 213.912 373.036C213.942 372.706 213.487 372.332 213.429 371.805C212.778 371.574 212.138 371.253 211.469 371.175ZM0.764167 370.95C0.764167 370.95 12.4162 370.867 29.4102 370.968C34.3551 370.999 39.7528 371.076 45.45 371.149C55.8942 371.286 67.3364 371.492 78.8213 371.651L82.8751 371.705C87.3604 371.761 91.8352 371.809 96.2404 371.841C102.822 371.886 109.251 371.896 115.338 371.914C138.779 371.982 157.157 372.002 159.615 372.004L159.895 372.004C160.219 372.008 160.48 372.272 160.476 372.596C160.476 372.916 160.212 373.176 159.888 373.176C159.888 373.176 140.54 372.93 115.334 372.662C111.479 372.622 107.486 372.575 103.405 372.536L101.959 372.503C106.885 372.607 111.811 372.732 116.738 372.844C121.895 372.963 127.098 372.694 132.2 373.286C138.941 374.068 145.667 373.725 152.399 373.884C152.687 373.891 153.018 373.794 153.259 373.902C153.956 374.215 154.617 374.608 155.293 374.968C154.608 375.07 153.921 375.272 153.239 375.254C150.278 375.18 147.319 375.041 144.186 374.925C141.409 374.925 138.803 375.014 136.205 374.902C133.173 374.771 130.151 374.32 127.12 374.271C123.817 374.216 120.505 374.611 117.201 374.546C111.164 374.428 105.131 374.115 99.0952 373.887C98.558 373.867 98.0091 373.931 97.4879 373.835C97.2878 373.798 96.9639 373.306 97.0153 373.227C97.2021 372.937 97.514 372.545 97.7958 372.531C98.107 372.515 98.4185 372.503 98.7302 372.495C97.9027 372.489 97.0711 372.483 96.2369 372.477C93.0783 372.457 89.8838 372.446 86.6753 372.439C86.71 372.474 86.7453 372.506 86.7808 372.536C86.511 372.639 86.2486 372.784 85.9691 372.836C85.481 372.927 84.9819 372.961 84.4004 373.105C83.7374 373.192 83.1597 373.216 82.5855 373.181C82.3119 373.164 82.0448 373.034 81.7747 372.954C81.8839 372.806 81.9875 372.614 82.0924 372.432C70.8655 372.425 59.5941 372.472 49.1666 372.477L40.2717 372.477C36.4653 372.475 32.8232 372.469 29.3997 372.443C12.4057 372.314 0.757202 372.074 0.757202 372.074C0.447271 372.074 0.19654 371.82 0.199986 371.507C0.199986 371.197 0.454235 370.947 0.764167 370.95ZM226.655 372.481C226.655 372.481 241.02 372.418 261.97 372.547C268.068 372.582 274.726 372.669 281.746 372.752C296.136 372.923 312.068 373.183 327.888 373.364C333.418 373.427 338.934 373.486 344.367 373.524C352.48 373.58 360.406 373.597 367.911 373.625C396.812 373.732 419.47 373.782 422.5 373.788L422.845 373.789C423.166 373.792 423.427 374.053 423.427 374.376C423.423 374.7 423.159 374.961 422.835 374.957C422.835 374.957 398.981 374.683 367.904 374.376C360.399 374.3 352.477 374.213 344.363 374.157C338.931 374.123 333.411 374.105 327.881 374.095C312.061 374.06 296.129 374.105 281.736 374.081C274.716 374.067 268.057 374.063 261.96 374.018C241.429 373.868 227.225 373.615 226.666 373.605L226.648 373.604C226.338 373.604 226.088 373.35 226.088 373.041C226.091 372.728 226.345 372.477 226.655 372.481ZM262.228 370.095C269.758 370.13 277.287 370.313 284.816 370.416C294.139 370.542 303.462 370.746 312.784 370.726C317.741 370.715 322.696 370.143 327.653 370.111C334.314 370.068 340.977 370.29 347.639 370.422C352.392 370.517 357.144 370.701 361.898 370.742C364.105 370.761 366.315 370.423 368.521 370.441C373.159 370.481 377.796 370.641 382.433 370.768C386.203 370.87 389.973 371.027 393.743 371.101C396.422 371.154 399.105 371.067 401.784 371.123C405.092 371.191 408.399 371.323 411.703 371.495C411.977 371.51 412.429 372.053 412.424 372.343C412.419 372.63 411.936 373.158 411.668 373.155C405.642 373.087 399.616 372.977 393.591 372.833C392.133 372.798 390.681 372.555 389.222 372.509C384.586 372.364 379.948 372.172 375.311 372.177C370.037 372.183 364.763 372.475 359.49 372.459C356.866 372.452 354.248 371.965 351.62 371.836C350.346 371.773 349.057 372.135 347.774 372.137C331.694 372.16 315.613 372.194 299.534 372.137C288.88 372.099 278.227 371.92 267.401 371.805C263.641 371.805 260.052 371.715 256.469 371.83C252.744 371.95 249.026 372.413 245.302 372.449C242.682 372.474 240.06 371.896 237.434 371.843C234.651 371.788 231.863 372.075 229.075 372.126C228.333 372.14 227.586 371.838 226.841 371.681C227.491 371.376 228.159 371.102 228.788 370.759C230.221 369.977 231.664 370.27 233.222 370.329C238.998 370.553 244.788 370.46 250.572 370.404C254.458 370.366 258.343 370.077 262.228 370.095ZM139.831 353.447C140.01 353.824 140.291 354.186 140.35 354.58C140.621 356.384 140.823 358.198 141.066 360.006C141.16 360.711 141.154 361.474 141.438 362.101C142.02 363.386 143.179 362.638 144.114 362.694C146.355 362.828 148.605 362.908 150.828 363.195C151.372 363.266 151.947 363.974 152.283 364.525C152.575 365.002 152.548 365.673 152.663 366.258C152.151 365.965 151.615 365.705 151.139 365.363C150.944 365.222 150.935 364.788 150.739 364.692C150.265 364.457 149.731 364.341 149.22 364.178C149.277 364.625 149.221 365.13 149.413 365.509C150.041 366.755 150.825 367.925 151.421 369.184C151.842 370.075 152.617 370.381 153.47 370.678C154.218 370.025 154.549 369.452 154.002 368.55C153.779 368.182 153.965 367.567 153.965 367.064C154.132 367.142 154.335 367.184 154.462 367.305C154.869 367.691 155.506 368.061 155.588 368.52C155.773 369.57 156.144 370.826 154.759 371.461C153.4 372.084 152.072 372.07 150.885 371.039C149.827 370.119 148.798 369.164 147.734 368.25C146.783 367.433 145.778 367.594 144.666 367.995C143.403 368.45 142.067 368.707 140.753 369.004C140.67 369.023 140.417 368.662 140.38 368.453C139.666 364.415 138.999 360.372 139.307 356.241C139.338 355.837 138.935 355.373 139.025 355.007C139.159 354.454 139.549 353.964 139.831 353.447ZM98.9808 147.59C98.9142 147.828 98.9251 148.156 98.769 148.291C96.5353 150.219 95.6563 152.866 95.0136 155.578C94.6695 157.032 94.6072 158.57 94.5714 160.073C94.5056 162.865 94.5967 165.66 94.5414 168.452C94.4717 171.986 94.2849 175.519 94.2133 179.053C94.0716 186.053 94.0237 193.055 93.8438 200.054C93.6827 206.314 93.4168 212.573 93.1575 218.831C92.9606 223.589 92.7352 228.347 92.4611 233.102C92.1528 238.448 91.7861 243.792 91.426 249.136C91.0928 254.077 90.7086 259.015 90.403 263.958C90.3057 265.531 90.4828 267.123 90.3707 268.694C89.9503 274.572 89.4508 280.443 89.0055 286.319C88.8514 288.348 88.6731 290.382 88.6676 292.414C88.6365 304.662 88.652 316.909 88.652 329.157C88.652 331.314 88.6081 333.472 88.6661 335.628C88.7132 337.373 88.8883 339.114 88.9958 340.858C89.0203 341.261 88.9942 341.666 89.0008 342.071C89.0074 342.506 89.025 342.941 89.0378 343.377C89.3718 342.916 89.9803 342.466 89.9993 341.993C90.2901 334.812 90.496 327.627 90.7386 320.444C90.8312 317.699 91.0099 314.955 91.0695 312.209C91.1271 309.533 91.0484 306.854 91.0885 304.178C91.1835 297.813 91.2676 291.447 91.4416 285.084C91.6144 278.765 91.8893 272.45 92.124 266.133C92.2338 263.177 92.3237 260.219 92.4779 257.265C92.678 253.43 92.9793 249.601 93.1513 245.766C93.3257 241.888 93.3514 238.003 93.5239 234.125C93.6994 230.175 93.9637 226.228 94.2086 222.28C94.425 218.793 94.6901 215.309 94.8941 211.821C95.1487 207.47 95.3449 203.116 95.5995 198.765C95.8035 195.277 96.0436 191.791 96.2912 188.306C96.6256 183.596 97.0546 178.892 97.3076 174.177C97.528 170.071 97.5416 165.954 97.6864 161.844C97.7397 160.33 97.904 158.819 98.0297 157.308C98.0422 157.156 98.1399 157.011 98.1979 156.862C98.2555 157.011 98.331 157.157 98.3672 157.311C98.4914 157.839 98.7012 158.37 98.7028 158.9C98.7242 166.988 98.8799 175.08 98.6573 183.162C98.5222 188.063 97.7829 192.948 97.3329 197.841C97.0815 200.574 96.9359 203.319 96.6167 206.044C96.2578 209.107 95.8264 212.165 95.29 215.202C94.9961 216.866 96.3559 220.515 98.1341 221.591C102 223.93 106.164 224.71 110.665 223.833C113.319 223.316 116.031 222.814 118.716 222.821C120.723 222.826 122.729 223.653 124.733 224.124C124.845 224.151 124.934 224.274 125.034 224.353C124.934 224.39 124.837 224.447 124.733 224.461C123.856 224.582 122.979 224.793 122.101 224.796C114.12 224.822 106.138 224.81 98.1566 224.811C95.9841 224.812 95.682 225.193 95.5773 227.265C95.2775 233.189 94.9276 239.112 94.5325 245.031C94.4379 246.447 94.0899 247.846 93.8586 249.425C93.8586 253.47 93.9482 257.343 93.8349 261.21C93.7056 265.624 93.4001 270.032 93.1622 274.442C93.0587 276.359 92.8531 278.274 92.8302 280.191C92.6889 292.102 92.6371 304.013 92.4448 315.923C92.3685 320.624 91.8912 325.32 91.8126 330.021C91.7484 333.841 92.0329 337.666 92.1135 341.489C92.1641 343.877 92.0804 346.267 92.1334 348.654C92.2089 352.073 92.2992 355.494 92.4934 358.908C92.5904 360.611 93.0859 362.296 93.1252 363.996C93.1735 366.082 92.9392 368.174 92.8056 370.263C92.7947 370.436 92.5623 370.753 92.532 370.742C92.0391 370.555 91.2952 370.449 91.1282 370.086C90.4388 368.585 89.6276 367.046 89.403 365.445C88.777 360.98 88.4056 356.479 87.9657 351.988C87.8015 350.308 87.7174 348.619 87.6127 346.933C87.3756 343.101 87.1315 339.269 86.9365 335.434C86.9096 334.911 87.2728 334.369 87.2436 333.847C87.0513 330.416 86.7983 326.989 86.5733 323.561C86.5468 323.158 86.5698 322.752 86.5698 322.348C86.5698 316.859 86.5281 311.371 86.5846 305.883C86.6208 302.349 86.3611 298.732 87.0105 295.299C88.2713 288.633 88.1464 281.938 88.3208 275.232C88.4788 269.144 88.4383 263.024 89.097 256.985C89.693 251.519 90.0079 246.081 90.0951 240.595C90.1496 237.152 90.8569 233.724 91.0508 230.278C91.2949 225.942 90.9067 221.537 91.5051 217.262C93.3171 204.307 92.0609 191.309 92.4705 178.34C92.5837 174.748 92.8333 171.155 92.7788 167.565C92.7282 164.25 92.3984 160.935 92.108 157.628C91.9068 155.339 93.1015 153.546 94.0455 151.664C94.9533 149.854 96.7081 148.931 98.2983 147.854C98.4949 147.72 98.7519 147.676 98.9808 147.59ZM129.383 338.552C130.912 338.653 132.422 339.022 133.949 339.209C136.979 339.582 140.01 339.946 143.048 340.236C144.006 340.327 145.386 340.066 145.467 341.189C145.544 342.248 145.032 343.737 144.243 344.384C142.912 345.475 141.182 346.107 139.573 346.829C137.62 347.707 137.068 348.929 137.192 351.024C137.314 353.097 136.912 355.195 136.922 357.281C136.935 360.002 137.13 362.723 137.241 365.444C137.25 365.669 137.212 366.093 137.209 366.093C135.179 366.016 136.2 368.173 135.195 368.839C135.01 368.961 134.899 369.196 134.754 369.378C134.658 369.151 134.496 368.93 134.478 368.697C134.343 366.9 134.228 365.102 134.122 363.304C133.979 360.86 134.261 358.302 133.622 355.997C132.528 352.053 130.861 348.268 129.348 344.33C128.731 343.136 128.121 342.059 127.69 340.914C127.143 339.455 127.842 338.45 129.383 338.552ZM218.838 368.348C217.381 368.441 215.926 368.569 214.123 368.685C213.892 368.685 213.659 368.669 213.43 368.689C213.156 368.713 212.885 368.766 212.612 368.807C212.894 368.882 213.173 369.006 213.458 369.024C215.55 369.154 217.641 369.274 219.734 369.368C220.113 369.385 220.498 369.27 220.88 369.216C220.527 368.971 220.196 368.675 219.811 368.498C219.523 368.365 219.161 368.328 218.838 368.348ZM90.0542 359.831C89.9347 360.299 89.7047 360.77 89.7206 361.233C89.7483 362.052 89.9141 362.867 90.0429 363.68C90.2652 365.081 90.498 366.481 90.7479 367.878C90.7627 367.961 90.9659 368.011 91.0819 368.077C91.3131 367.424 91.7709 366.759 91.7324 366.123C91.6269 364.37 91.3131 362.63 90.9083 360.711L90.0542 359.831ZM379.954 326.088C380.257 326.301 380.558 326.816 380.52 327.167C380.117 330.895 381.208 334.69 379.917 338.401C379.621 339.25 380.267 340.381 380.169 341.352C379.883 344.207 379.442 347.047 379.058 349.893C378.984 350.438 378.816 350.983 378.827 351.525C378.921 355.983 379.046 360.441 379.161 364.898C379.167 365.129 379.236 365.394 379.149 365.586C378.831 366.285 378.384 367.569 378.12 367.536C377.131 367.416 376.994 366.49 377.068 365.563C377.126 364.817 377.079 364.062 377.079 363.138C376.688 361.103 376.208 359.338 376.615 357.307C376.905 355.858 376.79 354.212 376.234 352.526C375.668 350.81 376.513 348.627 376.759 346.65C376.833 346.055 377.04 345.472 377.068 344.877C377.319 339.66 377.491 334.438 377.82 329.225C377.88 328.278 378.497 327.34 378.97 326.459C379.103 326.21 379.782 325.968 379.954 326.088ZM360.332 0.159912C362.326 1.19808 364.133 2.5551 366.165 3.199C369.122 4.13646 371.457 5.96746 373.511 8.00181C375.881 10.3488 378.013 13.055 379.719 15.9199C381.64 19.1441 383.018 22.7077 383.319 26.5474C383.478 28.5763 383.671 30.6122 383.65 32.643C383.609 36.5675 382.03 40.0067 379.926 43.2219C379.441 43.9646 378.393 44.4712 378.189 45.2407C377.747 46.9127 378.34 47.9345 381.662 48.697C381.872 48.7448 382.077 48.8105 382.285 48.8681C382.078 48.926 381.864 49.0532 381.666 49.0318C379.734 48.8214 377.805 48.5854 375.874 48.361C375.704 48.3412 375.525 48.3229 375.359 48.354C374.556 48.503 373.756 48.669 372.954 48.8292C373.378 49.3942 373.764 49.9922 374.232 50.5179C375.479 51.9184 376.765 53.2836 378.021 54.6768C378.162 54.8335 378.205 55.0784 378.293 55.2826C378.096 55.2009 377.873 55.1539 377.705 55.0314C375.927 53.7331 374.17 52.4056 372.377 51.1276C371.961 50.8305 371.433 50.6905 370.956 50.4786C370.915 50.9238 370.768 51.3912 370.856 51.8088C370.998 52.483 371.163 53.2163 371.547 53.7654C374.478 57.9632 376.145 62.7248 377.678 67.5256C379.197 72.281 380.636 77.0683 381.887 81.8987C382.426 83.9774 382.467 86.196 382.619 88.3595C382.899 92.3624 383.029 96.3767 383.34 100.377C384.049 109.467 382.581 118.184 379.103 126.596C377.227 131.136 375.473 135.726 373.585 140.26C373.072 141.493 372.164 142.561 371.645 143.791C371.21 144.82 370.326 145.854 371.147 147.145C371.295 147.377 371.114 147.917 370.942 148.238C368.419 152.928 369.3 157.209 372.335 161.335C374.84 164.742 377.765 167.551 381.418 169.82C385.661 172.455 389.483 175.759 393.564 178.667C396.308 180.623 399.291 182.255 401.967 184.294C404.006 185.848 405.739 187.804 407.592 189.597C409.44 191.386 411.264 193.199 413.105 194.996C416.596 198.406 420.159 201.747 423.558 205.245C425.464 207.206 427.118 209.414 428.85 211.539C429.291 212.079 429.61 212.72 429.963 213.327C431.89 216.632 434.157 219.792 435.652 223.281C438.077 228.931 440.65 234.587 441.612 240.741C442.094 243.812 442.745 246.945 442.569 250.008C442.367 253.572 442.643 257.225 441.359 260.73C440.837 262.152 441.211 263.875 440.907 265.409C440.409 267.949 439.841 270.493 439.031 272.948C438.217 275.427 437.225 277.872 436.045 280.2C434.659 282.944 432.664 285.228 430.293 287.266C428.427 288.871 426.999 290.975 425.305 292.79C424.732 293.404 423.892 293.76 423.255 294.325C420.802 296.501 418.544 298.938 415.909 300.86C412.096 303.642 408.049 306.111 404.044 308.621C399.646 311.377 395.203 314.062 390.738 316.708C388.848 317.827 386.889 318.847 384.895 319.77C381.404 321.386 377.898 322.984 374.33 324.42C370.71 325.877 367.012 327.141 363.34 328.465C360.153 329.614 357.008 330.776 354.167 332.737C351.513 334.569 348.347 335.222 345.19 335.755C342.006 336.293 338.83 336.877 335.65 337.436C332.252 338.033 328.847 338.587 325.458 339.229C323.112 339.674 320.793 340.264 318.452 340.736C316.735 341.082 315.01 341.448 313.271 341.618C311.015 341.839 308.743 341.919 306.475 341.981C301.202 342.125 295.928 342.215 290.654 342.339C285.454 342.461 280.429 341.438 275.42 340.173C274.017 339.819 272.478 339.89 271.013 339.97C270.599 339.992 269.937 340.697 269.878 341.152C269.547 343.702 269.478 346.286 269.112 348.829C268.413 353.693 267.861 358.556 268.072 363.482C268.086 363.812 267.769 364.156 267.606 364.493C267.422 364.186 267.118 363.895 267.073 363.569C266.802 361.59 266.461 359.608 266.389 357.618C266.277 354.482 266.153 351.321 266.424 348.205C266.648 345.627 267.432 343.098 267.979 340.549C268.193 339.552 268.549 338.941 266.925 338.407C263.952 337.429 261.139 335.876 258.401 334.316C256.777 333.39 255.398 332.022 253.953 330.8C251.326 328.576 249.111 325.948 246.869 323.357C245.514 321.791 244.714 319.947 244.831 317.79C244.887 316.753 244.84 315.711 244.84 314.671C244.84 310.88 248.492 308.18 252.167 309.27C255.507 310.26 258.727 311.508 261.342 313.916C262.349 314.843 263.184 315.978 264.263 316.801C267.515 319.279 271.073 321.178 275.164 321.875C277.442 322.263 279.724 322.706 282.023 322.886C284.256 323.06 286.426 322.881 288.083 320.886C288.946 319.846 288.448 319.356 287.745 318.82C285.518 317.124 283.219 315.521 281.032 313.776C280.425 313.292 279.873 312.5 279.698 311.755C278.912 308.409 278.475 304.966 280.388 301.881C281.742 299.696 284.151 299.204 286.618 298.978C290.213 298.65 293.503 299.825 296.666 301.139C301.702 303.231 306.734 305.256 312.283 304.825C314.44 304.657 316.574 303.806 318.65 303.073C321.709 301.992 324.202 299.948 326.85 298.126C331.055 295.231 333.916 290.969 337.837 287.853C340.409 285.81 343.226 283.869 346.245 282.656C348.841 281.612 351.738 282.211 353.96 284.394L354.697 285.114C356.088 286.475 357.423 287.875 357.981 289.838C358.228 290.704 358.627 290.92 359.439 290.457C362.058 288.967 364.958 287.834 367.267 285.968C371.596 282.469 375.463 278.422 377.919 273.318C378.793 271.5 379.119 269.428 379.877 267.544C381.725 262.952 381.72 258.154 381.564 253.348C381.499 251.358 381.043 249.383 380.949 247.392C380.921 246.794 381.578 246.19 381.806 245.548C382.039 244.888 382.131 244.179 382.286 243.492C382.334 243.281 382.386 243.071 382.437 242.861C382.618 243.06 382.927 243.24 382.96 243.461C383.338 245.971 383.818 248.477 383.987 251.003C384.235 254.702 384.447 258.423 384.324 262.123C384.122 268.2 382.394 273.763 379.022 278.998C375.041 285.178 369.352 289.261 363.504 293.275C362.69 293.834 361.653 294.125 360.678 294.386C358.708 294.913 360.387 296.083 360.29 296.884C360.179 297.816 360.798 298.825 361.052 299.813C362.767 306.46 363.651 313.2 363.179 320.072C363.059 321.833 362.747 323.581 362.497 325.332C362.326 326.528 363.295 326.432 363.805 326.25C367.025 325.099 370.239 323.915 373.392 322.591C377.383 320.916 381.44 319.331 385.239 317.283C390.133 314.644 394.817 311.614 399.56 308.701C404.776 305.498 410.017 302.331 415.113 298.947C416.761 297.854 417.968 296.108 419.41 294.694C420.335 293.787 421.655 293.107 422.194 292.026C422.868 290.677 423.45 288.905 423.15 287.514C421.844 281.456 418.474 276.458 413.32 273.174C410.237 271.21 406.448 270.148 402.833 269.273C398.772 268.291 394.682 267.063 390.382 267.427C389.578 267.495 388.721 267.305 387.933 267.077C387.415 266.926 386.977 266.493 386.504 266.187C387.085 265.684 387.645 264.775 388.252 264.742C395.29 264.358 402.352 264.266 408.968 267.164L409.831 267.544C411.983 268.502 414.101 269.551 415.948 271.286C419.864 274.964 423.148 278.954 425.055 284.002C425.233 284.473 425.384 284.954 425.548 285.43C425.589 284.87 425.623 284.308 425.675 283.748C425.694 283.532 425.753 283.319 425.793 283.105C425.868 283.329 425.941 283.554 426.018 283.776C426.674 285.651 427.333 286.032 428.829 284.739C431.289 282.615 433.433 280.184 434.387 276.895C434.858 275.269 435.979 273.819 436.376 272.186C437.038 269.479 437.567 266.703 437.77 263.93C438.073 259.773 437.75 255.558 438.241 251.432C438.898 245.893 436.972 240.888 435.718 235.734C434.546 230.937 433.093 226.194 430.545 221.937C427.759 217.283 424.777 212.738 421.713 208.26C420.021 205.789 418.089 203.458 416.066 201.246C414.674 199.724 412.898 198.561 411.368 197.157C409.007 194.991 406.713 192.751 404.384 190.55C400.467 186.847 396.168 183.662 391.632 180.737C388.167 178.502 384.987 175.83 381.647 173.399C379.57 171.887 377.422 170.473 375.326 168.985C374.826 168.631 374.431 168.131 373.934 167.77C373.86 167.717 373.405 168.016 373.279 168.239C372.991 168.747 372.866 169.352 372.553 169.84C371.905 170.853 371.156 171.801 370.49 172.804C369.045 174.975 367.846 177.358 366.14 179.297C364.013 181.714 361.658 184.017 359.072 185.923C355.453 188.59 351.587 190.94 347.722 193.251C343.372 195.853 338.682 197.7 333.719 198.807C332.074 199.173 330.433 199.661 328.767 199.792C327.73 199.873 326.557 199.563 325.629 199.078C325.199 198.854 325.102 197.802 325.037 197.108C324.862 195.255 324.831 193.388 324.642 191.537C324.586 190.991 324.179 190.485 323.963 189.949C323.823 189.602 323.612 189.219 323.65 188.877C323.817 187.401 324.105 185.938 324.244 184.461C324.27 184.182 323.735 183.565 323.599 183.603C322.729 183.847 321.801 184.089 321.073 184.592C318.809 186.155 316.54 187.734 314.447 189.511C313.381 190.416 312.729 191.794 311.805 192.887C311.504 193.244 310.821 193.664 310.518 193.543C310.051 193.356 309.432 192.714 309.45 192.289C309.585 189.087 309.671 185.86 310.195 182.711C310.378 181.613 310.153 181.537 309.415 181.487C307.209 181.339 304.988 181.048 302.795 181.179C300.06 181.341 297.846 180.024 295.445 179.181C294.327 178.789 293.133 178.422 291.967 178.4C289.878 178.359 287.773 178.494 285.693 178.723C282.174 179.11 278.673 179.651 275.159 180.083C268.997 180.842 263.31 183.288 257.427 185.035C255.373 185.646 253.348 186.354 251.311 187.025C250.906 187.159 250.474 187.267 250.117 187.488C248.602 188.425 248.608 188.793 249.834 190.118C252.686 193.201 255.427 196.396 257.177 200.251C258.698 203.604 260.023 207.059 260.103 210.822C260.151 213.094 260.107 215.368 260.121 217.641C260.122 217.836 260.253 218.03 260.324 218.224C260.485 218.062 260.669 217.916 260.802 217.734C261.417 216.893 261.91 215.921 262.671 215.249C263.029 214.932 264.08 214.934 264.478 215.236C265.054 215.673 265.942 216.21 265.021 217.367C262.551 220.469 260.106 223.608 257.931 226.917C256.931 228.438 256.314 230.344 256.006 232.158C255.449 235.445 255.249 238.793 254.907 242.117C254.63 244.807 255.936 247.079 256.838 249.464C257.405 250.964 257.601 252.677 258.448 253.981C259.392 255.436 259.736 257.424 261.694 258.186C262.099 258.343 262.579 259.312 262.432 259.651C262.206 260.173 261.509 260.729 260.939 260.82C258.901 261.147 258.113 259.405 257.382 258.101C254.746 253.4 252.382 248.462 251.888 243.081C251.416 237.956 251.274 232.671 254.05 227.908C254.404 227.302 254.37 226.722 253.465 226.912C252.203 227.177 250.974 227.593 249.727 227.929C246.709 228.744 243.648 229.427 240.679 230.39C237.171 231.526 233.695 232.791 230.29 234.204C227.328 235.433 224.386 236.776 221.624 238.391C219.789 239.464 218.287 241.105 216.636 242.492C216.832 242.723 216.995 243.108 217.229 243.158C218.092 243.343 219.002 243.327 219.852 243.548C223.406 244.468 224.683 247.387 225.717 250.45C225.848 250.84 225.463 251.378 225.413 251.857C225.239 253.539 225.751 253.934 227.388 253.519C228.807 253.16 230.234 252.641 231.673 252.585C238.146 252.332 244.478 253.057 250.421 255.873C252.26 256.744 254.146 257.547 255.882 258.595C258.19 259.99 258.286 262.894 256.144 264.638C252.482 267.622 248.13 269.025 243.57 269.871C240.82 270.381 238.067 271.076 235.293 271.205C230.803 271.413 226.284 271.427 221.919 269.91C220.605 269.454 219.472 270.354 219.156 271.778C218.498 274.742 215.515 277.109 212.489 277.172C209.528 277.233 206.568 277.381 203.609 277.52C203.248 277.537 202.87 277.69 202.541 277.861C198.985 279.712 194.739 279.134 191.843 276.419C191.537 276.133 191.087 275.781 190.73 275.806C188.071 275.997 186.734 274.022 185.161 272.475C184.121 271.452 183.213 270.297 182.222 269.222C179.109 265.843 176.224 262.365 175.737 257.507C175.61 256.242 175.041 255.026 174.739 253.772C174.46 252.608 174.168 251.433 174.051 250.247C173.305 242.668 172.871 235.08 172.951 227.452C173.01 221.886 175.702 217.858 179.725 214.473C181.758 212.761 183.718 210.808 186.05 209.637C190.818 207.244 195.577 204.831 200.752 203.238C208.007 201.006 215.132 198.33 222.241 195.652C226.336 194.109 230.257 192.109 234.315 190.459C238.573 188.728 242.885 187.126 247.201 185.546C252.025 183.781 256.85 182.01 261.732 180.417C265.666 179.133 269.649 177.956 273.68 177.027C276.056 176.479 278.564 176.49 281.015 176.28C283.925 176.03 286.84 175.83 289.747 175.545C289.946 175.525 290.299 174.77 290.231 174.701C289.568 174.029 288.842 173.415 288.108 172.817C287.863 172.617 287.46 172.58 287.271 172.351C285.856 170.636 284.428 168.927 283.1 167.145C281.73 165.305 280.383 163.437 279.178 161.488C276.856 157.731 274.773 153.912 273.908 149.439C273.27 146.137 274.618 143.822 276.169 141.237C277.465 139.076 278.922 137.193 281.008 135.837C283.487 134.226 286.028 132.747 289.176 132.916C289.929 132.957 290.695 132.667 291.461 132.6C297.384 132.079 302.97 133.571 308.538 135.344C313.964 137.071 319.397 138.847 324.94 140.103C327.251 140.627 329.854 139.723 332.325 139.713C336.072 139.698 336.939 136.601 338.435 134.236C341.614 129.211 344.766 124.164 347.721 119.006C348.52 117.609 348.751 115.804 348.924 114.153C349.196 111.559 349.126 108.932 349.327 106.329C349.787 100.377 356.211 96.5513 361.608 98.9648C365.434 100.676 366.349 103.463 364.222 107.273C362.958 109.535 361.538 111.711 360.192 113.928C360.025 114.203 359.727 114.505 359.749 114.773C359.976 117.566 359.491 120.331 360.329 123.181C361.854 128.369 365.57 131.807 369.057 135.496C369.693 136.167 370.398 136.776 371.004 137.472C371.328 137.843 371.509 138.339 371.754 138.779C372.025 138.198 372.284 137.61 372.569 137.036C374.424 133.301 375.389 129.289 376.43 125.28C377.194 122.338 378.563 119.551 379.304 116.605C379.972 113.948 380.352 111.181 380.506 108.442L380.632 106.226C380.86 102.161 381.046 98.08 380.81 94.0332C380.539 89.3774 379.591 84.757 378.866 80.1326C377.868 73.7702 375.343 67.86 373.214 61.8441C372.47 59.7428 371.211 57.8177 370.13 55.8441C368.657 53.1557 367.157 50.4809 365.597 47.8435C365.354 47.4333 364.696 47.2879 364.286 46.9515C363.885 46.6234 363.556 46.2077 363.196 45.8305C363.56 45.5144 363.919 44.9378 364.288 44.9312C365.394 44.9106 366.503 45.1866 367.614 45.2057C368.496 45.2209 369.414 45.1431 370.259 44.9044C372.166 44.3658 374.047 43.7297 375.921 43.0819C377.96 42.3774 379.127 40.775 379.786 38.855C380.977 35.3847 381.292 31.8347 380.583 28.184C380.274 26.5936 380.512 24.8925 380.163 23.3158C379.414 19.9225 378.181 16.6392 375.812 14.05C373.428 11.4429 370.84 8.98671 368.115 6.73967C366.752 5.61673 364.882 5.10698 363.242 4.31999C362.76 4.08864 362.257 3.89189 361.798 3.62049C360.151 2.64647 358.457 2.06012 356.466 2.19582C354.909 2.30158 353.308 1.80077 351.757 1.92986C345.585 2.44311 339.861 4.12519 334.874 8.09396C330.944 11.2213 328.476 15.2243 326.769 19.7888C325.218 23.9352 328.547 27.332 332.251 27.4926C336.276 27.6668 339.777 29.0324 343.058 31.1896C344.564 32.1799 346.035 33.222 347.512 34.2563C347.661 34.3609 347.733 34.5751 347.841 34.7384C347.643 34.7167 347.417 34.7497 347.252 34.6646C345.06 33.5331 342.891 32.3522 340.685 31.2487C337.269 29.5402 333.671 28.341 329.818 28.6296C326.235 28.8978 322.689 29.7665 319.108 29.9104C314.642 30.0896 310.545 31.5415 306.551 33.1687C301.852 35.0837 297.05 37.0714 292.895 39.9083C287.932 43.2977 283.829 47.828 280.197 52.7004C278.53 54.9357 277.481 57.4312 276.343 59.9493C273.901 65.3598 271.018 70.5702 268.469 75.9356C266.707 79.6466 265.194 83.4765 263.588 87.261C263.087 88.4403 262.772 89.7176 262.14 90.8161C261.51 91.9075 261.832 92.0125 262.873 92.0475C266.927 92.184 270.376 90.4066 273.739 88.5325C277.42 86.481 281.079 84.3495 284.535 81.9469C288.305 79.3258 291.826 76.3474 295.468 73.5412C296.158 73.0093 296.877 72.496 297.65 72.1041C297.852 72.0014 298.609 72.4389 298.591 72.5411C298.395 73.7127 298.233 74.9204 297.803 76.0173C296.285 79.8943 294.661 83.7301 293.094 87.5884C292.973 87.8866 292.982 88.2378 292.93 88.5644C293.229 88.4489 293.557 88.3785 293.823 88.2109C298.045 85.5537 302.344 83.0072 306.441 80.1684C308.701 78.6018 310.635 76.5581 312.686 74.6964C314.495 73.054 316.184 71.2673 318.095 69.7571C318.667 69.3053 319.805 69.5674 320.684 69.5024C320.624 70.1825 320.573 70.8637 320.503 71.5426C320.276 73.7586 320.06 75.9757 319.806 78.1885C319.477 81.0514 319.101 83.9089 318.782 86.773C318.72 87.3298 318.823 87.9049 318.85 88.4714C319.32 88.2712 319.823 88.1262 320.254 87.8625C324.397 85.325 328.618 82.9629 332.393 79.7974C335.209 77.4365 336.907 74.3344 339.243 71.6822C339.909 70.9259 340.22 69.3411 341.713 70.7284C341.767 70.7778 341.988 70.728 342.067 70.6553C343.812 69.0475 343.365 70.6712 343.412 71.5617C343.529 73.7671 343.81 75.9795 343.717 78.1764C343.601 80.9527 343.073 83.7102 342.919 86.4869C342.74 89.692 342.77 92.9088 342.746 96.1209C342.745 96.2103 343.256 96.4455 343.369 96.3713C344.444 95.6597 345.548 94.9688 346.52 94.1289C347.76 93.0584 348.687 93.1767 348.999 94.6946C349.322 96.2601 349.521 97.8616 349.608 99.4562C349.63 99.8524 349.015 100.283 348.692 100.698C348.321 100.332 347.652 99.9846 347.628 99.5974C347.518 97.8216 346.178 97.5615 344.837 98.1214C343.908 98.509 343.204 99.4166 342.286 99.8567C341.557 100.207 340.656 100.2 339.832 100.352C339.868 99.9248 339.918 99.4978 339.917 99.0709C339.917 99.0351 339.575 99.0099 339.396 98.9628C338.927 98.8399 338.2 98.8361 338.058 98.5475C337.87 98.1661 338.094 97.5467 338.224 97.0513C338.539 95.8572 339.059 94.6954 339.212 93.485C339.459 91.5272 339.436 89.5372 339.606 87.5674C339.786 85.4631 340.178 83.3708 340.252 81.2657C340.314 79.4708 340.06 77.6647 339.936 75.8641C339.925 75.7093 339.837 75.56 339.786 75.4084C339.622 75.5596 339.447 75.7008 339.297 75.8644C338.066 77.2028 336.853 78.5567 335.611 79.8842C332.02 83.7219 327.481 86.2508 323.034 88.8945C321.797 89.6301 320.461 90.6217 319.134 90.6808C317.434 90.7562 317.809 91.6097 317.672 92.5697C317.625 92.8998 316.894 93.3925 316.539 93.3446C316.198 93.2987 315.651 92.6144 315.691 92.2676C316.004 89.5325 316.433 86.8111 316.833 84.0862C317.008 82.8898 317.262 81.7011 317.366 80.4989C317.536 78.5291 317.617 76.5519 317.722 74.5766C317.737 74.3017 317.672 74.0226 317.643 73.7457C317.439 73.8908 317.221 74.0206 317.032 74.1835C315.283 75.691 313.5 77.1616 311.802 78.7235C305.388 84.6244 298.338 89.5761 290.371 93.1712C289.92 93.3746 289.037 93.6569 289.002 93.5869C288.565 92.6914 287.704 91.5117 287.987 90.8375C289.514 87.193 291.332 83.6702 293.05 80.1054C293.358 79.4658 293.667 78.8262 293.975 78.1861C293.335 78.58 292.671 78.9401 292.058 79.3725C288.833 81.6483 285.718 84.0956 282.378 86.1867C279.152 88.2066 275.682 89.8354 272.353 91.6968C270.503 92.7314 268.204 93.361 267.828 95.9533C267.719 96.7026 267.805 97.4787 267.727 98.2345C267.703 98.4725 267.437 98.686 267.281 98.9103C267.206 98.6891 267.158 98.4527 267.049 98.2493C266.432 97.1065 266.06 95.5854 265.101 94.9443C264.16 94.3151 262.61 94.4384 261.342 94.5045C260.348 94.5558 259.378 95.0333 258.392 95.2965C258.248 95.3347 258.003 95.2857 257.922 95.1838C257.849 95.0909 257.885 94.8436 257.959 94.7129C259.905 91.264 260.556 87.3147 262.203 83.7549C263.707 80.5043 265.262 77.2767 266.835 74.058C268.268 71.1246 269.783 68.2306 271.211 65.2941C272.847 61.9292 274.605 58.6071 275.985 55.1376C277.638 50.9821 280.694 48.0037 283.777 45.0226L285.44 43.412C287.663 41.2656 289.914 39.1411 292.339 37.2499C294.208 35.7925 296.591 35.0001 298.723 33.8706C303.386 31.3988 308.386 29.768 313.415 28.3111C315.99 27.5657 318.779 27.5661 321.465 27.1847C321.958 27.1147 322.42 26.8301 322.897 26.6442C322.491 26.2523 322.149 25.6468 321.669 25.5041C319.445 24.8439 317.183 24.3139 314.937 23.7319C314.678 23.665 314.411 23.5966 314.179 23.4717C313.771 23.2521 313.387 22.9884 312.993 22.7435C313.459 22.6117 313.917 22.4161 314.392 22.3601C315.671 22.2084 317.073 22.3947 318.204 21.9191C319.238 21.484 320.26 20.4976 320.761 19.4925C321.147 18.7187 321.143 18.9889 321.493 19.3447C322.087 19.949 322.666 20.5719 323.304 21.1259C323.495 21.2912 323.963 21.3966 324.13 21.2803C324.59 20.9595 324.959 20.5073 325.364 20.1068C323.805 18.7004 325.035 17.5176 325.689 16.3095C327.469 13.0216 329.218 9.7527 332.027 7.12033C334.288 5.00122 336.853 3.5851 339.715 2.5932C341.978 1.80893 344.262 1.08455 346.536 0.246621C351.106 0.159912 355.676 0.159912 360.332 0.159912ZM213.954 352.878C214.536 353.847 215.141 354.802 215.759 355.749C216.01 356.134 216.322 356.48 216.606 356.844C216.646 356.459 216.596 356.032 216.751 355.7C216.911 355.358 217.23 355.053 217.547 354.828C218.563 354.107 219.642 353.472 220.63 352.717C221.02 352.419 221.235 351.891 221.53 351.468C221.144 351.429 220.757 351.39 220.024 351.351C218.346 351.235 216.67 351.066 214.991 351.021C213.564 350.982 213.217 351.651 213.954 352.878ZM134.956 350.013C134.79 350.748 134.624 351.482 134.641 352.391C134.725 352.586 134.81 352.782 134.894 352.977C135.108 352.846 135.505 352.715 135.504 352.585C135.501 351.816 135.418 351.046 135.324 350.281C135.311 350.179 135.084 350.101 134.956 350.013ZM130.528 342.728C131.827 344.848 133.137 346.962 134.487 349.049C134.666 349.325 135.108 349.432 135.428 349.617C135.571 349.322 135.804 349.037 135.841 348.729C136.099 346.571 137.007 345.128 139.443 345.078C139.929 345.068 140.407 344.648 141.236 344.417C141.63 344.254 142.112 344.183 142.401 343.91C143.047 343.3 143.597 342.589 144.186 341.92C143.231 341.799 142.279 341.629 141.32 341.571C140.086 341.496 138.835 341.605 137.611 341.465C135.76 341.255 133.933 340.751 132.081 340.649C130.56 340.565 129.87 341.655 130.528 342.728ZM89.8818 344.779C89.7035 345.322 89.517 345.862 89.3496 346.409C89.2718 346.663 89.2305 346.93 88.9993 347.364C88.9993 347.706 88.8868 348.105 89.025 348.376C89.2445 348.808 89.6311 349.155 89.9468 349.538C90.2095 349.087 90.6358 348.656 90.6922 348.181C90.7584 347.624 90.5245 347.023 90.3816 346.451C90.2407 345.887 90.0503 345.335 89.8818 344.779ZM348.108 284.884C345.694 285.348 343.586 286.611 342.009 288.65C340.377 290.76 338.874 293.066 336.876 294.775C333.886 297.333 330.582 299.549 327.284 301.718C323.553 304.172 319.438 305.952 315.193 307.264C311.352 308.451 307.463 307.41 303.651 306.592C301.914 306.219 300.189 305.757 298.492 305.227C296.091 304.476 293.547 303.929 291.4 302.705C290.015 301.916 288.849 301.578 287.37 301.763C286.526 301.868 285.555 301.604 284.834 301.931C281.76 303.324 280.304 308.6 282.538 311.055C284.475 313.184 286.826 315.012 289.227 316.626C291.306 318.024 292.35 321.4 290.972 323.491C289.048 326.411 285.954 326.977 282.904 327.383C279.439 327.845 276.068 326.938 272.855 325.728C268.376 324.042 264.666 321.065 261.217 317.867C258.75 315.578 256.202 313.594 252.823 312.349C251.958 312.52 251.096 312.712 250.226 312.851C249.875 312.906 249.505 312.843 249.144 312.834C249.372 312.63 249.586 312.408 249.832 312.228C249.987 312.113 250.188 312.058 250.368 311.976C250.157 311.927 249.847 311.763 249.75 311.847C248.902 312.581 247.884 313.238 247.343 314.166C246.983 314.782 247 315.893 248.123 316.368C248.39 316.48 248.563 316.982 248.646 317.336C249.794 322.196 252.991 325.817 256.293 329.222C259.379 332.405 263.407 334.314 267.61 335.743C268.424 336.02 269.257 336.263 270.099 336.434C272.504 336.923 274.92 337.364 277.33 337.831C281.06 338.554 284.672 339.786 288.587 339.603C296.41 339.237 304.245 339.138 312.071 338.847C314.353 338.763 316.663 338.596 318.891 338.137C323.289 337.232 327.619 336 332.014 335.08C337.993 333.83 344.01 332.758 350.002 331.566C350.5 331.468 351.364 330.959 351.33 330.777C350.871 328.347 353.011 328.453 354.164 328.203C357.277 327.53 359.209 325.96 359.739 322.754C359.986 321.258 360.555 319.799 360.663 318.301C360.824 316.076 360.921 313.805 360.649 311.602C360.332 309.029 359.541 306.519 359.041 303.965C358.087 299.094 357.181 294.194 354.818 289.77C354.044 288.32 352.862 286.974 351.572 285.952C350.671 285.237 349.177 284.678 348.108 284.884ZM272.985 322.78C273.148 322.943 273.311 323.106 273.822 323.269C274.956 323.593 276.072 324.068 277.229 324.209C279.311 324.464 281.418 324.523 283.515 324.645C283.675 324.654 283.844 324.506 284.008 324.431C283.852 324.39 283.697 324.317 283.54 324.314C280.112 324.249 276.743 323.851 273.509 322.629C273.373 322.577 273.161 322.725 272.985 322.78ZM107.087 317.752C108.885 317.821 110.68 317.974 112.474 318.126C112.786 318.153 113.084 318.397 113.391 318.404C119.896 318.535 126.401 318.647 133.079 318.763C134.313 318.993 135.363 319.33 136.436 319.433C138.462 319.627 140.5 319.711 142.534 319.798C148.277 320.042 154.02 320.279 159.764 320.491C163.588 320.632 167.415 320.725 171.24 320.846C171.457 320.853 171.673 320.915 171.889 320.952C171.675 321.031 171.464 321.17 171.247 321.18C166.14 321.423 161.034 321.807 155.925 321.832C151.975 321.852 148.025 321.377 144.072 321.199C138.099 320.93 132.12 320.79 126.15 320.476C121.49 320.23 116.837 319.829 112.185 319.443C110.367 319.292 108.559 319.007 106.751 318.746C106.508 318.711 106.296 318.458 106.07 318.306C106.41 318.112 106.755 317.739 107.087 317.752ZM265.52 314.647C267.409 315.233 269.252 316.161 271.179 316.387C273.923 316.708 276.727 316.541 279.506 316.54C280.419 316.54 281.331 316.376 282.245 316.351C282.616 316.341 282.992 316.502 283.366 316.585C283.009 316.849 282.685 317.183 282.29 317.365C278.176 319.259 273.939 319.104 269.483 318.069C268.828 317.838 268.299 317.673 267.876 317.363C266.819 316.589 265.81 315.751 264.788 314.931C264.733 314.887 264.734 314.773 264.708 314.691C264.98 314.672 265.277 314.572 265.52 314.647ZM148.692 193.836C149.328 194.146 149.581 195.581 149.681 196.534C149.753 197.235 149.774 198.128 148.365 198.184C146.181 198.272 147.018 200.157 146.997 201.357C146.971 202.924 147.269 204.495 147.294 206.066C147.346 209.301 147.568 212.565 147.224 215.763C146.968 218.14 147.228 220.254 147.917 222.504C148.298 223.748 148.953 223.815 149.787 223.738C150.746 223.65 151.676 223.286 152.629 223.089C152.981 223.016 153.596 222.948 153.68 223.101C153.868 223.447 153.988 224.17 153.802 224.318C153.047 224.916 152.148 225.801 151.332 225.771C148.247 225.66 147.523 227.111 147.635 229.654C147.737 231.96 147.761 234.281 147.635 236.585C147.364 241.552 146.8 246.462 145.695 251.352C145.058 254.175 145.538 257.258 145.59 260.223C145.617 261.794 145.727 263.375 145.955 264.928C146.067 265.696 146.359 266.575 146.87 267.122C148.144 268.484 149.516 269.688 151.227 270.631C157.452 274.059 161.705 279.08 163.725 286.084C164.524 288.853 165.038 291.61 165.316 294.413C165.741 298.71 163.904 302.503 162.09 306.229C159.907 310.716 156.361 313.682 151.862 315.892C147.557 318.007 143.128 318.643 138.503 318.362C136.756 318.256 135.069 317.378 133.315 317.131C130.005 316.664 127.474 314.681 124.773 313.029C123.874 312.479 123.01 311.766 122.348 310.951C119.075 306.923 116.392 302.504 115.441 297.365C114.636 293.012 114.623 288.543 116.105 284.27C117.314 280.786 119.407 277.784 121.849 275.038C123.997 272.623 126.407 270.402 128.267 267.788C129.467 266.101 130.191 263.915 130.575 261.85C131.104 258.997 131.217 256.05 131.308 253.137C131.374 251.053 131.001 248.957 131.019 246.869C131.059 242.467 131.378 238.063 131.274 233.667C131.229 231.769 130.666 229.78 129.891 228.029C128.98 225.971 129.087 224.012 129.784 222.089C130.708 219.537 131.052 216.965 131.026 214.272C131.002 211.895 131.291 209.516 131.32 207.136C131.336 205.741 131.138 204.34 130.991 202.948C130.754 200.717 130.785 198.539 132.125 196.47C134.137 193.315 137.04 192.306 140.52 192.185C143.412 192.085 146.157 192.598 148.692 193.836ZM133.429 230.013C133.305 236.145 133.151 242.277 133.101 248.41C133.082 250.787 133.497 253.175 133.378 255.542C133.236 258.354 132.382 261.16 132.474 263.947C132.588 267.401 131.041 269.77 128.592 271.724C124.565 274.94 121.32 278.777 118.827 283.265C118.739 283.423 118.797 283.668 118.801 283.872C118.813 284.462 119.023 285.133 118.816 285.63C117.791 288.088 116.446 290.477 117.474 293.268C117.879 294.367 118.508 295.385 118.893 296.49C119.062 296.973 119.085 297.885 118.812 298.072C118.101 298.557 118.003 298.855 118.47 299.595C118.857 300.21 118.895 301.033 119.207 301.709C121.363 306.381 124.216 310.423 128.961 312.885C135.303 316.176 141.839 315.891 148.412 313.981C153.93 312.377 157.638 308.484 160.499 303.335C162.275 299.394 163.3 295.405 162.662 290.955C162.175 287.56 160.894 284.5 159 281.912C156.846 278.972 153.903 276.603 151.268 274.022C150.018 272.799 148.791 271.51 147.367 270.519C145.381 269.136 144.017 267.319 143.172 265.154C141.681 261.331 142.023 257.225 142.944 253.503C144.228 248.312 143.861 243.077 144.477 237.89C144.795 235.213 144.534 232.467 144.532 229.752C144.531 228.175 143.03 227.092 141.506 227.269C140.051 227.438 138.525 227.453 137.088 227.205C134.91 226.829 133.473 227.799 133.429 230.013ZM155.299 310.615L154.624 311.479C154.9 311.408 155.234 311.421 155.432 311.233C155.553 311.118 155.467 310.693 155.299 310.615ZM213.276 309.212C213.319 309.422 213.649 309.712 213.862 309.727C215.999 309.878 218.186 309.745 220.266 310.158C222.558 310.613 223.181 309.48 223.668 307.495C224.098 306.701 224.127 306.083 223.044 305.823C221.372 305.422 219.72 304.942 218.046 304.556C214.942 303.84 212.636 306.094 213.276 309.212ZM284.073 274.464C287.071 274.622 290.007 275.156 292.873 276.619C297.312 278.884 298.463 283.805 296.911 287.538C296.174 289.311 296.637 291.582 296.556 293.801C296.283 295.99 296.391 297.926 297.685 299.634C297.728 299.69 297.563 299.902 297.495 300.042C296.535 299.568 295.57 299.105 294.622 298.609C294.522 298.557 294.476 298.314 294.48 298.162C294.587 293.706 294.72 289.25 294.814 284.793C294.861 282.555 294.824 282.53 292.731 283.061C290.591 283.603 288.476 284.253 286.318 284.711C286.019 284.774 285.542 284.004 285.147 283.619C285.637 283.2 286.061 282.621 286.628 282.392C288.016 281.833 289.496 281.502 290.881 280.938C291.357 280.744 292.043 280.039 291.969 279.725C291.78 278.929 291.3 278.152 290.769 277.506C290.463 277.136 289.839 276.868 289.341 276.84C284.635 276.57 279.967 275.503 275.196 276.413C273.448 276.746 271.574 276.355 269.772 276.49C265.89 276.78 262.008 277.145 258.321 278.55C258.099 278.635 257.895 278.768 257.682 278.878C257.876 279.019 258.05 279.223 258.266 279.291C260.468 279.98 262.643 280.807 264.892 281.278C267.426 281.809 270.031 282.003 272.601 282.369C273.151 282.447 273.7 282.594 274.22 282.789C274.377 282.848 274.569 283.227 274.513 283.369C274.319 283.864 273.964 284.749 273.773 284.724C270.128 284.232 266.491 283.668 262.868 283.03C261.879 282.856 260.953 282.354 259.979 282.066C258.697 281.688 257.722 282.395 257.682 283.67C257.451 291.024 257.219 298.377 256.99 305.73C256.977 306.133 256.933 306.547 256.998 306.941C257.251 308.462 256.769 309.03 255.218 308.886C255.09 308.874 254.913 308.375 254.92 308.106C255.013 304.804 255.324 301.497 255.205 298.204C255.063 294.298 254.347 290.409 254.28 286.506C254.229 283.526 254.245 280.395 256.191 277.802C257.488 276.073 259.664 276.191 261.43 275.87C265.101 275.203 268.865 274.987 272.602 274.76C276.421 274.527 280.264 274.262 284.073 274.464ZM195.229 306.304C194.94 307.344 195.535 308.235 196.564 308.321C198.665 308.497 200.788 308.394 202.898 308.497C204.243 308.562 204.925 307.842 205.634 306.832C207.132 304.697 206.978 303.109 204.752 301.428C204.175 301.428 203.555 301.568 203.028 301.406C198.775 300.098 196.171 302.923 195.229 306.304ZM218.654 300.064C218.08 300.345 216.555 300.09 217.42 301.948C219.654 302.677 221.884 303.418 224.133 304.096C224.239 304.128 224.679 303.603 224.683 303.333C224.709 301.305 220.658 299.084 218.654 300.064ZM207.063 297.504C204.967 297.696 202.87 297.887 200.782 298.152C200.56 298.18 200.399 298.686 200.209 298.971C200.502 299.096 200.789 299.307 201.089 299.331C201.776 299.385 202.526 299.177 203.148 299.383C204.611 299.865 206.96 298.944 207.1 301.693C207.303 301.661 207.611 301.699 207.69 301.583C208.018 301.098 208.472 300.581 208.515 300.047C208.578 299.25 208.335 298.427 207.876 297.615C207.604 297.575 207.328 297.48 207.063 297.504ZM280.131 281.64C280.749 282.121 281.572 282.326 282.271 282.714C284.328 283.853 284.495 285.133 282.759 286.781C282.807 285.74 283.168 284.562 281.682 284.489C280.816 284.447 279.891 284.804 279.061 285.147C278.576 285.348 278.225 285.873 277.813 286.253C278.395 286.574 278.961 287.123 279.561 287.163C280.587 287.232 281.634 286.983 282.672 286.867C281.216 288.598 279.852 288.997 277.925 288.254C276.774 287.811 275.076 283.868 275.765 282.958C276.285 282.269 277.11 281.805 277.816 281.264C278.716 280.573 279.377 281.053 280.131 281.64ZM196.413 207.952C193.609 208.96 190.769 210.165 188.345 211.861C185.056 214.161 182.105 216.954 179.084 219.621C176.549 221.858 175.767 224.976 175.834 228.118C175.962 234.16 176.605 240.191 176.753 246.234C176.829 249.322 177.307 252.248 178.155 255.203C179.128 258.593 179.859 262.021 182.347 264.748C183.268 265.756 184.014 266.93 184.787 268.064C185.579 269.229 186.258 270.474 187.099 271.6C187.303 271.873 187.949 271.817 188.392 271.913C188.417 271.591 188.382 271.25 188.476 270.949C188.763 270.029 189.099 269.123 189.415 268.212C189.726 268.906 190.041 269.599 190.346 270.296C190.474 270.589 190.609 270.885 190.691 271.192C192.01 276.152 197.343 277.94 201.27 276.358C203.647 275.4 204.059 273.547 201.786 271.766C201.082 271.214 200.407 270.625 199.546 269.88C199.259 269.478 198.816 269.107 198.727 268.665C198.629 268.18 198.702 267.494 198.999 267.156C199.182 266.95 200.092 267.054 200.386 267.328C202.19 269.01 203.861 270.834 205.674 272.506L206.04 272.843C207.811 274.475 209.62 276.028 212.444 275.466C214.073 275.141 216.378 273.863 216.726 272.673C217.024 271.658 215.861 268.561 214.745 268.196C212.342 267.41 210.545 265.792 208.577 264.357C205.635 262.211 205.023 258.16 207.336 255.45C207.608 255.132 207.591 254.578 207.755 254.152C207.827 253.964 208.016 253.821 208.151 253.657C208.233 253.807 208.393 253.961 208.385 254.106C208.288 255.734 208.242 257.372 208.024 258.985C207.859 260.214 208.627 262.174 209.77 262.746C211.231 263.478 212.385 264.583 214.384 264.48C216.051 264.394 217.776 265.622 219.493 266.22C221.414 266.89 223.348 267.53 225.294 268.124C225.628 268.227 226.052 268.038 226.434 267.983C226.359 267.786 226.34 267.529 226.201 267.401C223.641 265.049 224.037 261.933 224.046 258.941C224.048 258.427 224.43 257.896 224.696 257.405C224.866 257.092 225.146 256.839 225.377 256.559C224.959 256.399 224.502 256.046 224.13 256.119C223.355 256.272 222.64 256.702 221.873 256.928C218.468 257.928 215.055 258.903 211.636 259.851C211.516 259.884 211.157 259.552 211.134 259.364C210.921 257.643 212.206 257.148 213.454 256.717C215.982 255.843 218.774 255.797 221.001 253.963C222.593 252.651 223.668 250.661 223.187 249.118C222.419 246.657 221.017 245.625 218.484 245.608C216.532 245.594 214.581 245.526 212.628 245.51C210.499 245.494 208.355 245.366 206.242 245.559C204.471 245.72 202.739 246.289 200.981 246.635C200.711 246.688 200.397 246.513 200.102 246.443C200.807 245.704 201.439 244.42 202.229 244.315C206.619 243.734 210.803 242.545 214.826 240.743C215.163 240.592 215.469 240.261 215.672 239.94C216.189 239.123 216.43 237.874 217.152 237.486C221.348 235.231 225.657 233.187 229.911 231.038C230.537 230.722 231.469 230.315 231.58 229.804C231.99 227.916 232.433 225.939 232.271 224.047C232.022 221.115 230.342 218.687 228.209 216.762C225.789 214.578 223.013 212.805 219.857 211.848C215.891 210.647 211.899 209.501 207.865 208.565C205.71 208.065 203.445 207.988 201.221 207.846C199.615 207.744 197.846 207.437 196.413 207.952ZM226.306 264.312C227.964 267.116 230.504 268.787 234.254 268.84C235.94 268.724 237.645 268.73 239.307 268.467C242.376 267.981 245.432 267.391 248.467 266.722C249.208 266.559 249.818 266.084 248.93 265.068C247.044 262.91 247.125 260.617 248.891 258.354C249.133 258.043 249.175 257.577 249.309 257.183C248.922 257.139 248.536 257.06 248.149 257.059C245.067 257.048 241.981 257.142 238.902 257.026C236.277 256.926 233.664 256.452 231.04 256.391C226.67 256.289 224.09 260.565 226.306 264.312ZM297.565 262.084C299.994 262.888 302.423 263.72 304.775 264.721C305.75 265.136 306.544 265.988 307.393 266.675C307.971 267.144 308.5 267.671 309.051 268.172C308.454 268.355 307.867 268.635 307.258 268.696C306.569 268.765 305.82 268.771 305.168 268.572C302.204 267.666 299.238 266.752 296.327 265.693C294.461 265.015 293.356 265.965 292.142 267.086C291.218 267.94 290.007 268.264 289.134 267.087C288.36 266.044 289.133 265.197 290.048 264.42C291.675 263.117 293.291 262.037 295.329 261.921C296.072 261.879 296.875 261.856 297.565 262.084ZM252.093 259.27C251.698 259.454 251.304 259.638 250.909 259.821C249.467 260.492 249.044 261.445 249.631 262.705C250.175 263.872 252.519 265.04 253.426 264.597C254.845 263.904 255.547 262.172 254.906 260.346C253.694 260.178 254.357 261.438 253.821 261.766C253.329 262.068 252.805 262.319 252.295 262.592C252.239 262.076 252.162 261.56 252.131 261.043C252.097 260.453 252.104 259.861 252.093 259.27ZM240.295 191.168C233.927 193.652 227.721 196.545 221.392 199.134C217.881 200.57 214.233 201.669 210.67 202.984C209.018 203.594 207.401 204.312 205.814 205.077C205.326 205.312 204.99 205.863 204.585 206.27C205.16 206.557 205.706 206.962 206.315 207.11C208.898 207.736 211.497 208.293 214.093 208.862C219.986 210.153 225.305 212.372 229.409 217.114C232.048 220.162 234.041 223.3 233.721 227.476C233.626 228.723 234.176 229.228 235.313 228.951C236.876 228.57 238.407 228.055 239.948 227.583C242.564 226.78 245.176 225.967 248.138 225.158C249.922 224.58 251.798 224.19 253.474 223.386C257.385 221.51 257.457 222.246 257.325 218.145C257.196 214.135 257.476 210.144 256.736 206.11C255.893 201.511 253.866 197.629 250.801 194.344C249.441 192.884 247.312 191.934 245.355 191.3C243.796 190.795 241.763 190.596 240.295 191.168ZM144.906 223.059C141.669 223.116 138.429 223.062 135.191 223.093C134.66 223.098 134.13 223.309 133.252 223.424C132.62 223.948 131.988 224.472 131.355 224.996C131.873 225.281 132.376 225.778 132.912 225.817C136.917 226.111 140.93 226.309 144.939 226.547C146.279 226.626 146.254 225.698 146.267 224.794C146.28 223.858 146.254 223.036 144.906 223.059ZM134.454 198.525C132.795 199.328 133.571 201.074 133.426 202.797C133.31 204.828 133.125 206.859 133.094 208.892C133.04 212.531 133.02 216.172 133.134 219.808C133.154 220.448 133.855 221.57 134.314 221.609C137.492 221.88 140.689 221.978 143.879 221.972C144.32 221.971 145.751 221.914 144.943 220.387C144.383 219.327 144.244 217.958 144.218 216.721C144.132 212.736 144.135 208.748 144.213 204.764C144.24 203.354 144.399 201.89 144.838 200.563C145.148 199.627 145.028 198.564 144.025 198.481C141.938 198.307 139.844 198.174 137.75 198.14C136.643 198.122 135.397 198.068 134.454 198.525ZM370.379 163.862C370.133 164.062 369.846 164.228 369.649 164.469C368.733 165.585 367.934 166.812 366.926 167.836C363.333 171.486 359.888 175.307 355.279 177.794C352.396 179.35 349.659 181.194 346.189 181.996C343.319 182.747 340.479 183.653 337.571 184.205C334.688 184.752 331.739 184.961 328.814 185.277C327.984 185.367 326.719 185.327 327.165 186.454C328.276 189.257 328.042 192.063 327.798 194.918C327.621 196.995 328.176 197.626 330.149 197.035C334.148 195.839 338.256 194.782 341.996 192.992C347.96 190.136 353.573 186.602 358.853 182.562C361.786 180.318 364.389 177.872 365.92 174.438C366.291 173.607 366.65 172.673 367.287 172.075C369.446 170.049 371.019 167.843 370.486 164.684C370.44 164.412 370.414 164.136 370.379 163.862ZM145.946 194.29C142.804 194.325 139.659 194.231 136.522 194.351C135.68 194.383 134.768 194.872 134.07 195.394C133.708 195.665 132.939 196.729 134.398 196.818C136.674 196.957 138.956 196.995 141.583 197.076C143.712 197.008 145.846 196.992 147.969 196.831C148.44 196.795 148.947 196.306 149.275 195.897C149.374 195.774 148.95 195.196 148.722 194.855C147.987 193.758 146.929 194.279 145.946 194.29ZM313.216 183.036C312.869 184.099 312.483 185.151 312.197 186.231C312.107 186.571 312.285 186.983 312.341 187.362C312.734 187.206 313.184 187.123 313.511 186.878C314.79 185.914 316.029 184.897 317.287 183.903C317.983 183.353 318.686 182.811 319.386 182.265C318.69 182.002 317.982 181.766 317.299 181.47C315.392 180.644 314.244 181.043 313.216 183.036ZM357.475 121.852C357.353 122.317 357.319 122.832 357.089 123.236C356.637 124.031 355.848 124.695 355.597 125.532C353.793 131.549 352.101 137.598 350.349 143.63C349.451 146.72 348.464 149.783 347.586 152.877C346.224 157.681 344.843 162.489 341.997 166.666C340.447 168.94 339.61 171.685 336.964 173.257C332.634 175.83 328.662 179.106 323.231 179.073C322.672 179.069 322.111 179.398 321.55 179.573C322.041 179.832 322.537 180.081 323.018 180.356C323.163 180.439 323.322 180.572 323.381 180.72C324.169 182.7 325.936 182.973 327.638 182.816C330.929 182.512 334.206 182.004 337.468 181.461C342.651 180.597 347.569 179.003 352.19 176.399C357.791 173.243 362.457 169.078 366.667 163.968C367.116 163.288 367.659 162.649 367.985 161.914C368.233 161.356 368.204 160.677 368.299 160.051C367.884 160.028 367.47 160.007 367.055 159.981C365.876 159.906 365.423 159.143 365.652 158.136C366.156 155.918 366.469 153.718 365.986 151.457C365.933 151.209 366.026 150.906 366.121 150.655C366.872 148.657 367.57 146.635 368.421 144.679C369.366 142.506 370.245 140.375 368.394 138.266C367.123 136.818 365.833 135.379 364.449 134.042C361.347 131.046 359.16 127.523 357.986 123.372C357.841 122.858 357.646 122.358 357.475 121.852ZM290.483 134.901C285.852 135.33 282.02 136.814 279.269 140.419C276.949 143.457 275.623 146.806 277.06 150.913C279.461 157.773 282.872 163.964 287.715 169.388C288.422 170.18 288.877 171.2 289.424 172.129C289.669 172.544 289.832 173.009 290.086 173.417C290.125 173.481 290.599 173.412 290.632 173.319C290.793 172.869 291.084 172.314 290.948 171.932C289.622 168.21 288.229 164.512 286.835 160.814C284.396 154.341 282.487 147.771 283.022 140.735C283.043 140.462 283.006 140.053 283.162 139.944C284.04 139.332 284.966 138.785 285.887 138.235C286.01 138.161 286.195 138.193 286.352 138.175C286.362 138.373 286.461 138.633 286.37 138.757C284.043 141.972 284.705 145.343 285.794 148.752C287.243 153.293 288.684 157.838 290.109 162.387C291.118 165.61 292.123 168.834 293.074 172.075C293.631 173.973 294.405 175.551 296.14 176.819C300.267 179.836 304.857 179.135 309.386 178.843C312.122 178.666 314.833 178.07 317.902 177.662C318.606 177.547 319.314 177.448 320.013 177.312C322.741 176.783 325.547 176.491 328.173 175.643C331.786 174.475 334.858 172.237 337.651 169.678C338.095 169.271 338.348 168.586 338.538 167.982C339.599 164.624 338.268 161.451 337.647 158.246C337.04 155.121 336.089 152.064 335.451 148.944C334.569 144.635 331.46 141.984 327.254 142.252C324.891 142.404 322.41 142.426 320.134 141.879C315.547 140.774 311.043 139.306 306.544 137.867C301.314 136.195 296.232 134.369 290.483 134.901ZM355.466 100.943C353.023 101.92 352.189 104.128 351.828 106.269C351.271 109.582 351.392 113.004 351.007 116.354C350.761 118.497 350.123 120.595 349.66 123.059C348.842 124.338 348.013 125.609 347.21 126.897C344.107 131.872 340.932 136.815 336.625 140.851C335.153 142.23 335.029 143.382 335.648 145.195C336.69 148.244 337.352 151.42 338.212 154.532C338.898 157.015 339.632 159.485 340.37 161.953C340.451 162.226 340.81 162.679 340.851 162.66C341.248 162.467 341.813 162.27 341.941 161.929C344.314 155.577 346.487 149.146 349.005 142.853C351.764 135.955 353.196 128.729 354.879 121.553C355.681 118.137 356.638 114.799 358.955 111.967C360.168 110.484 361.067 108.707 361.897 106.963C362.42 105.866 363.385 104.848 362.579 103.31C361.323 100.916 358.254 99.8283 355.466 100.943ZM292.973 96.9218C296.024 96.993 299.087 97.2111 302.111 97.6229C304.35 97.9277 306.55 98.586 308.734 99.207C309.541 99.4364 310.205 99.0343 310.856 99.0499C312.357 99.0849 313.91 99.3952 315.33 99.9038C322.09 102.323 328.994 103.584 336.208 103.166C338.653 103.024 341.126 103.356 343.673 103.472C342.143 103.818 340.542 104.262 338.909 104.488C336.588 104.811 334.247 104.997 331.91 105.186C331.438 105.225 330.932 104.898 330.469 104.957C329.861 105.034 329.28 105.326 328.687 105.526C328.881 105.968 328.965 106.526 329.288 106.833C330.943 108.407 332.815 109.103 335.147 108.35C337.3 107.655 339.549 107.259 341.698 106.556C342.854 106.178 343.929 105.494 344.968 104.835C345.979 104.196 346.804 104.401 346.978 105.478C346.999 105.613 347.017 105.849 346.952 105.885C345.446 106.711 343.999 107.721 342.395 108.276C340.157 109.05 337.828 109.689 335.486 109.992C333.626 110.233 333.483 111.275 333.718 112.576C334.44 116.585 334.701 120.58 334.084 124.637C333.923 125.697 334.291 126.838 334.417 127.942C335.187 127.384 335.964 126.836 336.726 126.268C338.584 124.884 340.433 123.49 342.29 122.106C342.392 122.03 342.533 122.006 342.656 121.957C342.615 122.154 342.638 122.404 342.525 122.541C341.279 124.045 340.087 125.601 338.736 127.006C336.146 129.7 333.558 132.409 330.791 134.917C327.945 137.496 324.57 138.962 320.668 137.762C316.217 136.394 311.841 134.781 307.428 133.29C305.651 132.69 303.567 132.523 302.141 131.463C299.888 129.788 297.26 129.213 294.824 128.11C293.27 127.406 291.646 126.784 289.991 126.392C288.144 125.955 286.474 126.502 285.087 127.91C281.863 131.184 278.589 134.41 275.344 137.663C273.907 139.104 269.812 139.027 268.262 137.423C264.758 133.795 262.659 129.365 261.925 124.47C261.315 120.404 261.148 116.232 261.23 112.116C261.293 108.94 262.792 106.15 264.678 103.504C267.306 99.8171 271.532 99.8734 275.158 98.7264C278.271 97.7415 281.672 97.5953 284.964 97.2625C287.619 96.9938 290.306 96.8596 292.973 96.9218ZM311.48 100.937C311.71 101.089 311.934 101.248 312.169 101.39C312.584 101.64 313.016 101.865 313.425 102.124C315.349 103.345 317.284 104.548 319.185 105.804C321.312 107.211 323.055 108.979 323.968 111.415C324.812 113.667 325.595 115.941 326.405 118.552C326.405 118.783 326.356 119.027 326.412 119.244C327.201 122.29 326.901 125.308 326.455 128.383C326.055 131.132 324.909 133.431 323.264 135.571C323.115 135.765 323.072 136.041 322.98 136.279C323.135 136.321 323.301 136.423 323.446 136.398C326.906 135.806 329.609 134.082 330.816 130.719C331.578 128.593 332.153 126.306 332.268 124.064C332.452 120.441 332.545 116.74 332.004 113.174C331.518 109.974 328.241 108.614 326.029 106.643C324.561 105.334 322.763 104.241 320.925 103.535C318.125 102.46 315.166 101.799 312.27 100.977C312.023 100.907 311.744 100.948 311.48 100.937ZM283.612 99.4065C280.027 99.7587 276.483 100.788 272.996 101.784C270.318 102.549 268.362 104.373 268.138 107.31C267.935 109.972 268.075 112.662 268.099 115.339C268.136 119.29 269.134 122.967 271.198 126.365C271.727 127.236 272.132 128.277 270.842 129.015C270.754 129.064 270.765 129.434 270.845 129.601C271.098 130.134 271.413 130.637 271.687 131.161C271.782 131.343 271.823 131.553 271.889 131.75C271.685 131.646 271.421 131.591 271.285 131.429C269.268 129.027 267.926 126.288 267.054 123.059C266.475 119.948 265.641 116.855 265.401 113.717C265.217 111.302 265.784 108.831 266.004 106.384C266.018 106.236 265.914 106.078 265.866 105.925C265.743 106.03 265.565 106.11 265.506 106.243C264.854 107.706 263.809 109.14 263.669 110.654C263.382 113.768 263.583 116.926 263.583 120.065C263.582 124.428 265.127 128.351 267.131 132.113C267.795 133.359 268.652 134.532 269.584 135.596C270.641 136.802 273.047 136.402 274.897 134.605C278.945 130.673 282.902 126.644 286.896 122.655C287.754 121.797 288.524 120.81 289.507 120.131C290.053 119.755 291.282 119.543 291.631 119.868C292.438 120.621 292.265 121.459 291.059 122.024C290.324 122.369 289.83 123.113 290.798 123.908C291.321 124.338 291.7 125.043 292.285 125.278C295.061 126.395 297.914 127.324 300.683 128.459C302.314 129.127 303.786 130.189 305.423 130.837C309.051 132.274 312.722 133.605 316.406 134.896C320.196 136.224 322.683 134.709 323.643 131C324.512 127.64 324.555 124.26 324.347 120.824C324.05 115.908 322.807 111.564 318.852 108.155C314.826 104.686 310.377 102.087 305.282 100.755C302.317 99.98 299.216 99.5383 296.152 99.3691C291.981 99.1386 287.756 98.9986 283.612 99.4065ZM306.074 115.353C306.692 115.523 307.142 116.299 307.662 116.992C307.753 118.065 307.854 118.964 307.915 119.865C307.919 119.938 307.599 120.136 307.506 120.096C306.626 119.723 305.553 119.5 304.964 118.848C304.506 118.342 304.438 117.234 304.615 116.494C304.735 115.993 305.694 115.249 306.074 115.353ZM280.15 114.149C280.446 115.335 280.705 116.778 279.411 117.571C278.814 117.936 277.893 117.774 277.119 117.851C277.119 117.623 277.119 117.394 277.032 117.079C276.544 115.601 276.772 114.339 278.18 113.763C278.726 113.54 280.076 113.853 280.15 114.149ZM354.259 104.945C354.965 105.015 355.585 105.172 356.205 105.329C355.999 105.914 355.829 106.516 355.575 107.08C355.398 107.472 355.007 107.783 354.887 108.184C354.632 109.031 354.095 109.395 353.48 108.763C353.092 108.362 352.897 107.501 353.026 106.941C353.184 106.253 353.77 105.664 354.259 104.945ZM348.618 102.322C348.45 102.474 348.301 102.727 348.111 102.762C346.723 103.023 345.327 103.241 343.846 103.472C345.195 103.009 346.628 102.537 348.072 102.101C348.219 102.057 348.435 102.243 348.618 102.322Z" fill="#00160A"/>
</g>
</svg>
