<svg viewBox="0 0 534 439" fill="none" xmlns="http://www.w3.org/2000/svg">
<path d="M202.022 358.471C202.022 358.471 218.699 350.626 224.925 345.169C231.151 339.711 238.891 326.152 238.891 326.152C238.891 326.152 323.914 387.555 379.352 378.796C392.126 376.778 417.014 368.287 418.602 353.328C422.936 312.479 362.971 302.04 376.07 281.325C384.065 268.681 408.902 287.5 408.902 287.5L511.92 338.172C511.92 338.172 476.33 425.901 389.962 429.417C283.718 433.742 202.022 358.471 202.022 358.471Z" fill="white"/>
<path fill-rule="evenodd" clip-rule="evenodd" d="M120.345 14.9012C119.378 14.5216 114.186 8.16345 107.593 7.00624C104.598 6.48039 107.317 10.2948 104.02 10.3291C94.2008 10.4314 78.2439 8.58664 75.2878 10.3291C73.0909 11.6201 77.9293 16.1299 75.2878 16.337C50.3663 18.2904 12.3466 43.1737 4.0978 55.2458C1.47267 59.0877 22.7041 52.5695 19.3213 54.4688C15.5246 56.6006 11.3137 70.5591 8.79605 81.3398C7.05306 88.7636 5.95562 98.3178 5.56829 108.711C5.24552 117.684 5.37463 119.169 6.66573 124.075C8.1505 129.562 9.31249 131.176 11.3137 130.402C12.0238 130.143 12.3466 129.175 12.3466 127.368C12.3466 125.947 13.1212 121.687 14.0896 117.878L15.768 111.035L16.4781 113.876C17.3819 117.168 22.6754 127.368 27.4525 134.791C27.7101 135.185 28.8186 134.684 29.8182 132.268C30.7291 130.066 30.3594 126.549 31.9068 122.78C35.4315 114.193 42.3525 103.028 50.3663 94.0917C62.21 80.8841 66.1395 65.5988 77.2417 53.3289C97.9607 30.4308 123.965 16.3222 120.345 14.9012Z" fill="white"/>
<path fill-rule="evenodd" clip-rule="evenodd" d="M19.6159 57.5844C16.2923 60.257 11.3587 81.9353 11.2741 82.2976C9.53109 89.7215 7.85095 115.502 9.56836 120.383C11.2858 125.264 16.0947 107.669 16.0947 107.669C16.0947 107.669 23.3634 126.543 29.786 131.718C30.0604 131.939 22.1519 108.367 19.6159 94.6054C16.2682 76.4398 21.5074 56.0633 19.6159 57.5844Z" fill="#E7EAEE"/>
<path fill-rule="evenodd" clip-rule="evenodd" d="M143.496 437.247C149.693 435.892 160.15 431.171 164.154 429.557C168.157 427.942 180.357 410.715 184.747 391.284C187.91 376.953 189.524 356.554 187.716 353.132C187.449 352.647 186.473 343.37 189.072 346.399C194.85 353.132 201.709 363.702 223.35 344.762C229.245 339.603 237.057 332.945 235 327.06C229.245 310.592 204.295 277.432 200.492 274.92C195.944 271.916 172.959 274.468 138.752 264.372C99.9585 252.922 83.8049 219.205 68.6238 223.594C56.3468 227.144 26.932 248.956 19.5498 262.769C-15.3015 327.98 26.932 373.675 36.5501 386.799L45.8888 390.832L46.2116 399.16L46.6635 404.389C47.5027 414.395 47.8254 415.299 52.3443 418.656C63.6415 427.241 85.913 435.246 106.054 438.087C115.415 439.378 135.75 438.926 143.496 437.247Z" fill="white"/>
<path fill-rule="evenodd" clip-rule="evenodd" d="M49.5616 396.112L50.0135 401.341C50.8527 411.347 51.1755 412.25 55.6943 415.607C62.3589 420.672 72.8427 425.535 84.4554 429.255C92.5274 431.84 101.145 433.874 109.404 435.038C118.765 436.329 139.1 435.878 146.846 434.199C150.675 433.369 119.179 408.625 100.624 415.607C86.3755 420.969 52.7909 380.07 66.4459 369.385C81.7639 357.398 53.6947 310.122 52.7909 299.858C51.8871 289.594 48.3279 287.142 48.2241 287.502C48.1202 287.862 48.1202 289.09 48.3996 292.049C49.6039 304.802 49.5616 396.112 49.5616 396.112Z" fill="#E7EAEE"/>
<path fill-rule="evenodd" clip-rule="evenodd" d="M46.1987 296.928C47.554 296.664 48.8665 297.549 49.1303 298.904C54.0024 323.935 74.6112 340.881 111.463 349.742C148.533 358.656 173.784 358.176 187.088 348.661C188.211 347.858 187.374 354.736 186.552 355.263C177.874 360.828 148.371 369.131 113.163 361.626C68.1463 352.031 47.0096 314.179 44.2224 299.86C43.9586 298.504 44.8434 297.192 46.1987 296.928Z" fill="black"/>
<path fill-rule="evenodd" clip-rule="evenodd" d="M27.4262 251.767C28.6246 251.081 73.3363 302.324 134.696 313.923C196.056 325.522 210.912 318.146 213.3 302.324C213.506 300.959 214.78 300.019 216.145 300.225C217.51 300.431 218.45 301.705 218.244 303.07C215.217 323.122 186.825 327.891 133.855 318.852C81.5501 309.927 45.6899 288.721 26.4979 255.178C25.8122 253.98 26.2278 252.452 27.4262 251.767Z" fill="black"/>
<path fill-rule="evenodd" clip-rule="evenodd" d="M284.963 248.925C283.284 248.344 281.477 247.053 280.315 245.568L278.378 243.179L285.221 236.401C295.744 226.072 303.813 215.485 310.785 202.897C313.109 198.701 318.983 184.693 318.983 183.337C318.983 182.885 319.694 181.077 320.533 179.205C321.824 176.494 322.792 175.461 325.568 173.912C328.86 171.975 332.605 171.33 334.218 172.427C337.317 174.493 337.317 181.013 334.218 192.245C330.797 204.576 326.214 213.42 316.724 226.137C315.239 228.074 312.463 231.882 310.462 234.529C305.104 241.63 301.618 245.052 296.906 247.698C292.258 250.281 289.546 250.603 284.963 248.925ZM331.313 243.115L335.961 245.181C336.925 245.626 347.558 250.734 360.329 256.871C380.92 266.765 407.071 279.33 407.23 279.33C407.489 279.33 408.7 276.529 408.973 273.262C409.619 266.226 412.007 256.672 414.783 250.022C416.074 247.053 417.107 243.341 417.107 243.019C417.107 242.871 416.058 242.448 414.34 241.755C412.294 240.93 409.302 239.723 406.004 238.144C389.736 230.333 357.91 214.388 353.972 211.999C350.099 209.74 349.324 209.546 349.324 211.031C349.324 212.968 345.387 221.941 342.352 226.783C340.739 229.429 337.575 234.206 335.316 237.37L331.313 243.115ZM406.133 267.71C407.984 268.783 404.777 270.357 404.003 270.615C399.441 271.003 394.071 270.145 389.671 267.581C387.371 265.95 369.256 255.886 357.24 249.211C351.747 246.159 347.528 243.815 346.678 243.309C343.966 241.695 341.384 239.952 340.932 239.435C339.577 237.692 340.868 236.918 344.676 237.24C346.966 237.434 402.134 265.393 406.133 267.71ZM143.716 436.716C148.696 435.626 156.426 432.364 161.348 430.287C162.552 429.779 163.587 429.342 164.374 429.025C168.378 427.41 180.577 410.184 184.967 390.753C188.13 376.421 189.744 356.022 187.937 352.6C186.847 350.619 193.321 357.266 198.143 362.217C199.605 363.717 200.915 365.062 201.816 365.963C229.962 393.916 271.858 416.381 315.368 426.903C337.059 432.197 352.488 434.069 373.21 434.069C408.005 434.069 435.441 427.226 460.359 412.185C461.543 411.47 462.652 410.814 463.709 410.188C472.395 405.045 477.57 401.982 491.733 386.04C507.619 368.158 521.751 326.649 526.464 312.318C528.529 305.863 533.565 280.186 533.565 273.779C533.565 266.193 530.918 262.611 527.303 258.931C520.912 252.669 512.261 250.41 505.096 253.121L501.739 254.412L500.706 250.991C499.221 245.826 496.123 241.695 491.346 238.596C484.245 233.884 483.212 233.561 476.821 233.561C471.85 233.561 470.494 233.819 467.331 235.304L463.651 236.982L462.877 234.658C461.392 229.881 456.412 223.222 452.548 221.295C449.121 219.587 443.189 219.43 439.056 220.198C430.018 221.876 423.563 226.072 420.916 231.947C420.141 233.754 419.173 235.175 418.786 235.175C418.463 235.175 405.746 231.623 390.575 224.909C388.016 223.773 385.612 222.708 383.355 221.707C356.113 209.632 350.208 207.015 350.745 203.736C351.196 200.96 351.067 199.411 350.293 197.023C348.937 193.02 347.388 191.923 342.998 191.923C339.512 191.923 339.512 191.923 339.899 190.18C341.965 180.303 341.901 174.622 339.706 171.007C338.221 168.618 336.478 167.65 332.475 167.069C330.151 166.746 329.054 166.94 326.472 168.36C324.729 169.264 323.244 169.909 323.115 169.78C322.986 169.651 323.438 166.101 324.148 161.905C329.441 130.854 325.352 104.1 311.86 75.6958C311.731 75.424 311.581 75.1026 311.41 74.7348C307.308 65.9289 290.815 30.52 243.648 12.6531C241.513 11.8445 239.493 11.0626 237.551 10.3111L237.551 10.3109C221.484 4.09183 210.803 -0.0425734 185.032 0.000330779C156.146 0.0484196 146.363 4.13186 127.319 12.8468C124.673 14.0733 122.349 14.7835 122.155 14.5252C121.961 14.2025 120.735 13.4278 119.508 12.7822C118.282 12.1367 115.635 10.5228 113.698 9.23171C108.146 5.48752 104.725 3.93819 102.982 4.32552C100.981 4.84197 100.981 6.5204 102.982 7.29506C103.821 7.61784 104.79 8.71527 105.177 9.81271C106.016 12.1367 106.984 12.3949 107.565 10.4583C107.824 9.74815 108.211 9.23171 108.405 9.36082C108.478 9.39755 108.724 9.5126 109.099 9.68817L109.099 9.68825C110.043 10.13 111.804 10.9546 113.698 11.8785C116.345 13.1696 119.25 14.5252 120.025 14.848C121.445 15.3645 120.993 15.7518 114.86 19.3669C90.9102 33.4399 71.4145 55.3241 60.5047 80.2423C58.8263 83.9865 57.3415 86.3105 55.7922 87.6016C51.8543 90.8939 44.1077 100.254 42.3002 103.934C41.3318 105.935 39.2661 109.034 37.6522 110.841C36.1029 112.649 34.4244 114.973 33.8434 115.941C33.327 116.974 32.8106 117.684 32.6169 117.555C32.4878 117.362 32.6815 114.198 33.1333 110.519C34.1017 101.933 34.1017 99.6734 33.327 99.4798C32.165 99.157 30.4866 103.676 29.7765 109.292C29.26 112.714 29.1309 117.878 29.4537 123.172L29.841 131.564L25.2576 124.14C23.6816 121.658 22.1295 119.175 21.0272 117.412L21.0268 117.411L21.0265 117.411L21.0258 117.41L21.0236 117.406L21.0225 117.405L21.0219 117.404L21.0215 117.403L21.0209 117.402L21.0191 117.399C20.3196 116.28 19.8023 115.453 19.5768 115.102C17.8983 112.649 16.93 108.969 17.6401 107.743C18.0274 107.033 17.9629 106.71 17.3173 106.71C15.9617 106.71 13.3149 111.035 11.5719 116.006C10.7327 118.33 9.8935 120.267 9.63528 120.267C8.66695 120.267 9.11884 97.1558 10.1517 89.732C12.282 75.0779 17.8983 57.0025 20.416 57.0025C20.9324 57.0025 21.3843 56.7443 21.3843 56.357C21.3843 55.195 19.7059 55.6468 18.3502 57.1316C15.3161 60.4239 11.3137 70.5591 8.79606 81.3398C7.05307 88.7636 5.95563 98.3178 5.5683 108.711C5.24553 117.684 5.37464 119.169 6.66574 124.075C8.15051 129.562 9.3125 131.176 11.3137 130.402C12.0238 130.143 12.3466 129.175 12.3466 127.368C12.3466 125.947 13.1213 121.687 14.0896 117.878L15.768 111.035L16.4781 113.876C17.3819 117.168 22.6754 127.368 27.4525 134.791C30.7448 139.827 30.8094 140.15 31.9068 148.025C32.4878 152.48 34.2953 163.314 38.4914 179.98C42.1989 194.706 63.0414 209.313 68.2456 212.961L68.2462 212.961L68.2493 212.963C68.9329 213.442 69.3458 213.732 69.4133 213.807C70.0589 214.517 70.9626 214.904 71.4791 214.711C72.0601 214.517 72.3829 214.775 72.3829 215.485C72.3829 216.131 72.8347 216.97 73.3512 217.357C73.9967 217.809 74.4486 219.552 74.5777 222.586C74.9005 228.655 79.4194 240.275 82.9053 244.083C85.1648 246.536 89.8773 247.569 95.1063 246.665C98.5277 246.149 99.496 245.762 99.1732 244.987C98.9796 244.471 100.206 245.116 101.885 246.407C121.509 261.384 141.392 270.357 163.728 274.23C172.379 275.715 186.71 276.554 194.521 275.973C201.429 275.522 201.429 275.522 201.106 276.877C200.654 278.685 201.235 279.782 210.724 295.856C218.277 308.574 218.923 309.413 227.315 317.999C245.132 336.397 264.563 350.664 286.577 361.703C307.299 372.032 340.383 380.617 370.628 383.329C400.872 386.04 422.594 358.281 422.53 351.18C422.401 341.432 421.045 335.041 417.753 328.844C414.525 322.841 412.395 320.775 402.711 314.319C391.931 307.154 385.282 301.279 380.892 295.017C378.116 291.079 377.083 286.625 377.083 284.237C377.083 282.687 379.084 279.201 382.054 278.491C384.765 277.781 385.282 277.846 388.316 279.33C390.123 280.17 394.836 282.364 398.709 284.237C402.647 286.044 406.456 287.852 407.23 288.239C409.514 288.873 410.48 293.344 411.003 295.767C411.12 296.308 411.215 296.747 411.297 297.018C412.201 300.375 416.478 304.71 419.238 306.185C424.083 308.777 436.023 309.123 439.315 305.573C440.155 304.669 442.937 303.558 443.51 303.894C444.084 304.231 446.157 307.025 446.157 309.284C446.222 313.157 448.223 316.708 452.483 320.258C460.553 326.972 466.815 328.586 473.141 325.616C476.433 324.067 479.132 323.462 479.132 323.462C479.132 323.462 481.823 326.896 481.985 328.069C483.253 337.242 496.832 341.087 500.448 341.474C501.276 341.557 502.889 341.202 504.526 340.842C506.716 340.361 508.951 339.87 509.421 340.4C510.343 341.44 493.992 368.481 491.733 371.902C470.236 404.18 428.404 423.934 377.212 426C343.966 427.355 303.103 418.059 267.662 401.146C245.003 390.236 224.927 376.873 203.43 358.152C199.686 354.924 195.36 351.245 193.811 349.954C192.262 348.727 188.582 344.531 185.742 340.658C180.965 334.202 178.253 331.878 178.253 334.073C178.253 335.041 181.352 340.98 184.902 346.855C186.323 349.179 187.226 350.793 186.904 350.535C186.581 350.276 185.548 354.924 184.58 360.863C181.416 379.907 176.188 398.693 170.894 410.377C167.989 416.704 162.419 421.428 160.74 422.719C154.543 427.432 145.266 429.55 132.419 430.841C116.151 432.455 92.2013 428.84 73.9322 421.997C69.0906 420.19 56.6314 414.961 55.7922 414.38C55.7418 414.329 55.4558 412.472 55.0566 409.88C54.9441 409.149 54.8225 408.36 54.6948 407.537C52.3708 391.592 49.143 330.2 49.143 301.796C49.143 290.047 49.0139 287.464 48.2392 287.464C46.6254 287.464 45.9798 289.014 45.2697 294.565C43.6558 307.218 43.9786 373.258 45.7216 387.137L46.1089 390.301L43.914 389.074C40.5572 387.137 27.7753 374.162 23.321 368.158C19.55 363.026 17.3088 356.452 15.632 351.534C15.242 350.39 14.8825 349.336 14.5415 348.41C5.18097 322.459 8.47328 293.339 21.3843 267.129C32.3587 244.793 45.8507 232.399 65.6046 226.395C68.8323 225.427 71.6728 224.394 71.9955 224.136C73.2221 222.974 65.3464 223.555 61.0212 224.91C46.9481 229.236 32.2296 241.049 22.2235 256.155C8.15051 277.329 1.82411 308.574 6.27841 335.235C7.31129 341.561 11.5074 355.247 12.6694 356.216C12.7722 356.318 13.3032 357.432 14.1062 359.117C16.3265 363.775 20.6267 372.796 23.7083 376.873C27.4525 381.973 38.7496 393.076 43.4622 396.498L46.4317 398.628L46.8836 403.857C47.7228 413.863 48.0456 414.767 52.5644 418.124C63.8616 426.71 86.1331 434.715 106.274 437.555C115.635 438.846 135.97 438.394 143.716 436.716ZM361.913 376.099C324.406 372.806 279.088 354.923 246.294 327.294C232.48 315.609 214.533 292.887 207.432 280.299C205.947 277.716 204.85 276.49 203.559 276.167C202.203 275.78 203.365 275.392 208.917 274.489C232.35 270.486 255.138 260.738 273.537 246.859L276.248 244.858L277.023 246.73C278.766 250.926 285.479 255.187 290.45 255.187C292.451 255.187 299.165 252.153 303.232 249.377L306.008 247.505L308.267 249.764C310.333 251.83 310.72 251.959 314.594 251.959C319.048 251.959 324.406 249.958 327.376 247.117L328.989 245.633L333.573 248.667C336.026 250.41 342.869 254.218 348.743 257.253C357.523 261.771 366.819 267 375.663 272.423L377.083 273.327L375.727 275.134C374.307 277.071 371.662 280.751 371.662 286.367C371.662 292.693 378.24 304.06 390.833 311.866C400.727 317.999 417.753 330.062 417.107 347.694C417.029 349.824 414.654 355.118 411.491 359.895C409.425 362.929 403.68 367.448 398.451 370.095C389.542 374.549 373.855 377.131 361.913 376.099ZM17.7047 86.3105C19.4477 86.6979 20.6096 87.2789 20.3514 87.5371C19.5122 88.3763 15.0579 87.989 14.025 86.9561C12.4111 85.4068 12.7985 84.3093 15.0579 83.8574C16.2199 83.6638 17.9629 82.6954 18.9312 81.7271C19.8995 80.7588 20.7388 80.3069 20.7388 80.6297C20.7388 81.4689 17.511 84.4384 15.8971 85.084C14.8642 85.5359 15.187 85.7295 17.7047 86.3105ZM43.3976 87.3434C45.2697 86.3105 44.8824 85.6004 42.6875 85.9232C40.4926 86.246 40.3635 85.9878 41.7837 83.7929C42.3647 82.9537 42.6875 81.7271 42.5584 81.0816C42.3647 80.2423 41.9128 80.6297 40.88 82.6954C40.1053 84.1802 39.0079 85.4068 38.4914 85.4068C36.8775 85.4068 36.7484 86.6979 38.2978 87.2789C40.299 88.1181 41.8483 88.1181 43.3976 87.3434ZM21.0615 52.0963C19.5122 52.3545 14.6706 54.2912 10.4099 56.4215C6.08474 58.4873 2.4051 60.2303 2.14688 60.1657C-4.43774 59.4556 4.72909 48.4812 21.3843 37.2486C37.3294 26.4679 48.1101 20.7871 58.1162 17.8821C64.378 16.0746 71.4145 15.8163 73.4157 17.3011C74.5132 18.1403 74.1258 18.2049 69.3488 18.2694C59.02 18.2694 47.0772 23.563 27.6462 36.5385C17.5756 43.2523 5.89108 52.871 5.89108 54.4203C5.89108 54.7431 7.76318 54.0975 10.0872 53.0646C15.0579 50.8052 20.1578 49.6432 22.4172 50.1597C24.8057 50.8052 24.2893 51.6444 21.0615 52.0963ZM46.0444 57.6481C52.1125 56.4215 52.3708 56.357 52.3708 55.7114C52.3708 55.3886 50.0468 55.0659 47.1418 54.9367L41.9128 54.7431L46.7545 49.2559C49.4012 46.2218 52.4999 43.1877 53.5973 42.4776C55.9859 40.9283 56.115 39.8308 54.1783 39.1853L52.6935 38.7334L54.3074 38.1524C55.2112 37.8296 56.8896 37.7005 58.0516 37.8942C59.7946 38.1524 60.1819 38.0233 59.9883 37.1195C59.7946 36.2158 59.0845 36.0221 55.9213 36.0866C46.6899 36.2158 42.7521 38.6689 49.9822 39.8308C51.9834 40.1536 53.6619 40.6701 53.6619 40.9928C53.6619 41.2511 53.3391 41.5093 52.9518 41.5093C51.7252 41.5093 41.3318 52.0318 40.0407 54.614C38.0395 58.4227 39.137 59.0037 46.0444 57.6481ZM88.6508 32.6007C86.7787 32.7298 86.3268 33.0526 86.4559 33.9563L86.4758 34.0878C86.5483 34.5654 86.5899 34.8397 86.4829 34.923C86.3384 35.0354 85.923 34.7998 84.9468 34.246L84.7774 34.15C83.5509 33.5044 83.4218 33.1817 84.1319 32.6652C84.5838 32.2779 85.8103 31.6969 86.7787 31.5032L88.5862 31.0513L87.2305 29.6311C86.5204 28.7919 86.1331 28.0173 86.3268 27.759C86.8432 27.2426 93.1696 27.9527 94.0734 28.6628C94.4607 28.9856 95.0417 28.921 95.429 28.5337C96.3328 27.6299 97.5594 28.34 97.5594 29.7602C97.5594 30.5349 97.3657 30.5995 96.7847 30.0185C96.2683 29.502 95.8164 29.502 95.2354 29.9539C94.7189 30.4058 94.3316 30.4058 94.0088 29.8894C93.8152 29.5666 92.5886 29.2438 91.2975 29.2438C90.1064 29.2438 89.5432 29.2438 89.4282 29.4708C89.3251 29.6744 89.5826 30.0606 90.071 30.7931C91.1007 32.402 91.0397 32.407 88.6727 32.5989L88.6508 32.6007ZM78.8384 15.429C78.8384 14.5898 78.0637 13.105 77.0954 12.1367L75.2878 10.3292L84.9711 10.7165C90.3292 10.9747 96.3974 11.5557 98.5277 12.1367C100.658 12.6531 103.111 13.0405 104.015 13.0405C105.371 13.0405 105.112 12.7822 102.595 11.4266C98.2049 9.16716 92.5886 8.06972 81.8079 7.29506C68.8969 6.39129 62.3768 7.61784 63.6034 10.8456C63.797 11.4911 64.8299 11.8139 66.3792 11.8139C69.5424 11.8139 74.7068 13.686 76.4498 15.429C78.3219 17.3011 78.8384 17.3011 78.8384 15.429ZM47.3355 186.371C52.5644 193.085 59.4718 200.702 62.6996 203.284C64.6362 204.834 66.3147 206.125 66.4438 206.125C66.5083 206.125 65.0881 203.155 63.2806 199.54C55.9859 185.015 51.7252 170.555 49.724 153.9C49.2721 150.22 48.562 147.121 47.7874 145.83C46.238 143.248 46.238 139.891 47.8519 136.728C48.6911 135.05 49.143 132.919 49.143 130.595V127.045L46.0444 130.273C43.0103 133.436 40.1053 134.727 40.1053 132.79C40.1053 131.37 44.8824 124.527 47.4 122.397C49.4012 120.718 49.6595 120.137 50.305 115.102C50.7569 112.068 51.7898 106.71 52.629 103.159C53.5328 99.6089 54.0492 96.5748 53.9201 96.4457C53.4682 95.9938 38.2978 113.417 36.232 118.975C35.7784 120.196 34.5536 122.332 33.5852 123.623L31.9068 125.778C31.9068 125.778 32.4282 128.796 33.0042 132.589C33.5862 136.42 33.8593 139.054 34.1026 141.4C34.4279 144.539 34.6999 147.162 35.5864 151.447C36.6193 156.74 37.6522 161.324 37.9104 161.646C38.1041 162.034 38.9433 165.003 39.7825 168.296C41.5901 175.59 44.6242 182.82 47.3355 186.371ZM309.3 247.44L307.945 246.084C307.945 246.084 330.445 217.497 334.477 206.964C337.553 198.926 339.364 196.646 341.807 196.646C343.174 196.646 344.289 196.958 344.805 197.733C345.709 199.088 346.58 200.767 345.418 206.512C343.482 215.808 340.512 221.941 331.603 235.175C329.538 238.209 326.891 241.566 325.729 242.728C323.018 245.245 316.918 247.827 313.367 248.408C311.108 248.731 310.462 248.602 309.3 247.44Z" fill="#00160A"/>
<path d="M488.053 310.592C496.085 288.709 494.869 284.047 493.476 283.591C493.476 283.591 490.409 285.334 489.053 289.014C486.536 295.921 477.918 313.996 474.691 317.224C470.882 321.033 470.882 321.033 467.008 321.033C463.135 321.033 451.964 315.2 450.443 309.45C448.01 300.251 458.487 268.291 458.745 266.484L457.002 265.257C455.84 266.355 440.726 312.189 420.852 300.246C418.576 298.879 413.75 292.435 413.363 289.014C411.212 279.072 421.082 244.309 422.76 237.169C424.263 230.778 432.084 224.846 441.703 224.846C456.486 224.846 454.5 237.768 461.122 242.322C464.056 244.34 468.879 240.681 470.365 240.404C478.693 238.854 481.884 240.658 487.989 245.503C492.701 249.243 496.188 256.646 500.026 259.254C502.158 260.703 504.42 258.722 505.161 258.35C508.198 256.825 514.715 257.963 516.522 259.254C519.172 260.409 525.666 266.651 526.691 270.281C531.341 286.735 516.66 323.213 511.117 330.056C501.943 341.383 480.022 332.474 488.053 310.592Z" fill="white"/>
<path fill-rule="evenodd" clip-rule="evenodd" d="M116.926 250.633C134.614 261.801 152.853 269.095 173.639 271.097C190.036 272.646 212.145 270.516 228.025 265.351C241.388 261.026 259.464 249.044 271.535 238.909C294.969 219.284 309.752 188.63 316.208 156.095C317.111 151.511 318.49 139.99 318.425 128.564C318.425 115.265 312.573 78.9247 294.84 57.9708C258.266 14.7536 198.146 -4.71461 147.62 11.9197C129.394 17.9202 109.988 28.7919 95.334 42.994C76.8713 61.0049 63.2501 85.5359 57.8275 110.583C52.1466 137.051 59.5364 168.683 72.3829 194.634C82.6471 215.292 99.5606 239.594 116.926 250.633ZM289.288 172.621C277.152 209.094 245.52 236.337 205.754 244.6C199.686 245.826 195.489 246.278 186.968 246.407C180.965 246.601 174.961 246.536 173.734 246.407C145.911 243.05 124.737 232.786 105.241 213.29C96.7201 204.705 93.1051 200.057 87.8115 190.89C79.4839 176.365 75.0296 161.517 73.674 143.635C69.026 82.3727 112.859 31.3096 174.574 26.016C198.782 23.9503 225.637 31.3741 246.036 45.8345C253.589 51.1925 267.275 64.7491 271.535 71.0755C273.278 73.5932 290.192 98.3178 293.161 112.52C296.97 130.983 295.485 154.093 289.288 172.621Z" fill="white"/>
<path fill-rule="evenodd" clip-rule="evenodd" d="M318.448 128.564C318.448 171.894 297.952 219.265 271.5 239.496C258.88 249.148 242.387 260.836 228.025 265.351C206.978 271.968 173.639 271.097 173.639 271.097C173.639 271.097 207.651 266.55 220.255 261.478C256.399 246.932 276.129 224.604 288.312 203.18C312.361 160.891 318.448 127.511 318.448 128.564Z" fill="#E7EAEE"/>
<path fill-rule="evenodd" clip-rule="evenodd" d="M174.38 238.661C157.144 236.466 140.037 230.333 126.222 221.231C118.023 215.873 105.629 203.284 99.6251 194.311C91.0393 181.4 85.3584 167.585 82.5825 152.738C80.5813 141.957 80.6459 125.366 82.6471 115.748C84.7129 105.935 87.3596 98.4469 92.0721 88.9573C97.5593 77.9829 103.369 69.9135 112.084 61.1986C126.932 46.3509 144.168 36.9259 164.697 32.407C171.346 30.9868 195.425 29.8248 196.264 30.9222C196.458 31.245 197.749 32.0842 199.105 32.7943C200.46 33.569 204.075 36.2803 207.045 38.9271C211.499 42.8004 213.5 45.2535 217.374 51.3217C220.02 55.4532 222.151 59.1974 222.151 59.5202C222.151 60.2303 224.216 61.5214 225.378 61.5214C226.992 61.5214 228.09 56.6797 228.413 48.1585C228.606 43.4459 228.994 39.5726 229.252 39.5726C230.156 39.5726 240.097 45.0598 244.745 48.1585C253.847 54.2266 262.95 62.7479 269.663 71.6565C272.697 75.6589 273.149 76.6918 273.149 79.1449C273.149 81.4043 273.795 83.1473 275.796 86.6333C280.831 95.4128 284.769 106.452 287.158 118.653C288.707 126.851 288.707 142.344 287.093 150.93C282.703 174.557 269.663 198.055 252.685 212.968C238.29 225.556 222.99 233.303 204.915 237.111C198.717 238.467 180.125 239.371 174.38 238.661ZM128.223 194.505C128.804 193.859 129.191 192.891 128.998 192.439C128.94 192.304 128.131 191.924 126.948 191.367C124.19 190.071 119.395 187.816 117.317 185.467C109.054 176.042 106.02 169.006 104.148 154.481C102.34 140.343 103.859 130.786 107.117 115.425C108.707 107.932 112.932 101.742 115.56 97.8913C117.348 95.273 118.397 93.7359 117.378 93.6053C114.86 93.2179 114.473 93.4116 111.826 95.9292C106.145 101.352 103.563 105.677 100.852 114.005C96.6556 127.045 95.8447 162.286 104.148 178.172C112.45 194.059 126.738 196.183 128.223 194.505ZM220.02 140.279C218.924 150.307 214.275 164.81 208.852 171.136C206.335 174.105 197.093 179.205 189.292 178.172C181.757 177.175 175.865 173.654 170.829 166.101C166.504 159.581 164.27 151.666 162.76 141.699C160.152 124.487 171.54 104.451 176.446 99.4798C181.416 94.3799 184.967 92.5724 189.486 92.5078C193.876 92.5078 196.716 93.4762 201.17 96.6394C209.304 102.32 222.151 120.792 220.02 140.279ZM133 86.8915C134.291 85.4068 134.485 84.6967 134.098 81.9208C133.839 79.3386 133.323 78.3057 131.967 77.2083C129.579 75.2716 126.609 75.2716 124.414 77.3374C122.865 78.8221 122.671 79.3386 122.865 82.8891C123.059 86.6979 123.188 86.9561 125.318 88.1181C128.158 89.6674 130.934 89.2155 133 86.8915ZM173.283 47.061C161.663 55.3886 156.627 58.8101 151.398 62.0378C147.267 64.62 145.976 64.6846 145.976 62.3606C145.976 61.134 146.879 59.7784 149.203 57.6481L152.431 54.6785L146.169 53.8393C139.133 52.9355 132.29 50.9989 130.805 49.5141C128.352 46.9965 130.482 46.4155 137.454 47.7066C140.553 48.223 146.557 48.8686 150.817 48.9977L158.564 49.3204L164.18 45.2535C176.51 36.3449 189.292 31.3096 195.425 32.8589C199.234 33.7627 198.782 34.7955 194.457 35.312C189.486 35.893 186.452 37.5714 173.283 47.061Z" fill="white"/>
<path d="M189.873 169.328C189.873 169.006 190.26 168.683 190.777 168.683C191.293 168.683 191.939 169.006 192.133 169.328C192.326 169.716 191.939 169.974 191.229 169.974C190.454 169.974 189.873 169.716 189.873 169.328Z" fill="white"/>
<path d="M193.746 168.747C193.746 168.037 195.36 167.392 197.168 167.392C198.588 167.456 198.588 167.456 197.362 168.36C195.941 169.458 193.746 169.651 193.746 168.747Z" fill="white"/>
<path d="M183.74 167.069C183.547 166.553 183.289 165.649 183.095 165.132C182.901 164.487 183.224 164.164 184.063 164.164C184.773 164.164 185.354 164.551 185.354 165.068C185.354 165.584 185.548 166.423 185.742 167.004C186 167.715 185.806 168.037 185.096 168.037C184.515 168.037 183.87 167.585 183.74 167.069Z" fill="white"/>
<path d="M187.162 165.455C186.839 163.518 187.549 162.873 189.873 162.873C190.583 162.873 191.164 163.518 191.422 164.616C191.939 166.488 191.1 167.392 188.84 167.392C187.807 167.392 187.355 166.94 187.162 165.455Z" fill="white"/>
<path d="M180.577 165.778C179.351 164.81 179.351 164.81 180.706 164.81C181.546 164.81 182.127 165.197 182.127 165.778C182.127 166.94 182.127 166.94 180.577 165.778Z" fill="white"/>
<path d="M193.553 165.713C192.714 164.874 193.101 162.356 194.134 161.969C196.006 161.259 196.845 161.582 197.232 163.26C197.491 164.229 197.62 165.068 197.491 165.132C196.974 165.713 193.94 166.101 193.553 165.713Z" fill="white"/>
<path d="M199.298 164.358C199.105 164.164 198.911 163.325 198.911 162.55C198.911 161.453 199.427 161.001 200.977 160.678C202.332 160.42 203.172 160.549 203.559 161.065C204.204 162.098 204.204 163.389 203.623 163.712C202.461 164.358 199.75 164.745 199.298 164.358Z" fill="white"/>
<path d="M177.608 162.356C177.608 161.582 178.189 160.936 179.028 160.743C180.706 160.291 180.642 160.226 180.965 161.905C181.094 162.873 180.771 163.26 179.415 163.389C177.995 163.583 177.608 163.325 177.608 162.356Z" fill="white"/>
<path d="M182.514 162.421C181.61 161.453 182.191 159.645 183.418 159.645C184.257 159.645 184.709 160.097 184.709 160.872C184.709 162.098 183.224 163.131 182.514 162.421Z" fill="white"/>
<path d="M186.387 160.484C185.871 159.258 186.968 158.354 189.098 158.354C190.067 158.354 190.519 158.741 190.519 159.581C190.519 160.291 189.938 160.936 189.098 161.194C186.968 161.711 186.839 161.711 186.387 160.484Z" fill="white"/>
<path d="M205.044 160.291C205.237 159.968 205.56 159.645 205.754 159.645C205.947 159.645 205.883 159.968 205.689 160.291C205.496 160.678 205.173 160.936 204.979 160.936C204.785 160.936 204.85 160.678 205.044 160.291Z" fill="white"/>
<path d="M192.197 159.193C191.681 157.902 192.326 157.257 194.392 156.934C195.554 156.805 196.07 157.063 196.2 157.967C196.651 160.097 192.972 161.259 192.197 159.193Z" fill="white"/>
<path d="M176.704 158.096C176.123 155.966 176.252 155.772 177.931 155.772C178.834 155.772 179.544 156.03 179.544 156.353C179.544 156.676 179.738 157.386 179.932 157.902C180.125 158.548 179.738 158.935 178.641 159.129C177.414 159.387 176.962 159.129 176.704 158.096Z" fill="white"/>
<path d="M198.265 157.386C198.265 156.224 198.717 155.707 199.944 155.385C201.751 154.933 202.784 155.836 202.784 157.902C202.784 158.741 202.268 159 200.525 159C198.524 159 198.265 158.806 198.265 157.386Z" fill="white"/>
<path d="M174.767 157.386C174.574 156.869 174.703 156.417 175.025 156.417C175.413 156.417 175.671 156.869 175.671 157.386C175.671 157.902 175.542 158.354 175.413 158.354C175.284 158.354 175.025 157.902 174.767 157.386Z" fill="white"/>
<path d="M181.287 157.902C180.384 157.063 180.9 155.255 182.062 154.933C182.772 154.739 183.482 154.804 183.676 154.997C184.451 155.707 183.999 157.579 183.03 157.967C181.804 158.419 181.804 158.419 181.287 157.902Z" fill="white"/>
<path d="M204.334 157.45C203.623 155.578 204.398 154.158 206.206 153.964C207.561 153.771 207.949 154.029 207.949 155.062C207.949 157.192 207.239 158.354 205.947 158.354C205.237 158.354 204.527 157.967 204.334 157.45Z" fill="white"/>
<path d="M185.806 156.611C185.031 155.901 185.29 154.61 186.387 154.223C187.614 153.771 190.196 155.062 189.486 155.772C188.582 156.546 186.258 157.127 185.806 156.611Z" fill="white"/>
<path d="M191.422 154.997C190.841 154.093 192.907 152.544 194.586 152.544C195.36 152.544 195.683 152.931 195.554 153.642C195.296 154.933 192.003 155.966 191.422 154.997Z" fill="white"/>
<path d="M173.734 154.545C173.734 154.223 173.541 153.512 173.347 152.931C173.153 152.35 173.218 151.899 173.605 151.899C174.445 151.899 175.09 154.352 174.315 154.868C173.993 155.062 173.734 154.933 173.734 154.545Z" fill="white"/>
<path d="M175.477 153.061C175.09 151.64 175.865 150.607 177.35 150.607C178.189 150.607 179.028 153.125 178.512 153.964C177.801 155.062 175.8 154.416 175.477 153.061Z" fill="white"/>
<path d="M179.996 153.383C179.028 152.415 179.609 150.091 180.9 149.768C181.868 149.51 182.385 149.833 182.901 150.995C183.289 151.834 183.482 152.673 183.353 152.802C182.708 153.383 180.384 153.835 179.996 153.383Z" fill="white"/>
<path d="M197.426 153.383C196.587 152.544 196.974 152.028 198.911 151.318C200.525 150.801 200.977 150.866 201.299 151.64C201.88 153.19 198.653 154.674 197.426 153.383Z" fill="white"/>
<path d="M203.107 151.899C202.462 150.866 203.365 149.962 205.044 149.962C207.045 149.962 207.626 151.64 205.818 152.157C203.882 152.673 203.559 152.609 203.107 151.899Z" fill="white"/>
<path d="M208.594 150.349C208.594 149.381 209.756 148.348 210.273 148.864C210.725 149.316 209.821 151.253 209.175 151.253C208.852 151.253 208.594 150.866 208.594 150.349Z" fill="white"/>
<path d="M172.895 149.51C172.637 149.316 172.443 148.477 172.508 147.767C172.508 146.54 172.572 146.54 173.153 147.961C173.799 149.51 173.67 150.285 172.895 149.51Z" fill="white"/>
<path d="M174.122 148.542C173.541 146.282 173.605 146.089 175.284 146.089C177.156 146.089 178.318 148.477 176.898 149.381C175.413 150.285 174.574 150.026 174.122 148.542Z" fill="white"/>
<path d="M196.329 149.833C196.329 149.639 196.652 148.606 197.039 147.444C197.943 144.862 199.944 144.733 200.396 147.251C200.589 148.219 200.654 149.058 200.589 149.123C200.267 149.51 196.329 150.091 196.329 149.833Z" fill="white"/>
<path d="M178.705 148.219C178.447 148.025 178.253 147.251 178.253 146.54C178.253 145.508 178.447 145.443 179.222 146.089C179.738 146.54 180.19 147.315 180.19 147.767C180.19 148.735 179.415 148.994 178.705 148.219Z" fill="white"/>
<path d="M201.945 146.928C201.558 144.927 202.397 144.023 204.398 144.281C205.366 144.41 205.689 144.991 205.689 146.411C205.689 148.025 205.431 148.413 204.011 148.542C202.591 148.735 202.268 148.413 201.945 146.928Z" fill="white"/>
<path d="M208.271 147.186C207.432 144.604 207.69 143.829 209.433 143.635C210.983 143.442 211.176 143.635 211.176 145.314C211.176 146.734 210.789 147.315 209.821 147.573C209.111 147.767 208.401 147.573 208.271 147.186Z" fill="white"/>
<path d="M171.927 143.506C171.927 142.28 172.056 141.763 172.25 142.409C172.379 142.99 172.379 144.023 172.25 144.668C172.056 145.249 171.927 144.733 171.927 143.506Z" fill="white"/>
<path d="M173.541 144.346C172.702 143.571 173.089 141.053 174.122 140.666C175.607 140.085 176.317 140.795 176.317 142.925C176.317 144.281 175.994 144.797 175.155 144.797C174.509 144.797 173.734 144.604 173.541 144.346Z" fill="white"/>
<path d="M177.414 142.603C177.156 141.634 177.027 140.601 177.285 140.408C177.93 139.762 178.318 140.795 178.124 142.667L177.93 144.475L177.414 142.603Z" fill="white"/>
<path d="M198.265 142.151C198.265 141.441 198.588 141.053 198.911 141.247C199.298 141.441 199.556 142.086 199.556 142.603C199.556 143.119 199.298 143.506 198.911 143.506C198.588 143.506 198.265 142.925 198.265 142.151Z" fill="white"/>
<path d="M201.17 142.99C200.267 142.022 200.977 140.279 202.461 139.891C204.334 139.439 204.398 139.439 204.979 141.311C205.366 142.473 205.108 142.732 203.43 142.99C202.397 143.184 201.364 143.119 201.17 142.99Z" fill="white"/>
<path d="M207.109 141.763C206.399 141.118 206.593 138.988 207.303 138.988C207.69 138.988 207.949 138.729 207.949 138.342C207.949 138.019 207.561 137.696 207.045 137.696C205.947 137.696 205.044 134.533 205.947 133.629C207.109 132.467 208.4 133.694 209.175 136.857C209.627 138.536 210.079 140.472 210.273 141.118C210.531 141.957 210.273 142.215 209.046 142.215C208.207 142.215 207.303 142.022 207.109 141.763Z" fill="white"/>
<path d="M210.595 138.342C210.144 136.405 208.982 132.532 208.142 129.692C206.851 125.56 206.722 124.527 207.432 124.075C207.884 123.753 208.465 123.494 208.659 123.494C209.369 123.494 211.951 136.728 211.693 139.31L211.499 141.893L210.595 138.342Z" fill="white"/>
<path d="M171.281 138.019C171.281 136.986 171.41 136.599 171.604 137.245C171.733 137.826 171.733 138.729 171.604 139.181C171.41 139.569 171.281 139.117 171.281 138.019Z" fill="white"/>
<path d="M172.572 137.89C172.831 135.631 174.703 135.114 175.219 137.18C175.671 138.858 175.8 138.665 173.863 139.31C172.508 139.698 172.379 139.569 172.572 137.89Z" fill="white"/>
<path d="M199.815 137.309C199.298 135.437 200.396 134.34 202.461 134.598C204.011 134.791 204.592 137.567 203.301 138.407C201.687 139.439 200.202 138.988 199.815 137.309Z" fill="white"/>
<path d="M176.317 136.793C176.317 135.695 176.639 135.114 177.35 135.114C177.995 135.114 178.253 135.566 178.124 136.534C177.801 138.6 176.317 138.794 176.317 136.793Z" fill="white"/>
<path d="M170.571 134.081C170.571 133.371 170.765 133.178 170.959 133.694C171.152 134.146 171.088 134.727 170.894 134.921C170.7 135.179 170.507 134.791 170.571 134.081Z" fill="white"/>
<path d="M171.798 133.888C171.798 132.919 172.185 132.532 173.153 132.532C174.057 132.532 174.38 132.855 174.251 133.629C173.928 135.308 171.798 135.502 171.798 133.888Z" fill="white"/>
<path d="M175.348 133.307C174.896 132.145 174.896 132.145 176.833 131.628C177.995 131.241 178.253 131.435 178.253 132.403C178.253 133.952 175.929 134.727 175.348 133.307Z" fill="white"/>
<path d="M198.717 132.403C198.265 130.789 199.105 129.95 201.364 129.95C202.461 129.95 202.784 130.337 202.784 131.564C202.784 132.532 202.397 133.178 201.881 133.178C201.364 133.178 200.525 133.371 200.008 133.565C199.427 133.759 198.976 133.371 198.717 132.403Z" fill="white"/>
<path d="M204.334 130.918C203.817 129.627 204.592 128.659 206.076 128.659C206.98 128.659 207.303 129.111 207.303 130.273C207.303 131.435 206.98 131.886 206.012 131.886C205.302 131.886 204.527 131.435 204.334 130.918Z" fill="white"/>
<path d="M171.152 130.014C171.152 128.659 172.637 127.109 173.283 127.819C173.541 128.013 173.734 128.917 173.734 129.756C173.734 130.789 173.347 131.241 172.443 131.241C171.604 131.241 171.152 130.789 171.152 130.014Z" fill="white"/>
<path d="M174.703 129.24C174.186 127.626 174.767 126.916 176.962 126.593C178.963 126.335 179.609 128.465 177.866 129.756C176.188 130.983 175.155 130.789 174.703 129.24Z" fill="white"/>
<path d="M198.072 128.852C197.62 128.465 197.426 126.076 197.814 126.076C197.878 126.076 198.846 125.818 200.008 125.495C201.945 124.914 202.074 124.979 202.01 126.722C201.945 128.013 201.558 128.659 200.589 128.917C198.846 129.369 198.588 129.369 198.072 128.852Z" fill="white"/>
<path d="M195.683 127.368C195.683 126.916 195.877 126.722 196.135 126.916C196.329 127.174 196.329 127.561 196.135 127.819C195.877 128.013 195.683 127.819 195.683 127.368Z" fill="white"/>
<path d="M202.913 126.335C203.107 125.237 205.108 123.623 205.56 124.14C205.754 124.333 206.077 125.108 206.27 125.947C206.722 127.238 206.528 127.368 204.721 127.368C203.172 127.368 202.72 127.109 202.913 126.335Z" fill="white"/>
<path d="M171.798 126.27C171.798 125.947 172.121 125.302 172.443 124.785C172.96 124.011 173.089 124.075 173.089 125.302C173.089 126.076 172.831 126.722 172.443 126.722C172.121 126.722 171.798 126.528 171.798 126.27Z" fill="white"/>
<path d="M173.734 124.85C173.734 123.042 175.09 122.461 176.123 123.817C176.768 124.785 176.768 125.108 176.123 125.56C174.767 126.399 173.734 126.141 173.734 124.85Z" fill="white"/>
<path d="M193.359 124.011C192.197 122.72 192.197 122.655 193.295 123.042C193.94 123.301 194.779 123.494 195.102 123.494C195.425 123.494 195.683 123.946 195.683 124.463C195.683 125.818 194.779 125.689 193.359 124.011Z" fill="white"/>
<path d="M179.48 123.946C176.704 121.816 176.317 117.039 178.899 117.039C180.642 117.039 182.256 119.75 181.997 122.268C181.804 124.592 181.029 125.108 179.48 123.946Z" fill="white"/>
<path d="M197.168 124.333C197.426 124.14 197.813 124.14 198.072 124.333C198.265 124.592 198.072 124.785 197.62 124.785C197.168 124.785 196.974 124.592 197.168 124.333Z" fill="white"/>
<path d="M206.916 121.816C207.109 121.235 207.303 120.654 207.303 120.525C207.303 120.396 207.626 120.267 207.949 120.267C208.336 120.267 208.594 120.848 208.594 121.558C208.594 122.332 208.142 122.849 207.561 122.849C206.851 122.849 206.658 122.526 206.916 121.816Z" fill="white"/>
<path d="M173.089 121.622C173.089 120.137 174.445 117.684 175.219 117.684C176.575 117.684 175.607 121.816 174.186 122.074C173.605 122.203 173.089 122.01 173.089 121.622Z" fill="white"/>
<path d="M187.614 120.912L185.677 120.46L187.42 120.008C189.228 119.492 190.519 119.879 190.519 120.977C190.519 121.622 190.454 121.622 187.614 120.912Z" fill="white"/>
<path d="M185.354 117.813C185.354 115.167 186.839 114.779 188.195 117.103C189.099 118.653 189.163 118.975 188.324 118.975C187.807 118.975 186.968 119.169 186.387 119.363C185.613 119.686 185.354 119.298 185.354 117.813Z" fill="white"/>
<path d="M196.587 118.717C193.682 117.426 191.81 114.005 191.81 109.938C191.81 107.033 192.068 106.323 193.811 104.709C194.908 103.676 196.006 102.837 196.329 102.837C197.749 102.837 202.978 107.807 204.721 110.906L206.722 114.457L204.592 116.716C202.139 119.298 199.427 120.008 196.587 118.717Z" fill="white"/>
<path d="M183.095 117.039C182.901 116.716 183.03 116.393 183.353 116.393C183.74 116.393 184.063 116.716 184.063 117.039C184.063 117.426 183.934 117.684 183.805 117.684C183.611 117.684 183.289 117.426 183.095 117.039Z" fill="white"/>
<path d="M174.638 116.006C174.832 115.425 175.026 114.844 175.026 114.715C175.026 114.586 175.607 114.457 176.317 114.457C177.931 114.457 177.995 115.489 176.381 116.393C174.638 117.297 174.186 117.232 174.638 116.006Z" fill="white"/>
<path d="M179.738 115.231C178.253 115.038 177.801 114.198 178.77 113.617C179.028 113.424 180.19 113.101 181.352 112.843C183.095 112.455 183.418 112.584 183.418 113.682C183.418 115.038 182.062 115.619 179.738 115.231Z" fill="white"/>
<path d="M184.709 113.036C184.709 112.262 184.773 111.81 184.902 111.939C184.967 112.068 185.483 112.714 185.935 113.359C186.71 114.263 186.645 114.457 185.742 114.457C185.096 114.457 184.709 113.94 184.709 113.036Z" fill="white"/>
<path d="M175.671 112.584C175.671 112.197 175.994 111.745 176.317 111.552C176.704 111.358 176.962 111.616 176.962 112.133C176.962 112.714 176.704 113.165 176.317 113.165C175.994 113.165 175.671 112.907 175.671 112.584Z" fill="white"/>
<path d="M178.06 111.616C177.543 110.325 182.127 108.905 182.901 110.131C183.482 111.164 182.901 111.616 180.448 112.133C178.963 112.455 178.318 112.326 178.06 111.616Z" fill="white"/>
<path d="M184.128 109.55C184.128 108.84 184.321 108.647 184.515 109.163C184.709 109.615 184.644 110.196 184.451 110.39C184.257 110.648 184.063 110.26 184.128 109.55Z" fill="white"/>
<path d="M178.641 108.518C179.415 107.097 181.675 104.773 182.256 104.773C182.901 104.773 182.966 107.807 182.32 108.195C181.997 108.324 180.965 108.647 179.996 108.905C178.576 109.228 178.253 109.163 178.641 108.518Z" fill="white"/>
<path d="M183.805 107.033C183.095 105.096 183.418 104.257 184.967 103.999C186.581 103.676 186.581 103.676 185.548 105.677C184.257 108.259 184.321 108.259 183.805 107.033Z" fill="white"/>
<path d="M183.418 103.159C183.418 103.03 184.709 102.127 186.323 101.223C188.259 100.061 189.615 99.6734 190.583 99.9317C191.745 100.319 191.423 100.577 188.582 101.933C185.419 103.353 183.418 103.87 183.418 103.159Z" fill="white"/>
<path d="M219.246 45.9636C217.503 43.4459 213.823 39.379 211.176 36.9259C208.53 34.4728 206.787 32.4716 207.303 32.4716C208.723 32.4716 219.569 35.4411 222.28 36.6031C224.539 37.5714 224.604 37.7005 224.023 39.7017C223.7 40.8637 223.442 43.7687 223.442 46.1572C223.442 48.6103 223.248 50.547 222.99 50.547C222.667 50.547 221.053 48.4812 219.246 45.9636Z" fill="white"/>
<path d="M87.8761 241.501C85.2294 240.145 84.6484 239.371 81.2915 232.722C76.4499 223.297 76.3208 221.102 80.9042 226.46C82.7117 228.59 86.9078 232.98 90.2001 236.208C95.8164 241.63 96.0746 242.017 94.2025 241.759C92.8469 241.566 92.3304 241.695 92.6532 242.211C93.4279 243.373 90.9748 243.05 87.8761 241.501Z" fill="white"/>
<path fill-rule="evenodd" clip-rule="evenodd" d="M196.063 359.115C195.527 357.842 196.125 356.377 197.397 355.841L198.788 355.251C212.31 349.465 220.072 345.989 225.346 340.47C230.62 334.951 231.251 326.845 232.242 321.912C232.513 320.559 235.579 322.936 236.932 323.208C238.286 323.48 239.163 324.798 238.891 326.151C237.7 332.082 234.492 337.736 229.327 343.103C224.18 348.452 214.214 354.186 199.337 360.449C198.065 360.985 196.599 360.387 196.063 359.115Z" fill="#00160A"/>
<path fill-rule="evenodd" clip-rule="evenodd" d="M257.213 101.54C258.4 100.834 259.934 101.223 260.64 102.409C267.712 114.288 271.5 127.868 271.5 141.996C271.5 184.798 236.802 219.496 194 219.496C182.626 219.496 171.595 217.043 161.494 212.369C160.241 211.789 155.507 207.173 160.274 209.051C165.042 210.928 183.488 215.142 194.133 215.142C234.173 215.142 262.5 182.037 262.5 141.996C262.5 128.774 257.213 117.039 256.344 104.967C256.243 103.567 256.027 102.246 257.213 101.54Z" fill="#00160A"/>
<path fill-rule="evenodd" clip-rule="evenodd" d="M9.61893 290.752C10.5026 289.691 12.079 287.547 13.1399 288.431C17.492 292.056 22.1363 296.256 27.1042 297.066C32.2739 297.91 38.4068 297.91 45.4951 297.052C46.8658 296.886 48.1115 297.863 48.2774 299.233C48.4433 300.604 47.4667 301.85 46.096 302.016C38.5686 302.927 31.9723 302.927 26.299 302.001C20.424 301.042 14.9605 298.454 9.93984 294.272C8.87895 293.389 8.73527 291.812 9.61893 290.752Z" fill="#00160A"/>
<path d="M62.6995 203.284C59.4718 200.702 52.5644 193.085 47.3354 186.371C44.6241 182.82 41.59 175.59 39.7825 168.296C38.9432 165.003 38.104 162.034 37.9104 161.646C37.6521 161.324 36.6193 156.74 35.5864 151.447C34.0371 143.958 34.3648 141.546 33.0042 132.589C32.4281 128.796 31.9067 125.778 31.9067 125.778L33.5852 123.623C34.5535 122.332 35.7784 120.196 36.2319 118.975C38.2977 113.417 53.4682 95.9938 53.92 96.4457C54.0491 96.5748 53.5327 99.6089 52.6289 103.159C51.7897 106.71 50.7568 112.068 50.3049 115.102C49.6594 120.137 49.4012 120.718 47.4 122.397C44.8823 124.527 40.1052 131.37 40.1052 132.79C40.1052 134.727 43.0102 133.436 46.0443 130.273L49.143 127.045V130.595C49.143 132.919 48.6911 135.05 47.8519 136.728C46.238 139.891 46.238 143.248 47.7873 145.83C48.562 147.121 49.2721 150.22 49.724 153.9C51.7252 170.555 55.9858 185.015 63.2805 199.54C65.0881 203.155 66.5083 206.125 66.4437 206.125C66.3146 206.125 64.6362 204.834 62.6995 203.284Z" fill="white"/>
<path fill-rule="evenodd" clip-rule="evenodd" d="M331.313 243.115L335.961 245.181C336.925 245.626 347.558 250.734 360.329 256.871C380.92 266.765 407.071 279.33 407.23 279.33C407.489 279.33 408.7 276.529 408.973 273.262C409.619 266.226 412.007 256.672 414.783 250.022C416.074 247.053 417.107 243.341 417.107 243.019C417.107 242.871 416.058 242.448 414.34 241.755C412.294 240.93 409.302 239.723 406.004 238.144C389.736 230.333 357.91 214.388 353.972 211.999C350.099 209.74 349.324 209.546 349.324 211.031C349.324 212.968 345.386 221.941 342.352 226.783C340.739 229.429 337.575 234.206 335.316 237.37L331.313 243.115ZM406.133 267.71C407.984 268.783 404.777 270.357 404.003 270.615C399.441 271.003 394.071 270.145 389.671 267.581C387.371 265.95 369.256 255.886 357.24 249.211C351.747 246.159 347.528 243.815 346.678 243.309C343.966 241.695 341.384 239.952 340.932 239.435C339.577 237.692 340.868 236.918 344.676 237.24C346.966 237.434 402.134 265.393 406.133 267.71Z" fill="white"/>
<path d="M284.963 248.925C283.284 248.344 281.477 247.053 280.315 245.568L278.378 243.179L285.221 236.401C295.744 226.072 303.49 214.784 310.462 202.196C312.786 198 319.694 181.077 320.533 179.205C321.824 176.494 322.792 175.461 325.568 173.912C328.86 171.975 332.605 171.33 334.218 172.427C337.317 174.493 337.317 181.013 334.218 192.245C330.797 204.576 326.214 213.42 316.724 226.137C315.239 228.074 312.463 231.882 310.462 234.529C305.104 241.63 301.618 245.052 296.906 247.698C292.258 250.281 289.546 250.603 284.963 248.925Z" fill="white"/>
<path d="M309.3 247.44L307.945 246.084C307.945 246.084 330.445 217.497 334.477 206.964C337.554 198.926 339.364 196.646 341.807 196.646C343.174 196.646 344.289 196.958 344.806 197.733C345.709 199.088 346.58 200.767 345.418 206.512C343.482 215.808 340.512 221.941 331.603 235.175C329.538 238.209 326.891 241.566 325.729 242.728C323.018 245.245 316.918 247.827 313.367 248.408C311.108 248.731 310.462 248.602 309.3 247.44Z" fill="white"/>
<path fill-rule="evenodd" clip-rule="evenodd" d="M347.095 217.547C348.397 214.569 349.324 211.971 349.324 211.031C349.324 209.546 350.099 209.74 353.972 211.999C357.91 214.388 389.736 230.333 406.004 238.144C412.072 241.049 417.107 242.696 417.107 243.019C417.107 243.341 345.714 220.705 347.095 217.547Z" fill="#E7EAEE"/>
<path fill-rule="evenodd" clip-rule="evenodd" d="M126.222 221.231C118.023 215.873 105.629 203.284 99.6251 194.311C91.0393 181.4 85.3584 167.585 82.5825 152.738C80.5813 141.957 80.6459 125.366 82.6471 115.748C84.7129 105.935 87.3596 98.4469 92.0721 88.9573C97.5593 77.9829 103.369 69.9135 112.084 61.1986C120.63 52.6524 82.6471 87.9944 92.0721 151.229C99.6251 204.219 132.085 225.094 126.222 221.231Z" fill="#E7EAEE"/>
</svg>
